<svg width="952" height="718" viewBox="0 0 952 718" fill="none" xmlns="http://www.w3.org/2000/svg">
<path d="M59.2145 371.241L389.797 178.856C392.174 177.482 394.87 176.759 397.615 176.759C400.36 176.759 403.056 177.482 405.433 178.856L899.807 461.98C902.19 463.352 904.169 465.328 905.546 467.709C906.922 470.091 907.647 472.793 907.647 475.544C907.647 478.295 906.922 480.997 905.546 483.378C904.169 485.759 902.19 487.735 899.807 489.107L583.719 671.752C575.962 676.233 567.163 678.593 558.205 678.593C549.248 678.593 540.449 676.233 532.692 671.752L59.2621 398.32C56.888 396.95 54.9156 394.978 53.5427 392.605C52.1698 390.231 51.4445 387.537 51.4397 384.795C51.4349 382.052 52.1506 379.356 53.5152 376.977C54.8798 374.598 56.8452 372.62 59.2145 371.241V371.241Z" fill="#F9E48A"/>
<path style="mix-blend-mode:multiply" opacity="0.63" d="M786.114 464.957C781.52 469.173 778.974 468.506 771.525 475.27C766.455 479.819 750.105 487.178 750.105 487.178C750.105 487.178 715.428 470.102 699.72 460.79C671.85 444.309 677.134 446.5 658.022 437.188L606.9 469.054L743.393 548.099L835.071 490.726C824.789 484.534 806.391 475.246 786.114 464.957Z" fill="url(#paint0_linear)"/>
<path style="mix-blend-mode:multiply" opacity="0.63" d="M245.14 396.582C240.547 400.797 238 400.13 230.551 406.894C225.482 411.443 209.131 418.802 209.131 418.802C209.131 418.802 174.597 401.702 158.889 392.342C131.019 375.862 136.303 378.053 117.192 368.741L66.1167 400.678L202.61 479.723L294.287 422.351C283.934 416.158 265.537 406.87 245.14 396.582Z" fill="url(#paint1_linear)"/>
<path d="M446.322 521.187C509.953 521.187 561.537 496.012 561.537 464.957C561.537 433.903 509.953 408.728 446.322 408.728C382.69 408.728 331.106 433.903 331.106 464.957C331.106 496.012 382.69 521.187 446.322 521.187Z" fill="url(#paint2_linear)"/>
<path d="M585.48 271.691C571.946 242.302 554.413 221.391 532.882 208.959C516.016 199.21 500.657 196.972 486.805 202.243C482.426 203.219 452.843 219.248 452.843 219.248H464.528C454.691 232.315 448.82 251.534 446.916 276.906C444.149 309.408 449.814 342.073 463.362 371.742C476.865 401.178 494.381 422.112 515.913 434.544C523.573 439.203 532.085 442.288 540.95 443.618L535.214 454.931C535.214 454.931 561.966 444.523 573.128 435.164C589.74 423.16 599.324 400.249 601.878 366.431C604.663 333.964 599.014 301.329 585.48 271.691V271.691ZM519.102 392.747C508.582 386.666 499.959 375.235 493.231 358.452C486.504 341.67 483.989 321.95 485.687 299.293C487.384 276.668 492.525 261.37 501.109 253.4C509.693 245.429 519.213 244.501 529.669 250.613C540.189 256.694 548.812 268.126 555.54 284.908C562.267 301.691 564.782 321.41 563.084 344.067C561.434 366.724 556.309 382.022 547.709 389.961C539.11 397.9 529.558 398.828 519.054 392.747H519.102Z" fill="#5BC0BE"/>
<path opacity="0.61" d="M585.48 271.691C571.946 242.302 554.413 221.391 532.882 208.959C516.016 199.21 500.657 196.972 486.805 202.243C482.426 203.219 452.843 219.248 452.843 219.248H464.528C454.691 232.315 448.82 251.534 446.916 276.906C444.149 309.408 449.814 342.073 463.362 371.742C476.865 401.178 494.381 422.112 515.913 434.544C523.573 439.203 532.085 442.288 540.95 443.618L535.214 454.931C535.214 454.931 561.966 444.523 573.128 435.164C589.74 423.16 599.324 400.249 601.878 366.431C604.663 333.964 599.014 301.329 585.48 271.691V271.691ZM519.102 392.747C508.582 386.666 499.959 375.235 493.231 358.452C486.504 341.67 483.989 321.95 485.687 299.293C487.384 276.668 492.525 261.37 501.109 253.4C509.693 245.429 519.213 244.501 529.669 250.613C540.189 256.694 548.812 268.126 555.54 284.908C562.267 301.691 564.782 321.41 563.084 344.067C561.434 366.724 556.309 382.022 547.709 389.961C539.11 397.9 529.558 398.828 519.054 392.747H519.102Z" fill="#606060"/>
<path d="M559.895 284.861C573.457 314.5 579.13 347.144 576.365 379.625C573.826 413.428 564.243 436.339 547.615 448.358C530.986 460.377 511.946 460.17 490.495 447.738C468.963 435.306 451.447 414.372 437.944 384.936C424.315 355.289 418.568 322.622 421.26 290.1C423.799 256.297 433.375 233.418 449.987 221.462C466.599 209.507 485.639 209.737 507.107 222.153C528.781 234.569 546.377 255.472 559.895 284.861ZM522.172 403.131C530.74 395.192 535.881 379.895 537.595 357.238C539.308 334.581 536.793 314.861 530.05 298.079C523.323 281.296 514.699 269.865 504.18 263.784C493.66 257.703 484.14 258.631 475.62 266.57C467.02 274.509 461.879 289.807 460.197 312.464C458.515 335.12 461.03 354.84 467.742 371.622C474.469 388.405 483.093 399.837 493.612 405.918C504.132 411.999 513.652 411.07 522.172 403.131Z" fill="#5BC0BE"/>
<path d="M333.2 349.235L312.518 337.327L322.847 199.718L277.627 173.521L252.09 186.691L259.539 191.002L188.877 259.354L185.402 305.676L270.725 354.975L267.822 393.581L281.031 401.202V429.138L306.592 416.158L307.734 401.083L330.178 389.484L333.2 349.235ZM273.7 314.893L224.672 286.552L280.031 231.465L273.7 314.893Z" fill="#5BC0BE"/>
<path opacity="0.61" d="M333.2 349.235L312.518 337.327L322.847 199.718L277.627 173.521L252.09 186.691L259.539 191.002L188.877 259.354L185.402 305.676L270.725 354.975L267.822 393.581L281.031 401.202V429.138L306.592 416.158L307.734 401.083L330.178 389.484L333.2 349.235ZM273.7 314.893L224.672 286.552L280.031 231.465L273.7 314.893Z" fill="#606060"/>
<path d="M286.957 350.474L307.639 362.382L304.64 402.559L283.958 390.651L281.054 429.257L242.308 406.87L245.14 368.217L159.817 318.918L163.292 272.595L252.042 186.858L297.262 213.055L286.957 350.474ZM248.234 328.039L254.494 244.683L199.135 299.722L248.234 328.039Z" fill="#5BC0BE"/>
<path d="M858.799 425.828L838.117 413.92L848.446 276.311L803.226 250.113L777.689 263.284L785.139 267.594L714.476 335.946L711.001 382.268L796.324 431.568L793.421 470.173L806.63 477.794V505.731L832.167 492.56L833.31 477.485L855.753 465.886L858.799 425.828ZM799.299 391.485L750.2 363.12L805.559 308.034L799.299 391.485Z" fill="#5BC0BE"/>
<path opacity="0.61" d="M858.799 425.828L838.117 413.92L848.446 276.311L803.226 250.113L777.689 263.284L785.139 267.594L714.476 335.946L711.001 382.268L796.324 431.568L793.421 470.173L806.63 477.794V505.731L832.167 492.56L833.31 477.485L855.753 465.886L858.799 425.828ZM799.299 391.485L750.2 363.12L805.559 308.034L799.299 391.485Z" fill="#606060"/>
<path d="M812.58 427.066L833.262 438.974L830.239 479.104L809.557 467.196L806.654 505.802L767.907 483.415L770.811 444.738L685.44 395.534L688.915 349.212L777.665 263.474L822.885 289.672L812.58 427.066ZM773.833 404.679L780.093 321.323L724.734 376.409L773.833 404.774" fill="#5BC0BE"/>
<path d="M731.469 386.936L746.606 441.522C746.606 441.522 745.321 456.312 726.043 450.168L712.929 392.581C712.929 392.581 715.88 379.768 731.469 386.936Z" fill="#002A40"/>
<path d="M708.693 361.239L718.213 393.581C718.213 393.581 726.4 397.772 728.946 389.794L721.14 358.238L708.693 361.239Z" fill="#3B125E"/>
<path d="M693.841 353.713C684.184 345.387 676.916 334.638 672.784 322.572C668.651 310.505 667.803 297.555 670.327 285.051C673.373 272.905 680.299 264.403 689.843 261.235C708.883 254.686 731.422 271.405 740.989 299.341C750.557 327.277 743.036 354.118 723.925 360.786C719.01 362.445 713.722 362.652 708.693 361.382C703.248 359.926 698.182 357.31 693.841 353.713V353.713ZM693.413 271.524C687.511 273.548 683.108 279.288 680.989 287.719C678.98 298.161 679.735 308.948 683.179 319.008C686.624 329.068 692.638 338.052 700.624 345.068C707.455 350.426 714.452 352.212 720.355 350.236C733.207 345.83 737.895 324.038 730.589 302.747C724.924 286.075 713.381 273.858 702.505 271.238C699.51 270.458 696.353 270.557 693.413 271.524V271.524Z" fill="#3B125E"/>
<path d="M705.265 276.263C702.409 274.167 695.96 277.597 693.913 279.526C676.967 295.411 685.107 325.11 699.792 340.257C705.289 345.925 718.26 353.689 723.044 350.45C723.044 350.45 701.838 364.74 686.702 348.95C671.565 333.16 667.876 302.461 667.876 302.461L668.804 286.29L674.349 275.453L679.99 269.428L693.913 267.904L705.265 276.263Z" fill="#3B125E"/>
<path d="M688.677 355.213C679.02 346.887 671.751 336.139 667.619 324.072C663.486 312.005 662.639 299.055 665.162 286.552C668.209 274.406 675.135 265.903 684.678 262.736C703.718 256.186 726.257 272.905 735.825 300.841C745.392 328.778 737.871 355.618 718.76 362.287C713.845 363.946 708.557 364.152 703.528 362.882C698.083 361.427 693.017 358.811 688.677 355.213ZM688.248 273.024C682.346 275.049 677.943 280.788 675.825 289.219C673.815 299.662 674.57 310.448 678.015 320.509C681.459 330.569 687.473 339.553 695.46 346.568C702.29 351.927 709.288 353.713 715.19 351.736C728.042 347.33 732.731 325.539 725.424 304.247C719.76 287.576 708.217 275.358 697.34 272.738C694.345 271.958 691.189 272.057 688.248 273.024V273.024Z" fill="#06577A"/>
<path d="M679.823 359C680.147 358.226 680.529 357.478 680.966 356.761C680.956 356.8 680.956 356.841 680.966 356.88C680.983 356.939 681.02 356.991 681.069 357.028C681.118 357.065 681.178 357.085 681.24 357.085C681.301 357.085 681.361 357.065 681.41 357.028C681.46 356.991 681.496 356.939 681.513 356.88L682.346 355.618C682.317 355.784 682.317 355.953 682.346 356.118C682.415 356.423 682.594 356.692 682.849 356.872C683.104 357.053 683.417 357.132 683.727 357.095C683.911 357.084 684.091 357.032 684.253 356.942C684.415 356.852 684.555 356.728 684.662 356.577C684.769 356.426 684.841 356.253 684.873 356.071C684.905 355.888 684.895 355.701 684.845 355.523L685.226 355.094C685.206 355.22 685.206 355.349 685.226 355.475C685.283 355.654 685.384 355.814 685.52 355.943C685.656 356.071 685.823 356.162 686.004 356.207C686.185 356.252 686.375 356.251 686.556 356.202C686.736 356.153 686.901 356.059 687.035 355.928L687.439 355.523C687.555 355.575 687.681 355.602 687.808 355.602C687.935 355.602 688.061 355.575 688.177 355.523C689.249 355.158 690.298 354.728 691.319 354.237C691.244 354.209 691.177 354.162 691.125 354.102C691.073 354.041 691.037 353.968 691.02 353.89C691.003 353.811 691.007 353.73 691.03 353.653C691.053 353.577 691.095 353.507 691.152 353.451C692.355 352.477 693.628 351.594 694.96 350.807H695.127V350.688C695.438 349.673 695.362 348.578 694.913 347.616C695.233 347.226 695.462 346.769 695.581 346.278C695.701 345.787 695.708 345.276 695.603 344.782C695.498 344.772 695.398 344.73 695.317 344.663C695.13 344.498 694.969 344.306 694.841 344.091C694.612 343.798 694.435 343.468 694.318 343.115C694.29 343.024 694.291 342.928 694.321 342.838C694.35 342.748 694.408 342.67 694.484 342.615C693.984 341.948 693.413 341.329 692.89 340.757C694.159 338.599 694.756 336.111 694.603 333.612C694.601 333.377 694.521 333.149 694.377 332.964C694.232 332.778 694.031 332.646 693.804 332.586C693.576 332.526 693.336 332.543 693.119 332.634C692.902 332.725 692.721 332.884 692.604 333.088C692.113 333.855 691.668 334.65 691.271 335.47C691.141 335.553 691.035 335.668 690.962 335.803C688.813 340.145 686.43 344.367 683.822 348.45C683.393 349.14 678.038 356.499 678.657 356.69C678.824 357.071 674.445 367.193 679.823 359ZM682.989 355.88C683.016 355.911 683.049 355.935 683.086 355.952C683.122 355.968 683.163 355.977 683.203 355.977C683.244 355.977 683.284 355.968 683.321 355.952C683.357 355.935 683.39 355.911 683.417 355.88V355.88C683.549 355.978 683.7 356.046 683.86 356.079C684.021 356.112 684.186 356.109 684.345 356.071C684.345 356.257 684.271 356.436 684.14 356.567C684.008 356.699 683.83 356.773 683.643 356.773C683.457 356.773 683.279 356.699 683.147 356.567C683.015 356.436 682.941 356.257 682.941 356.071L682.989 355.88Z" fill="#FFC543"/>
<path d="M680.395 356.618C681.552 355.714 682.529 354.599 683.274 353.332C683.587 352.818 684.082 352.442 684.66 352.278C685.239 352.115 685.857 352.176 686.392 352.451C686.472 351.859 686.512 351.262 686.511 350.664C686.511 350.033 686.762 349.427 687.208 348.98C687.655 348.534 688.26 348.283 688.891 348.283C689.522 348.283 690.128 348.534 690.574 348.98C691.02 349.427 691.271 350.033 691.271 350.664C691.378 353.055 690.738 355.419 689.439 357.428C688.01 359.239 686.269 360.779 684.298 361.977C683.952 362.184 683.559 362.3 683.156 362.314C682.753 362.328 682.353 362.239 681.994 362.056C681.634 361.872 681.328 361.601 681.102 361.266C680.876 360.932 680.739 360.545 680.704 360.143L680.49 359.976C680.034 359.543 679.768 358.946 679.75 358.317C679.732 357.688 679.964 357.077 680.395 356.618V356.618Z" fill="#FFC543"/>
<path d="M687.986 358.405C689.969 357.103 691.395 355.107 691.985 352.808C692.009 352.834 692.039 352.855 692.072 352.869C692.104 352.883 692.14 352.89 692.175 352.89C692.211 352.89 692.246 352.883 692.279 352.869C692.312 352.855 692.341 352.834 692.366 352.808L694.246 351.546C694.645 351.318 695.007 351.028 695.317 350.688C696.007 349.807 695.317 348.807 695.031 347.902C695.043 347.855 695.043 347.806 695.031 347.759L695.293 347.306C695.775 346.607 696.025 345.774 696.007 344.925C695.888 344.115 695.103 343.567 694.746 342.853C694.816 342.445 694.746 342.025 694.547 341.661C694.348 341.298 694.032 341.013 693.651 340.852C692.651 340.4 692.08 341.162 691.556 341.9C690.398 343.488 689.303 345.076 688.272 346.663C688.082 346.997 688.581 347.283 688.796 346.949C689.367 346.044 689.938 345.163 690.533 344.282C691.033 343.303 691.674 342.405 692.437 341.614C694.531 340.4 694.127 343.305 693.794 343.996C693.46 344.687 693.341 344.853 693.103 345.258L691.509 348.069C691.49 348.105 691.48 348.146 691.48 348.188C691.48 348.229 691.49 348.27 691.509 348.307C691.971 350.031 691.867 351.858 691.211 353.518C690.555 355.177 689.383 356.582 687.867 357.523C687.344 358.119 687.653 358.619 687.986 358.405ZM692.27 348.878C692.226 348.845 692.171 348.828 692.116 348.828C692.06 348.828 692.006 348.845 691.961 348.878V348.688C693.007 347.209 693.87 345.61 694.531 343.925L694.984 344.496C695.178 344.789 695.282 345.133 695.282 345.484C695.282 345.836 695.178 346.18 694.984 346.473C694.627 347.283 693.556 349.474 692.247 348.783L692.27 348.878ZM692.08 352.474C692.266 351.475 692.266 350.449 692.08 349.45C693.103 349.95 693.96 349.283 694.46 348.473C694.631 348.849 694.767 349.239 694.865 349.64C694.91 349.899 694.872 350.165 694.757 350.4C694.641 350.635 694.454 350.828 694.222 350.95C693.603 351.379 692.818 351.855 692.056 352.379L692.08 352.474Z" fill="#34323D"/>
<path d="M654.238 367.931C654.238 367.931 668.018 368.598 671.612 365.287C675.206 361.977 680.371 351.593 680.371 351.593C680.371 351.593 689.891 357.69 690.343 361.12C690.795 364.549 680.418 381.625 675.801 382.768" fill="#60CCCA"/>
<path d="M633.342 537.93C633.342 537.93 644.98 532.738 647.788 532.547C650.597 532.357 655.285 533.309 651.192 538.454C651.192 538.454 638.935 546.48 637.316 546.718C635.698 546.956 631.771 545.741 631.676 546.17C631.581 546.599 631.2 549.695 631.2 549.695C631.2 549.695 620.966 553.601 620.514 546.742C620.514 545.837 621.989 533.119 621.989 533.119" fill="#60CCCA"/>
<path d="M619.966 507.898C621.989 494.727 625.702 481.962 627.249 468.625C628.225 460.242 628.915 451.811 629.939 443.428C630.962 435.045 634.104 426.923 636.103 418.635C636.157 418.444 636.147 418.24 636.074 418.055C636.001 417.869 635.869 417.714 635.698 417.611L635.984 416.73C637.007 415.754 638.078 414.801 639.102 413.92L653.382 423.565C653.382 423.565 653.382 432.329 652.858 445C651.192 452.406 649.931 459.027 648.098 466.053C648.304 466.272 648.454 466.539 648.532 466.83C648.611 467.121 648.617 467.426 648.55 467.72C643.893 489.848 640.5 512.224 638.388 534.738C638.358 535.111 638.22 535.467 637.992 535.763C637.764 536.059 637.455 536.282 637.102 536.405L636.698 539.883C624.25 544.646 621.513 536.31 621.513 536.31C621.513 536.31 620.942 529.165 620.252 519.258C619.942 515.519 619.895 511.708 619.966 507.898Z" fill="#34323D"/>
<path d="M725.376 373.504C724.639 373.933 723.829 374.433 722.996 375.076C724.225 373.502 725.308 371.82 726.233 370.051C727.162 368.503 724.853 367.24 723.853 368.384C720.675 371.801 717.255 374.984 713.619 377.91C713.454 378.04 713.316 378.202 713.215 378.386H710.978H709.073H708.55C708.325 378.337 708.091 378.347 707.87 378.413C707.649 378.48 707.449 378.602 707.288 378.767C706.998 378.865 706.719 378.992 706.455 379.148L706.218 379.339L704.028 379.577C703.766 379.609 703.516 379.705 703.301 379.857C703.085 380.009 702.911 380.212 702.793 380.448C702.675 380.684 702.617 380.945 702.625 381.209C702.633 381.473 702.706 381.73 702.838 381.959L702.529 381.792C700.863 380.768 699.554 383.507 701.196 384.507C704.683 386.647 708.696 387.776 712.786 387.77C712.97 387.911 713.188 388.001 713.418 388.03C713.648 388.06 713.882 388.027 714.095 387.936L714.785 387.675C718.262 387.501 721.691 386.785 724.948 385.555C725.816 385.212 726.731 385.003 727.661 384.936V384.936C726.852 381.125 726.09 377.315 725.376 373.504Z" fill="#FFC543"/>
<path d="M658.808 557.102L665.733 559.483C665.936 560.113 666.3 560.68 666.788 561.127C667.276 561.574 667.873 561.885 668.518 562.032C668.764 562.33 669.112 562.525 669.494 562.579C672.305 562.781 675.125 562.324 677.729 561.246C681.037 560.198 693.984 555.244 690.39 564.556C688.01 566.223 685.392 567.652 682.965 569.129C681.608 569.962 680.252 570.772 678.847 571.51C678.12 572.01 677.316 572.388 676.467 572.63C674.611 572.915 670.089 571.51 669.97 571.987C669.851 572.463 669.446 576.035 669.446 576.035C669.446 576.035 657.665 580.537 657.165 572.654C657.046 571.725 658.808 557.102 658.808 557.102Z" fill="#60CCCA"/>
<path d="M649.097 486.249C647.646 462.957 646.86 439.522 641.957 416.635C641.743 410.681 637.888 414.491 638.149 412.134C640.244 393.081 668.138 415.777 668.138 415.777C669.256 416.706 669.399 422.565 669.637 423.899C670.89 431.25 671.969 438.633 672.874 446.048C677.491 483.463 675.777 520.663 673.897 558.197C667.971 564.246 664.091 566.056 654.548 562.151C652.644 537.596 650.835 513.018 649.264 488.44L649.097 486.249Z" fill="#34323D"/>
<path d="M664.02 370.479C663.758 369.265 660.617 368.455 659.688 367.955C657.523 366.788 658.784 364.74 656.666 363.477C653.613 361.659 650.431 360.067 647.146 358.714V358.714C641.862 358.714 632.985 358.428 632.461 365.502C631.947 376.379 632.274 387.279 633.437 398.106C633.77 402.464 634.151 406.799 634.532 411.038C634.675 412.586 634.865 425.161 635.793 425.542C646.289 429.9 659.712 428.352 670.018 424.28C669.411 406.218 667.406 388.231 664.02 370.479V370.479Z" fill="#60CCCA"/>
<path d="M654.5 381.482C654.817 385.106 656.237 388.545 658.57 391.334C660.902 394.124 664.034 396.13 667.542 397.082C667.542 397.796 667.756 402.226 667.828 402.941C659.45 400.916 653.262 390.39 652.382 381.506C652.334 380.125 654.5 380.125 654.5 381.482Z" fill="#34323D"/>
<path d="M649.455 336.756C650.145 336.946 656.023 350.426 653.715 358.643C651.406 366.859 637.483 358.405 633.985 352.165C630.486 345.925 636.269 333.35 649.455 336.756Z" fill="#FFC543"/>
<path d="M649.264 338.637C649.257 339.895 648.884 341.123 648.19 342.171C647.497 343.22 646.514 344.044 645.361 344.544C641.458 345.973 638.221 346.925 638.435 348.759C638.649 350.593 645.575 348.497 645.575 352.641C645.577 355.426 645.2 358.198 644.457 360.881C644.028 362.906 632.342 356.714 628.487 346.115C624.631 335.517 634.294 332.731 634.746 332.659C636.187 330.606 638.359 329.183 640.815 328.682C645.575 327.658 646.884 329.492 646.884 329.492C647.957 328.843 649.213 328.564 650.46 328.698C651.706 328.831 652.875 329.369 653.786 330.23C654.756 331.022 655.505 332.05 655.964 333.215C656.422 334.38 656.574 335.644 656.404 336.885C656.234 338.125 655.749 339.301 654.995 340.301C654.241 341.3 653.243 342.088 652.096 342.591L649.264 338.637Z" fill="#34323D"/>
<path d="M654.5 362.287C654.5 362.287 678.562 376.1 687.249 376.1C695.656 375.599 704.02 374.541 712.286 372.932C718.26 378.005 718.641 386.841 714.952 393.628C704.432 395.343 673.302 399.821 663.52 394.986C651.62 389.127 638.697 381.268 638.697 381.268C638.697 381.268 627.011 369.717 654.5 362.287Z" fill="#60CCCA"/>
<path d="M722.925 375.052C722.925 375.052 726.543 372.075 727.447 372.67C729.293 375.165 730.286 378.188 730.279 381.292C729.97 384.269 728.447 386.793 721.045 386.722" fill="#FFC543"/>
<path d="M399.555 430.972H394.628C391.986 430.972 389.844 433.115 389.844 435.759V522.402C389.844 525.045 391.986 527.189 394.628 527.189H399.555C402.197 527.189 404.338 525.045 404.338 522.402V435.759C404.338 433.115 402.197 430.972 399.555 430.972Z" fill="#BC532A"/>
<path d="M432.922 450.668C429.566 436.14 414.715 372.075 388.393 390.985C374.898 400.511 371.09 415.682 365.687 430.4C361.213 442.594 357.5 455.431 357.31 468.506C356.881 495.132 383.942 498.371 404.648 498.276C416.548 498.276 433.613 491.131 436.397 478.199C438.087 470.387 435.207 461.147 433.541 453.478C433.287 452.541 433.081 451.605 432.922 450.668Z" fill="#479896"/>
<path d="M434.183 453.478C433.977 452.541 433.763 451.597 433.541 450.644C430.59 437.807 418.618 386.341 397.674 387.555C403.886 414.706 413.049 443.404 408.17 471.197C406.61 480.904 402.822 490.116 397.103 498.109C399.888 498.252 402.625 498.3 405.266 498.276C417.166 498.276 434.231 491.131 437.016 478.199C438.705 470.387 435.849 461.147 434.183 453.478Z" fill="#3C807E"/>
<path d="M393.271 181.333H389.202C386.914 181.333 385.06 183.188 385.06 185.477V259.163C385.06 261.452 386.914 263.307 389.202 263.307H393.271C395.558 263.307 397.413 261.452 397.413 259.163V185.477C397.413 183.188 395.558 181.333 393.271 181.333Z" fill="#BC532A"/>
<path d="M421.76 198.099C418.904 185.739 406.266 131.224 383.823 147.252C372.328 155.468 369.091 168.281 364.497 180.832C360.325 191.179 357.912 202.15 357.357 213.294C357 235.966 380.039 238.753 397.698 238.658C407.861 238.658 422.379 232.608 424.759 221.558C426.187 214.889 423.759 207.03 422.379 200.504L421.76 198.099Z" fill="#479896"/>
<path d="M422.831 200.504L422.284 198.123C419.761 187.191 409.574 143.346 391.748 144.37C397.056 167.495 404.862 192.002 400.697 215.628C399.339 223.899 396.08 231.742 391.177 238.539C393.557 238.539 395.937 238.682 398.127 238.682C408.289 238.682 422.807 232.632 425.187 221.582C426.687 214.889 424.259 207.03 422.831 200.504Z" fill="#3C807E"/>
<path style="mix-blend-mode:multiply" opacity="0.63" d="M596.452 577.155C594.917 580.304 594.223 583.796 594.435 587.293C594.648 590.79 595.761 594.173 597.666 597.112C601.756 603.969 608.244 609.061 615.873 611.402L689.653 565.27C688.106 566.247 668.756 553.886 666.448 552.696C660.022 549.361 645.504 538.12 638.268 539.716C626.368 542.336 613.588 556.673 605.282 564.985C601.624 568.471 598.632 572.595 596.452 577.155Z" fill="url(#paint3_linear)"/>
<defs>
<linearGradient id="paint0_linear" x1="707.645" y1="511.684" x2="731.115" y2="456.109" gradientUnits="userSpaceOnUse">
<stop stop-color="white" stop-opacity="0"/>
<stop offset="0.98" stop-color="#FFC543"/>
</linearGradient>
<linearGradient id="paint1_linear" x1="16056.3" y1="20944.9" x2="16657.4" y2="18016.6" gradientUnits="userSpaceOnUse">
<stop stop-color="white" stop-opacity="0"/>
<stop offset="0.98" stop-color="#FFC543"/>
</linearGradient>
<linearGradient id="paint2_linear" x1="42050.7" y1="24007.2" x2="42948.9" y2="19646.4" gradientUnits="userSpaceOnUse">
<stop stop-color="white" stop-opacity="0"/>
<stop offset="0.98" stop-color="#FFC543"/>
</linearGradient>
<linearGradient id="paint3_linear" x1="25624.5" y1="18978.1" x2="26200.7" y2="17168.3" gradientUnits="userSpaceOnUse">
<stop stop-color="white" stop-opacity="0"/>
<stop offset="0.98" stop-color="#FFC543"/>
</linearGradient>
</defs>
</svg>
