<svg width="406" height="306" viewBox="0 0 406 306" fill="none" xmlns="http://www.w3.org/2000/svg">
<path d="M200.412 287.041L365.207 189.601C370.455 186.657 374.951 181.816 369.836 178.649L204.451 83.371C201.975 81.8383 198.199 80.8233 195.682 82.2951L22.6853 182.689C17.4377 185.734 16.4938 194.25 21.7515 197.295L178.64 286.889C181.941 288.809 185.687 289.833 189.506 289.86C193.325 289.887 197.084 288.915 200.412 287.041V287.041Z" fill="#FFD200" fill-opacity="0.6"/>
<path opacity="0.48" d="M125.566 165.87L119.09 156.877L110.635 153.903L97.643 159.638L28.5012 195.711L54.2721 209.535C64.7976 203.486 115.223 172.285 125.566 165.87Z" fill="url(#paint0_linear)"/>
<path opacity="0.48" d="M321.176 179.897L232.78 225.918L144.252 174.68L231.461 123.89" fill="url(#paint1_linear)"/>
<path d="M227.989 127.493L321.176 180.151V72.6932L228.263 19.0403L227.989 127.493Z" fill="#479896"/>
<path d="M218.672 132.984L311.859 185.632V78.1844L218.935 24.5315L218.672 132.984Z" fill="#3A506B"/>
<path d="M208.44 137.288L301.628 189.936V82.488L208.714 28.8351L208.44 137.288Z" fill="#5BC0BE"/>
<path opacity="0.48" d="M144.668 217.625C132.671 224.618 120.308 230.82 108.29 237.783L149.357 260.032L180.223 240.493L144.668 217.625Z" fill="url(#paint2_linear)"/>
<path d="M258.448 121.944C268.117 120.224 273.942 107.514 271.459 93.5567C268.975 79.5992 259.123 69.6792 249.454 71.3998C239.785 73.1204 233.96 85.8301 236.443 99.7876C238.927 113.745 248.779 123.665 258.448 121.944Z" fill="white"/>
<path d="M262.956 87.9283L249.254 101.996L245.194 97.6723C244.097 98.87 243.813 99.1644 242.646 100.291L249.528 108.299L265.27 90.6282L262.956 87.9283Z" fill="#479896"/>
<path d="M235.886 137.136C236.151 137.938 236.281 138.778 236.272 139.622C236.272 141.388 235.673 142.343 234.841 142.444C234.344 142.468 233.854 142.333 233.44 142.058C232.27 141.336 231.412 140.203 231.034 138.881C230.773 138.079 230.646 137.239 230.659 136.395C230.659 134.629 231.258 133.674 232.09 133.583C232.581 133.553 233.068 133.681 233.48 133.948C234.657 134.668 235.516 135.807 235.886 137.136V137.136ZM234.658 140.719C234.857 140.478 235.004 140.198 235.089 139.898C235.175 139.597 235.197 139.282 235.155 138.973C235.179 138.184 235.015 137.402 234.678 136.689C234.426 136.125 234.008 135.65 233.48 135.329C233.306 135.199 233.094 135.13 232.877 135.13C232.659 135.13 232.447 135.199 232.273 135.329C232.083 135.572 231.943 135.851 231.861 136.149C231.779 136.447 231.757 136.758 231.796 137.065C231.767 137.854 231.924 138.64 232.252 139.358C232.507 139.924 232.924 140.401 233.45 140.729C233.625 140.858 233.836 140.928 234.054 140.928C234.271 140.928 234.483 140.858 234.658 140.729" fill="white"/>
<path d="M240.778 126.316C241.043 127.118 241.174 127.958 241.164 128.802C241.164 130.569 240.565 131.523 239.733 131.624C239.237 131.649 238.746 131.513 238.332 131.238C237.162 130.517 236.304 129.383 235.927 128.061C235.662 127.259 235.532 126.419 235.541 125.575C235.541 123.809 236.15 122.855 236.972 122.773C237.463 122.741 237.951 122.87 238.363 123.139C239.54 123.855 240.403 124.99 240.778 126.316V126.316ZM239.54 129.899C239.739 129.658 239.886 129.378 239.971 129.078C240.057 128.777 240.079 128.462 240.037 128.153C240.061 127.365 239.897 126.582 239.56 125.869C239.308 125.305 238.891 124.83 238.363 124.509C238.188 124.38 237.976 124.31 237.759 124.31C237.541 124.31 237.33 124.38 237.155 124.509C236.961 124.751 236.818 125.029 236.734 125.327C236.651 125.625 236.628 125.937 236.668 126.245C236.642 127.035 236.802 127.821 237.134 128.539C237.389 129.104 237.806 129.581 238.332 129.909C238.507 130.038 238.719 130.108 238.936 130.108C239.154 130.108 239.365 130.038 239.54 129.909" fill="white"/>
<path d="M245.021 131.441L246.655 135.938L245.427 135.227L243.844 130.893L243.265 130.558V133.979L242.159 133.34V125.412L244.321 126.661C244.885 127.001 245.348 127.484 245.664 128.062C245.98 128.64 246.136 129.291 246.117 129.949C246.137 131.015 245.731 131.563 245.021 131.441ZM244.331 129.807C244.798 130.081 245.031 129.919 245.031 129.31C245.051 129.052 244.996 128.793 244.874 128.565C244.752 128.336 244.567 128.148 244.341 128.021L243.275 127.402V129.188L244.341 129.807" fill="white"/>
<path d="M249.335 129.533C250.233 130.143 250.959 130.974 251.441 131.947C251.923 132.92 252.145 134.001 252.085 135.085C252.085 137.856 250.695 138.262 249.294 137.46L247.437 136.395V128.467L249.335 129.533ZM250.35 136.161C250.756 136.029 251.01 135.451 251.01 134.436C251.043 133.568 250.821 132.711 250.37 131.969C250.019 131.429 249.542 130.984 248.98 130.67L248.563 130.437V135.643L248.98 135.877C249.172 136.016 249.393 136.111 249.626 136.157C249.859 136.202 250.099 136.197 250.329 136.141" fill="white"/>
<path d="M256.785 133.806L256.775 135.166L254.197 133.695V135.349L256.257 136.537L256.247 137.897L254.186 136.709L254.176 138.902L256.836 140.424L256.825 141.784L253.06 139.622L253.1 131.695L256.785 133.806Z" fill="white"/>
<path d="M260.723 140.465L262.357 144.961L261.119 144.251L259.546 139.917L258.967 139.582V143.002L257.861 142.363V134.436L260.023 135.684C260.586 136.025 261.049 136.508 261.365 137.086C261.68 137.664 261.837 138.315 261.819 138.973C261.87 140.038 261.444 140.597 260.723 140.465ZM260.043 138.841C260.51 139.105 260.743 138.952 260.743 138.343C260.762 138.085 260.707 137.827 260.585 137.599C260.462 137.371 260.278 137.182 260.053 137.054L258.987 136.435V138.222L260.053 138.841" fill="white"/>
<path d="M227.431 130.477C228.1 130.889 228.667 131.446 229.092 132.107C229.517 132.767 229.789 133.514 229.887 134.293L228.872 134.05C228.798 133.598 228.629 133.166 228.377 132.784C228.125 132.401 227.796 132.075 227.411 131.827C227.235 131.695 227.021 131.624 226.802 131.624C226.582 131.624 226.368 131.695 226.193 131.827C225.813 132.321 225.642 132.944 225.716 133.563C225.693 134.345 225.849 135.123 226.172 135.836C226.429 136.412 226.854 136.897 227.39 137.227C228.111 137.643 228.598 137.46 228.862 136.689L229.877 137.602C229.593 138.962 228.69 139.328 227.401 138.617C226.525 138.086 225.82 137.315 225.371 136.395C224.821 135.329 224.545 134.143 224.569 132.944C224.509 132.491 224.552 132.03 224.694 131.596C224.836 131.162 225.075 130.766 225.391 130.436C225.691 130.225 226.051 130.116 226.418 130.123C226.784 130.13 227.139 130.254 227.431 130.477V130.477Z" fill="white"/>
<path d="M242.758 139.369L242.717 147.296L241.621 146.666L241.641 141.774L240.484 145.276L239.682 144.819L238.566 140.008L238.535 144.9L237.439 144.261L237.469 136.334L238.718 137.054L240.088 142.799L241.519 138.668L242.758 139.369Z" fill="white"/>
<path d="M246.229 141.368C246.823 141.734 247.307 142.254 247.63 142.872C247.953 143.49 248.104 144.184 248.066 144.88C248.066 146.331 247.406 146.91 246.198 146.23L245.062 145.57V148.666L243.955 148.027V140.099L246.229 141.368ZM246.168 144.809C246.686 145.103 246.95 144.91 246.96 144.2C246.985 143.901 246.925 143.602 246.787 143.336C246.648 143.07 246.437 142.849 246.178 142.698L245.082 142.068V144.18L246.178 144.809" fill="white"/>
<path d="M250.197 143.652L250.167 150.219L252.694 151.67L252.684 153.03L249.061 150.94L249.091 143.012L250.197 143.652Z" fill="white"/>
<path d="M257.394 147.793V149.153L254.816 147.671L254.806 149.326L256.876 150.513L256.866 151.873L254.806 150.686L254.795 152.878L257.455 154.401L257.445 155.761L253.679 153.599L253.72 145.672L257.394 147.793Z" fill="white"/>
<path d="M262.712 150.838L262.702 152.198L261.058 151.254L261.028 157.821L259.921 157.182L259.952 150.625L258.307 149.671V148.311L262.712 150.838Z" fill="white"/>
<path d="M267.341 153.507L267.331 154.868L264.763 153.386L264.753 155.05L266.823 156.238L266.813 157.588L264.753 156.4L264.732 158.593L267.402 160.125L267.392 161.475L263.626 159.313L263.667 151.386L267.341 153.507Z" fill="white"/>
<path d="M270.305 155.203C271.203 155.812 271.929 156.644 272.411 157.617C272.893 158.59 273.115 159.671 273.055 160.755C273.055 163.526 271.665 163.932 270.264 163.13L268.407 162.064V154.137L270.305 155.203ZM271.32 161.831C271.726 161.699 271.979 161.12 271.979 160.105C272.013 159.238 271.791 158.38 271.34 157.639C271.001 157.112 270.542 156.674 270 156.36L269.594 156.126V161.333L270 161.567C270.193 161.705 270.413 161.801 270.646 161.847C270.879 161.892 271.119 161.887 271.35 161.831" fill="white"/>
<path d="M121.303 168.651V147.793L139.979 137.359V158.075L121.303 168.651Z" fill="#479896"/>
<path d="M121.303 147.793L103.134 137.359C103.134 137.359 102.627 158.39 103.134 158.674C103.642 158.958 121.303 168.601 121.303 168.601V147.793Z" fill="#479896"/>
<path d="M103.134 137.359L121.303 126.255L139.979 137.359L121.303 147.793L103.134 137.359Z" fill="#479896"/>
<path d="M110.056 133.136L128.966 143.51V154.391L134.406 151.65V140.465L115.497 129.807L110.056 133.136Z" fill="#FFD200"/>
<path d="M72.9683 96.7081C60.1996 97.5911 60.8695 118.236 60.0068 126.803C59.7936 128.955 63.1025 129.675 63.3258 127.503C64.0465 120.398 63.5695 110.695 67.5381 104.422C68.7663 102.483 70.2177 100.575 72.7349 100.362C73.5037 100.334 74.27 100.464 74.986 100.745C75.7021 101.026 76.3524 101.452 76.8964 101.996C78.0129 103.011 78.6117 107 78.7944 108.188C79.4571 112.611 79.5322 117.102 79.0177 121.545C78.7944 123.697 82.0628 124.418 82.3368 122.245C83.0473 115.546 84.3363 95.9164 72.9683 96.7081Z" fill="#FFD200"/>
<path d="M92.0605 110.563L95.8972 116.957L103.581 118.561L97.8156 138.394L81.5045 127.838" fill="#479896"/>
<path d="M52.709 132.314L92.0605 110.563L90.7816 142.87L60.7072 145.753L52.709 132.314Z" fill="#479896"/>
<path d="M66.787 137.115L72.8669 198.218L109.65 176.152L103.581 118.561L66.787 137.115Z" fill="#5BC0BE"/>
<path d="M66.787 137.115L62.6255 132.314H52.709L48.5475 185.744L59.2253 190.667L72.8669 198.218L66.787 137.115Z" fill="#5BC0BE"/>
<path opacity="0.14" d="M66.787 137.115L62.6255 132.314H52.709L48.5475 185.744L59.2253 190.667L72.8669 198.218L66.787 137.115Z" fill="#3A506B"/>
<path d="M89.4012 106.919C76.602 107.041 76.0336 127.686 74.6634 136.181C74.3183 138.313 77.5866 139.226 77.9317 137.085C79.0786 129.98 79.1801 120.327 83.5142 114.288C85.2904 111.811 88.4065 109.731 91.4718 111.355C94.2123 112.806 94.2529 116.054 94.5168 118.764C94.9129 123.219 94.7184 127.707 93.9382 132.111C93.583 134.243 96.8513 135.156 97.2065 133.015C98.3332 126.326 100.8 106.817 89.4012 106.919Z" fill="#FFD200"/>
<path opacity="0.48" d="M243.844 251.912L237.368 242.919L228.893 239.945L215.921 245.67L195.712 258.337L211.952 269.593C222.508 263.544 233.45 258.276 243.844 251.912Z" fill="url(#paint3_linear)"/>
<path d="M211.577 178.7C213.653 178.58 215.727 178.985 217.606 179.877C219.53 180.968 221.029 182.678 221.859 184.729C222.782 186.678 223.199 189.459 225.127 190.717C225.879 191.118 226.532 191.684 227.035 192.372C227.504 193.036 227.803 193.806 227.906 194.613C228.009 195.42 227.912 196.239 227.624 197C226.771 198.716 223.198 199.761 221.534 199.446" fill="#FFD200"/>
<path d="M209.993 178.913C207.577 179.128 205.288 180.093 203.446 181.672C201.604 183.252 200.302 185.367 199.722 187.723C199.119 190.102 199.095 192.59 199.65 194.98C200.117 196.909 201.254 200.248 203.609 200.39C206.786 200.583 207.821 197.609 208.826 195.173C209.831 192.737 210.856 190.048 213.424 189.083C214.675 188.612 216.037 188.517 217.341 188.811C218.645 189.105 219.835 189.775 220.763 190.738L209.993 178.913Z" fill="#479896"/>
<path d="M224.518 191.824C222.6 189.337 221.006 186.627 219.149 184.1C218.104 182.445 216.852 180.931 215.424 179.593C211.008 177.451 205.446 179.41 202.229 183.176C202.675 183.308 203.305 183.338 203.639 183.46C205.604 184.212 207.349 185.444 208.714 187.043C210.673 189.205 212.196 191.854 213.921 194.148C216.733 197.883 220.458 200.949 225.269 198.716C228.294 197.295 225.878 193.6 224.518 191.824Z" fill="#FFD200"/>
<path d="M240.119 159.861C240.119 159.861 250.076 159.08 249.883 174.822C249.69 190.565 234.82 180.212 238.089 170.762" fill="#479896"/>
<path d="M238.677 175.33C238.566 170.539 243.955 167.037 248.492 166.428C247.772 163.678 244.98 159.252 239.489 159.394C232.679 159.567 227.563 166.499 226.416 174.619C225.269 182.739 231.42 188.007 231.42 188.007L234.709 190.809C240.778 188.444 238.525 179.725 238.677 175.33Z" fill="#FFD200"/>
<path d="M265.788 186.627C265.644 183.642 264.858 180.724 263.484 178.07C262.852 176.801 261.941 175.691 260.819 174.823C259.698 173.955 258.395 173.351 257.008 173.056L251.405 183.846C251.405 183.846 259.759 169.24 256.348 180.486C252.938 191.732 264.184 204.349 265.727 187.591C265.757 187.246 265.768 186.942 265.788 186.627Z" fill="#479896"/>
<path d="M226.183 214.722C226.183 214.722 218.692 219.594 220.773 230.962C221.509 234.914 222.623 238.785 224.102 242.523C225.553 246.228 226.619 251.019 230.354 253.109C233.836 255.058 239.225 255.413 242.737 253.272C245.955 251.313 247.092 246.857 248.279 243.538C249.683 239.461 250.646 235.245 251.152 230.962C254.684 203.446 226.183 214.722 226.183 214.722Z" fill="#5BC0BE"/>
<path d="M236.272 220.335C242.303 220.335 247.193 218.567 247.193 216.387C247.193 214.206 242.303 212.438 236.272 212.438C230.24 212.438 225.35 214.206 225.35 216.387C225.35 218.567 230.24 220.335 236.272 220.335Z" fill="#3A506B"/>
<path d="M237.155 195.336C235.632 191.651 232.78 188.555 231.877 184.607C231.313 181.926 231.546 179.139 232.547 176.588C233.548 174.038 235.273 171.837 237.51 170.255C238.342 169.646 237.51 168.225 236.698 168.864C229.715 173.939 228.365 182.597 232.435 189.976C233.694 192.26 235.348 194.453 236.119 196.98C237.134 200.269 235.998 202.644 234.455 205.1C234.54 202.662 233.669 200.288 232.029 198.482C230.212 196.797 227.533 196.513 225.289 195.762C220.935 194.29 217.109 191.803 216.368 186.952C216.215 185.937 214.652 186.363 214.804 187.378C215.413 191.347 218.022 194.179 221.524 195.985C223.628 196.894 225.795 197.647 228.01 198.239C228.969 198.607 229.843 199.169 230.578 199.888C231.313 200.607 231.893 201.469 232.283 202.42C233.298 204.795 232.618 206.43 232.029 208.734C231.278 211.728 230.08 214.296 232.141 217.128C232.75 217.96 234.171 217.128 233.531 216.316C230.253 211.799 235.49 207.505 237.256 203.618C237.833 202.311 238.122 200.895 238.105 199.466C238.087 198.037 237.763 196.629 237.155 195.336V195.336Z" fill="#479896"/>
<path d="M257.313 185.48C250.411 184.262 245.711 189.611 246.148 196.3C246.29 197.978 246.6 199.637 247.071 201.253C247.386 202.42 248.188 204.389 247.985 205.547C247.751 206.579 247.269 207.539 246.581 208.343C245.893 209.148 245.02 209.773 244.036 210.165C240.991 211.586 239.114 213.281 238.21 216.569C238.17 216.771 238.208 216.981 238.316 217.156C238.424 217.331 238.594 217.458 238.793 217.512C238.991 217.566 239.203 217.543 239.385 217.447C239.567 217.351 239.706 217.19 239.773 216.996C241.367 211.149 249.538 211.992 249.599 205.547C249.599 202.4 247.954 199.457 247.761 196.3C247.427 190.799 251.02 186.008 256.896 187.043C257.901 187.175 258.338 185.612 257.313 185.48Z" fill="#479896"/>
<path d="M263.484 178.071C260.804 173.138 255.942 171.981 251.182 173.452C250.522 173.72 249.881 174.032 249.264 174.386C237.266 183.267 245.782 203.324 247.63 203.171C253.72 202.664 253.111 199.111 255.151 189.022C255.501 186.754 256.662 184.69 258.418 183.211C260.175 181.733 262.407 180.942 264.702 180.984C264.383 179.978 263.975 179.003 263.484 178.071V178.071Z" fill="#FFD200"/>
<path d="M260.855 174.802C258.855 174.489 256.808 174.789 254.983 175.665C253.157 176.54 251.641 177.949 250.634 179.705C246.249 187.033 247.264 195.579 247.843 203.669C247.914 204.684 249.538 204.684 249.457 203.669C249.03 197.822 248.208 192.037 249.802 186.292C250.583 183.48 251.517 180.344 253.77 178.324C254.983 177.25 256.485 176.556 258.089 176.327C259.693 176.098 261.328 176.344 262.794 177.035L262.185 176.203C261.738 175.736 261.291 175.269 260.855 174.802Z" fill="#479896"/>
<path d="M169.952 225.796C169.952 225.999 174.235 235.773 175.199 236.382C176.163 236.991 179.127 235.083 180.142 236.159C181.157 237.235 182.456 239.539 180.213 240.493C177.97 241.447 171.291 242.361 170.063 241.833C168.894 241.197 167.789 240.449 166.764 239.6C166.764 239.6 166.135 234.362 165.435 235.083C164.735 235.804 164.988 241.447 164.491 241.61C163.826 241.634 163.162 241.538 162.532 241.325L163.171 224.811" fill="#3A506B"/>
<path d="M151.408 217.016C151.408 217.219 156.046 226.831 157.031 227.41C158.015 227.988 160.908 225.968 161.964 227.014C163.019 228.059 164.4 230.302 162.187 231.348C159.974 232.393 153.336 233.53 152.108 233.043C150.916 232.45 149.784 231.743 148.728 230.932C148.728 230.932 147.916 225.725 147.246 226.466C146.576 227.207 147.023 232.85 146.536 233.023C145.875 233.07 145.211 232.998 144.577 232.809V216.285" fill="#3A506B"/>
<path d="M167.729 136.029C167.729 136.029 181.38 205.963 180.254 222.213C180.254 222.213 177.544 233.043 154.087 229.429C154.087 229.429 152.057 221.309 152.96 207.546C153.864 193.783 156.31 136.029 156.31 136.029H167.729Z" fill="#3A506B"/>
<path d="M165.252 218.681L161.72 135.227L147.601 133.918C147.601 133.918 141.45 155.426 142.8 165.799C144.15 176.172 141.217 189.936 140.547 197.163C139.938 203.638 139.694 214.844 141.938 219.838C149.509 222.02 157.701 221.279 165.252 218.681Z" fill="#124577"/>
<path d="M153.092 225.461C152.001 220.229 151.212 214.939 150.727 209.617C150.53 207.016 150.513 204.404 150.677 201.801C150.918 199.12 151.3 196.454 151.824 193.813C152.634 189.075 152.853 184.254 152.473 179.461C152.108 174.538 151.357 169.656 150.89 164.754C150.196 159.228 150.377 153.628 151.428 148.158C151.58 147.448 150.494 147.143 150.342 147.854C148.16 157.659 150.261 167.596 151.184 177.411C151.748 182.477 151.652 187.594 150.9 192.636C150.494 195.102 149.987 197.559 149.723 200.045C149.455 202.713 149.394 205.397 149.54 208.074C149.966 214.011 150.801 219.912 152.037 225.735C152.138 226.476 153.265 226.182 153.092 225.461Z" fill="white"/>
<path d="M153.965 100.017C155.376 99.4486 176.884 73.8807 177.929 74.3578C178.975 74.8348 184.791 83.0563 181.827 87.5528C178.863 92.0492 159.061 112.583 159.061 112.583" fill="#479896"/>
<path d="M183.004 119.434L178.214 117.394L182.375 92.0289L196.078 98.4336L194.474 110.37L192.464 122.611L183.004 119.434L184.497 117.516Z" fill="#124577"/>
<path d="M158.482 99.5907C159.812 100.078 165.587 100.078 167.475 105.468C168.791 109.467 169.899 113.533 170.794 117.648L184.679 109.771C184.679 109.771 185.512 121.951 183.847 125.098C182.182 128.244 174.113 135.045 167.475 131.106C167.475 131.106 168.094 135.867 167.475 137.318C166.856 138.77 151.59 140.526 148.068 135.968C144.546 131.411 146.962 109.761 146.962 109.761" fill="#479896"/>
<path d="M184.446 115.942C184.223 114.197 184.162 112.43 183.989 110.675C184.467 110.304 184.906 109.886 185.298 109.426C185.775 108.919 186.232 108.411 186.679 107.853C186.963 107.274 187.257 106.696 187.572 106.117L187.917 105.397C188.354 104.493 188.749 103.062 189.785 102.656C189.972 102.577 190.175 102.541 190.378 102.551C190.582 102.561 190.78 102.617 190.959 102.714C191.138 102.812 191.292 102.949 191.41 103.114C191.528 103.28 191.608 103.47 191.642 103.671C191.815 105.244 189.135 108.614 192.302 108.523C192.898 108.492 193.495 108.509 194.088 108.573C195.296 108.736 196.413 109.325 195.966 110.715C195.901 110.91 195.809 111.095 195.692 111.263C195.906 111.331 196.104 111.442 196.273 111.59C196.442 111.737 196.578 111.919 196.673 112.122C196.769 112.325 196.821 112.546 196.827 112.77C196.833 112.994 196.792 113.217 196.707 113.425C196.617 113.655 196.48 113.864 196.305 114.038C196.131 114.213 195.922 114.35 195.692 114.44C195.865 114.648 195.96 114.91 195.96 115.181C195.96 115.452 195.865 115.714 195.692 115.922C195.422 116.287 195.023 116.534 194.576 116.612C194.611 116.851 194.587 117.095 194.504 117.323C194.109 118.399 192.688 118.774 191.693 118.957C189.452 119.249 187.187 119.311 184.933 119.14C184.73 118.104 184.578 117.028 184.446 115.942Z" fill="#F9847F"/>
<path d="M190.12 71.6173C191.5 72.8861 191.338 74.7435 190.85 76.5807C190.713 76.5865 190.582 76.6363 190.475 76.7228C189.411 77.4717 188.299 78.1498 187.146 78.7528C186.247 79.245 185.314 79.6724 184.354 80.0317C183.367 80.3787 182.459 80.9206 181.685 81.6252C181.155 79.9485 180.517 78.3076 179.777 76.7126C183.055 73.6676 185.867 71.5057 188.577 67.9735C188.871 67.5878 189.531 66.3596 189.927 66.4104C190.047 66.3934 190.17 66.4012 190.287 66.4333C190.405 66.4655 190.514 66.5213 190.61 66.5973C190.705 66.6734 190.783 66.768 190.84 66.8755C190.897 66.983 190.932 67.101 190.942 67.2224C191.175 68.7956 189.927 70.0847 188.912 71.2012C188.932 71.2418 190.17 71.5666 190.12 71.6173Z" fill="#F9847F"/>
<path d="M189.602 72.9875C189.267 72.7033 189.744 72.2262 190.079 72.5104C190.356 72.7443 190.605 73.0101 190.82 73.3022C191.156 73.6881 191.405 74.1415 191.551 74.6318C191.574 74.7492 191.591 74.8678 191.602 74.987V74.987C191.613 75.0372 191.613 75.0891 191.602 75.1393C191.616 75.2605 191.605 75.3834 191.57 75.5003C191.536 75.6173 191.477 75.7259 191.399 75.8193C191.064 76.134 190.627 75.8193 190.384 75.5351C190.064 75.1474 189.835 74.6931 189.714 74.2055C189.612 73.8401 189.419 73.3833 189.714 73.0687L189.602 72.9875Z" fill="#F9847F"/>
<path d="M182.588 81.1685C183.412 80.3263 184.475 79.7591 185.633 79.5445C186.455 79.4627 187.246 79.1842 187.937 78.7325C188.334 78.427 188.659 78.0392 188.892 77.5957C188.899 77.6559 188.927 77.7115 188.972 77.7524C189.017 77.7934 189.075 77.817 189.135 77.819C189.518 77.9074 189.92 77.8531 190.266 77.6663C190.611 77.4794 190.877 77.1728 191.013 76.804C191.034 76.6559 191.034 76.5055 191.013 76.3574C191.299 76.3169 191.565 76.1872 191.772 75.9867C191.98 75.7862 192.119 75.5252 192.17 75.2409C192.19 74.7604 192.07 74.2844 191.825 73.8706C191.553 73.2627 191.23 72.6787 190.861 72.1248V72.1248C190.875 71.9315 190.835 71.7379 190.743 71.567C190.651 71.3961 190.512 71.2551 190.343 71.1606C189.196 70.3283 187.542 72.0436 186.76 72.7237C186.425 73.0079 186.912 73.4849 187.237 73.2007C187.562 72.9165 188.029 72.541 188.445 72.2466L188.496 72.1857C188.695 71.9622 188.941 71.7854 189.216 71.6681C189.322 71.6317 189.435 71.6205 189.546 71.6354C189.657 71.6503 189.763 71.6909 189.856 71.7539C189.949 71.817 190.025 71.9008 190.08 71.9987C190.134 72.0965 190.165 72.2058 190.17 72.3177C190.16 72.4502 190.122 72.5792 190.06 72.6963C189.997 72.8134 189.91 72.9161 189.805 72.9977C189.724 73.0992 189.612 73.2109 189.48 73.3834C189.318 73.5686 189.166 73.7616 189.023 73.962C188.425 74.9059 188.76 75.8702 188.425 76.875C187.866 78.5599 186.324 78.6107 184.882 78.9964C183.819 79.2952 182.855 79.8735 182.091 80.6711C182.025 80.7371 181.988 80.8265 181.988 80.9198C181.988 81.0131 182.025 81.1025 182.091 81.1685C182.157 81.2344 182.246 81.2715 182.34 81.2715C182.433 81.2715 182.522 81.2344 182.588 81.1685V81.1685ZM190.018 73.83C190.231 73.5647 190.427 73.2867 190.607 72.9977C190.79 73.3022 190.962 73.6169 191.125 73.9417C191.316 74.2279 191.451 74.5484 191.52 74.8856C191.52 75.0074 191.317 75.9006 191.003 75.7484H190.922C190.686 75.0802 190.383 74.4375 190.018 73.83ZM189.003 77.2607C189.308 76.398 189.003 75.454 189.429 74.6217L189.531 74.4289C189.755 74.8545 189.948 75.2954 190.11 75.7484C190.373 76.4995 190.241 77.3318 189.257 77.1998C189.181 77.1855 189.103 77.1962 189.034 77.2303L189.003 77.2607Z" fill="#3A506B"/>
<path d="M166.561 82.4372C167.424 82.9853 167.394 96.6979 163.516 98.393C158.441 100.606 154.331 94.5766 153.854 91.3387C153.377 88.1009 156.503 76.0731 166.561 82.4372Z" fill="#F9847F"/>
<path d="M139.694 104.534C140.427 104.061 141.047 103.434 141.511 102.697C141.783 101.786 141.893 100.834 141.836 99.885C141.968 97.5708 142.567 95.1145 144.709 93.795C146.069 92.983 148.007 93.6935 149.144 92.4552C150.433 91.0444 150.007 88.9738 150.159 87.2483C151.073 78.2859 164.278 76.6619 168.531 83.9597C169.235 85.1166 169.466 86.5002 169.177 87.8232C168.888 89.1462 168.1 90.3071 166.978 91.0647C166.346 91.4893 165.629 91.77 164.877 91.8868C163.78 92.0594 162.715 92.0289 162.238 93.2165C161.537 94.9826 162.826 96.8096 163.466 98.393C164.481 100.839 164.775 104.361 162.38 106.137C161.183 106.824 159.879 107.305 158.523 107.558C157.948 107.687 157.422 107.98 157.01 108.401C156.371 109.203 156.777 110.309 156.909 111.212C156.988 111.69 156.988 112.177 156.909 112.654C156.987 113.106 156.962 113.57 156.835 114.011C156.709 114.452 156.484 114.859 156.178 115.201C154.747 116.947 152.118 116.998 150.027 116.896C147.605 116.769 145.228 116.184 143.024 115.171C141.085 114.288 138.679 112.928 137.685 110.959C136.507 108.584 137.847 106.107 139.694 104.534Z" fill="#3A506B"/>
<path opacity="0.7" d="M162.177 116.653C162.207 119.447 162.638 122.223 163.456 124.895C164.126 127.345 165.715 129.442 167.891 130.751C168.328 131.015 167.891 131.695 167.495 131.431C165.316 130.143 163.681 128.104 162.897 125.697C161.915 122.778 161.405 119.722 161.385 116.643C161.386 116.591 161.397 116.539 161.417 116.492C161.438 116.444 161.467 116.401 161.505 116.364C161.542 116.328 161.586 116.299 161.634 116.28C161.682 116.261 161.734 116.251 161.786 116.252C161.838 116.253 161.889 116.264 161.937 116.284C161.985 116.305 162.028 116.334 162.064 116.372C162.101 116.409 162.129 116.453 162.149 116.501C162.168 116.549 162.177 116.601 162.177 116.653V116.653Z" fill="#124577"/>
<defs>
<linearGradient id="paint0_linear" x1="40.5899" y1="211.302" x2="104.555" y2="157.74" gradientUnits="userSpaceOnUse">
<stop offset="0.01" stop-color="#2E3192" stop-opacity="0"/>
<stop offset="1" stop-color="#666666"/>
</linearGradient>
<linearGradient id="paint1_linear" x1="38850.1" y1="19472.4" x2="41418.7" y2="12813.5" gradientUnits="userSpaceOnUse">
<stop offset="0.01" stop-color="#2E3192" stop-opacity="0"/>
<stop offset="1" stop-color="#666666"/>
</linearGradient>
<linearGradient id="paint2_linear" x1="9666.75" y1="10539.8" x2="10847" y2="8690.38" gradientUnits="userSpaceOnUse">
<stop offset="0.01" stop-color="#2E3192" stop-opacity="0"/>
<stop offset="1" stop-color="#666666"/>
</linearGradient>
<linearGradient id="paint3_linear" x1="10116.5" y1="7942.24" x2="10876.7" y2="6854.33" gradientUnits="userSpaceOnUse">
<stop offset="0.01" stop-color="#2E3192" stop-opacity="0"/>
<stop offset="1" stop-color="#666666"/>
</linearGradient>
</defs>
</svg>
