<svg width="406" height="306" viewBox="0 0 406 306" fill="none" xmlns="http://www.w3.org/2000/svg">
<path d="M197.194 293.912L14.7784 186.099C8.97262 182.841 3.98897 177.482 9.65267 173.98L192.728 68.42C195.479 66.7148 199.651 65.5983 202.442 67.2223L393.932 178.375C399.737 181.745 400.783 191.164 394.947 194.544L221.27 293.74C217.619 295.862 213.478 296.994 209.255 297.024C205.032 297.054 200.875 295.982 197.194 293.912V293.912Z" fill="#3C807E"/>
<path style="mix-blend-mode:multiply" opacity="0.91" d="M376.078 206.166L353.748 192.382L313.635 203.547L345.1 221.979C354.862 215.67 365.242 210.371 376.078 206.166V206.166Z" fill="url(#paint0_linear)"/>
<path style="mix-blend-mode:multiply" opacity="0.91" d="M179.929 267.106L224.152 293.029L279.074 259.615L256.095 244.665" fill="url(#paint1_linear)"/>
<path style="mix-blend-mode:multiply" opacity="0.91" d="M142.993 166.804L266.214 241.904L305.302 214.956L189.287 153.914" fill="url(#paint2_linear)"/>
<path style="mix-blend-mode:multiply" opacity="0.91" d="M67.0408 183.775L145.612 229.846L175.727 209.363L113.345 170.884" fill="url(#paint3_linear)"/>
<path d="M329.469 207.313C342.715 207.313 353.454 201.023 353.454 193.265C353.454 185.507 342.715 179.218 329.469 179.218C316.223 179.218 305.485 185.507 305.485 193.265C305.485 201.023 316.223 207.313 329.469 207.313Z" fill="#FFD200"/>
<path d="M305.495 193.265V189.205L308.103 192.453L305.495 193.265Z" fill="#FFD200"/>
<path d="M353.453 189.205V193.265H350.408L352.641 190.007L353.453 189.205Z" fill="#FFD200"/>
<path d="M329.469 203.253C342.715 203.253 353.454 196.963 353.454 189.205C353.454 181.447 342.715 175.157 329.469 175.157C316.223 175.157 305.485 181.447 305.485 189.205C305.485 196.963 316.223 203.253 329.469 203.253Z" fill="#FFC543"/>
<path d="M341.639 187.327C341.797 187.641 341.864 187.993 341.832 188.342L341.74 188.718H337.366C337.405 188.596 337.432 188.47 337.447 188.342C337.431 188.057 337.34 187.78 337.183 187.541C336.956 187.106 336.602 186.752 336.168 186.526C335.539 186.198 334.846 186.015 334.138 185.988C333.47 185.94 332.801 186.044 332.179 186.292C331.563 186.556 331.326 186.894 331.469 187.307C331.675 187.827 331.994 188.295 332.402 188.677C332.876 189.158 333.32 189.666 333.732 190.2C333.926 190.43 334.051 190.71 334.092 191.009C334.134 191.307 334.09 191.611 333.965 191.885C333.483 192.68 332.724 193.269 331.834 193.539C330.366 194.169 328.792 194.513 327.195 194.554C325.475 194.61 323.757 194.366 322.12 193.834L319.603 194.92L316.589 193.6L319.035 192.585C318.596 192.304 318.2 191.962 317.857 191.57C317.602 191.271 317.406 190.927 317.279 190.555C317.195 190.299 317.144 190.033 317.127 189.763C317.097 189.582 317.097 189.397 317.127 189.215L317.218 189.002H321.593C321.549 189.149 321.515 189.298 321.491 189.449C321.507 189.815 321.631 190.168 321.846 190.464C322.197 191.011 322.702 191.442 323.298 191.702C324.09 192.101 324.959 192.326 325.845 192.362C326.645 192.416 327.447 192.287 328.19 191.986C328.799 191.722 329.026 191.384 328.87 190.971C328.64 190.443 328.293 189.975 327.855 189.601C327.372 189.127 326.925 188.618 326.515 188.079C326.325 187.843 326.207 187.559 326.174 187.258C326.142 186.957 326.197 186.654 326.333 186.383C326.854 185.575 327.645 184.978 328.566 184.699C329.982 184.128 331.494 183.832 333.021 183.826C334.637 183.772 336.249 184.023 337.772 184.567L340.289 183.491L343.04 184.983L340.522 186.069C340.989 186.394 341.372 186.825 341.639 187.327Z" fill="#FFD200"/>
<path d="M329.52 201.172C340.636 201.172 349.647 195.891 349.647 189.378C349.647 182.864 340.636 177.583 329.52 177.583C318.404 177.583 309.392 182.864 309.392 189.378C309.392 195.891 318.404 201.172 329.52 201.172Z" stroke="#FFC543" stroke-width="2.03" stroke-miterlimit="10"/>
<path d="M329.469 202.197C342.715 202.197 353.454 195.908 353.454 188.149C353.454 180.391 342.715 174.102 329.469 174.102C316.223 174.102 305.485 180.391 305.485 188.149C305.485 195.908 316.223 202.197 329.469 202.197Z" fill="#FFD200"/>
<path d="M305.495 188.149V184.089L308.103 187.327L305.495 188.149Z" fill="#FFD200"/>
<path d="M353.453 184.089V188.149H350.408L352.641 184.891L353.453 184.089Z" fill="#FFD200"/>
<path d="M329.469 198.137C342.715 198.137 353.454 191.848 353.454 184.089C353.454 176.331 342.715 170.042 329.469 170.042C316.223 170.042 305.485 176.331 305.485 184.089C305.485 191.848 316.223 198.137 329.469 198.137Z" fill="#FFC543"/>
<path d="M341.639 182.212C341.797 182.525 341.864 182.877 341.832 183.227L341.74 183.602H337.366C337.405 183.48 337.432 183.354 337.447 183.227C337.431 182.941 337.34 182.664 337.183 182.425C336.956 181.991 336.602 181.636 336.168 181.41C335.54 181.083 334.846 180.899 334.138 180.872C333.471 180.824 332.801 180.928 332.179 181.176C331.563 181.44 331.327 181.779 331.469 182.191C331.675 182.711 331.994 183.179 332.402 183.562C332.876 184.042 333.32 184.55 333.732 185.084C333.926 185.314 334.051 185.595 334.092 185.893C334.134 186.191 334.09 186.495 333.966 186.769C333.483 187.564 332.724 188.153 331.834 188.423C330.366 189.053 328.792 189.397 327.195 189.438C325.475 189.494 323.758 189.251 322.12 188.718L319.603 189.804L316.65 188.363L319.096 187.348C318.657 187.066 318.261 186.725 317.918 186.333C317.663 186.034 317.467 185.689 317.34 185.318C317.256 185.061 317.205 184.795 317.188 184.526C317.158 184.344 317.158 184.159 317.188 183.978L317.279 183.765H321.654C321.61 183.911 321.576 184.06 321.552 184.211C321.568 184.577 321.692 184.93 321.907 185.226C322.258 185.773 322.763 186.204 323.359 186.465C324.151 186.864 325.02 187.089 325.906 187.124C326.706 187.178 327.508 187.05 328.251 186.749C328.86 186.485 329.087 186.146 328.931 185.734C328.701 185.206 328.354 184.737 327.916 184.363C327.433 183.889 326.986 183.38 326.576 182.841C326.386 182.606 326.268 182.321 326.236 182.02C326.203 181.72 326.258 181.416 326.394 181.146C326.915 180.337 327.706 179.74 328.627 179.461C330.043 178.89 331.555 178.594 333.083 178.588C334.698 178.534 336.31 178.785 337.833 179.329L340.35 178.253L343.101 179.745L340.583 180.831C341.043 181.198 341.406 181.672 341.639 182.212V182.212Z" fill="#FFD200"/>
<path d="M329.52 196.056C340.636 196.056 349.647 190.776 349.647 184.262C349.647 177.748 340.636 172.468 329.52 172.468C318.404 172.468 309.392 177.748 309.392 184.262C309.392 190.776 318.404 196.056 329.52 196.056Z" stroke="#FFC543" stroke-width="2.03" stroke-miterlimit="10"/>
<path d="M329.469 197.335C342.715 197.335 353.454 191.046 353.454 183.288C353.454 175.529 342.715 169.24 329.469 169.24C316.223 169.24 305.485 175.529 305.485 183.288C305.485 191.046 316.223 197.335 329.469 197.335Z" fill="#FFD200"/>
<path d="M305.495 183.288V179.228L308.103 182.465L305.495 183.288Z" fill="#FFD200"/>
<path d="M353.453 179.228V183.288H350.408L352.641 180.029L353.453 179.228Z" fill="#FFD200"/>
<path d="M329.469 193.275C342.715 193.275 353.454 186.986 353.454 179.228C353.454 171.469 342.715 165.18 329.469 165.18C316.223 165.18 305.485 171.469 305.485 179.228C305.485 186.986 316.223 193.275 329.469 193.275Z" fill="#FFC543"/>
<path d="M341.639 177.36C341.797 177.674 341.864 178.025 341.832 178.375L341.74 178.751H337.366C337.405 178.628 337.432 178.503 337.447 178.375C337.431 178.089 337.34 177.813 337.183 177.573C336.956 177.139 336.602 176.785 336.168 176.558C335.54 176.231 334.846 176.047 334.138 176.02C333.471 175.973 332.801 176.077 332.179 176.325C331.563 176.589 331.327 176.927 331.469 177.34C331.675 177.86 331.994 178.328 332.402 178.71C332.876 179.19 333.32 179.699 333.732 180.233C333.926 180.463 334.051 180.743 334.092 181.041C334.134 181.339 334.09 181.643 333.966 181.917C333.483 182.713 332.724 183.302 331.834 183.572C330.366 184.201 328.792 184.546 327.195 184.587C325.475 184.643 323.758 184.399 322.12 183.866L319.603 184.952L316.65 183.511L319.096 182.496C318.657 182.215 318.261 181.873 317.918 181.481C317.663 181.182 317.467 180.838 317.34 180.466C317.256 180.21 317.205 179.944 317.188 179.674C317.158 179.493 317.158 179.308 317.188 179.126L317.279 178.913H321.654C321.61 179.06 321.576 179.209 321.552 179.36C321.568 179.726 321.692 180.078 321.907 180.375C322.258 180.922 322.763 181.353 323.359 181.613C324.151 182.012 325.02 182.237 325.906 182.273C326.706 182.327 327.508 182.198 328.251 181.897C328.86 181.633 329.087 181.295 328.931 180.882C328.701 180.354 328.354 179.886 327.916 179.512C327.433 179.037 326.986 178.529 326.576 177.989C326.386 177.754 326.268 177.469 326.236 177.169C326.203 176.868 326.258 176.565 326.394 176.294C326.915 175.486 327.706 174.889 328.627 174.609C330.043 174.039 331.555 173.742 333.083 173.737C334.698 173.682 336.31 173.934 337.833 174.478L340.35 173.402L343.101 174.894L340.583 175.98C341.043 176.346 341.406 176.82 341.639 177.36V177.36Z" fill="#FFD200"/>
<path d="M329.52 191.195C340.636 191.195 349.647 185.914 349.647 179.4C349.647 172.886 340.636 167.606 329.52 167.606C318.404 167.606 309.392 172.886 309.392 179.4C309.392 185.914 318.404 191.195 329.52 191.195Z" stroke="#FFC543" stroke-width="2.03" stroke-miterlimit="10"/>
<path d="M329.469 192.372C342.715 192.372 353.454 186.082 353.454 178.324C353.454 170.566 342.715 164.277 329.469 164.277C316.223 164.277 305.485 170.566 305.485 178.324C305.485 186.082 316.223 192.372 329.469 192.372Z" fill="#FFD200"/>
<path d="M305.495 178.324V174.274L308.103 177.512L305.495 178.324Z" fill="#FFD200"/>
<path d="M353.453 174.274V178.324H350.408L352.641 175.076L353.453 174.274Z" fill="#FFD200"/>
<path d="M329.469 188.322C342.715 188.322 353.454 182.033 353.454 174.274C353.454 166.516 342.715 160.227 329.469 160.227C316.223 160.227 305.485 166.516 305.485 174.274C305.485 182.033 316.223 188.322 329.469 188.322Z" fill="#FFC543"/>
<path d="M341.639 172.397C341.797 172.71 341.864 173.062 341.832 173.412L341.74 173.787H337.366C337.405 173.665 337.432 173.539 337.447 173.412C337.431 173.126 337.34 172.849 337.183 172.61C336.956 172.176 336.602 171.822 336.168 171.595C335.54 171.268 334.846 171.084 334.138 171.057C333.471 171.009 332.801 171.113 332.179 171.361C331.563 171.625 331.327 171.964 331.469 172.376C331.675 172.896 331.994 173.364 332.402 173.747C332.876 174.227 333.32 174.735 333.732 175.269C333.926 175.499 334.051 175.78 334.092 176.078C334.134 176.376 334.09 176.68 333.966 176.954C333.483 177.749 332.724 178.338 331.834 178.609C330.366 179.238 328.792 179.582 327.195 179.624C325.475 179.68 323.758 179.436 322.12 178.903L319.603 179.989L316.65 178.548L319.096 177.533C318.657 177.252 318.261 176.91 317.918 176.518C317.663 176.219 317.467 175.874 317.34 175.503C317.256 175.246 317.205 174.98 317.188 174.711C317.158 174.529 317.158 174.344 317.188 174.163L317.279 173.95H321.654C321.61 174.096 321.576 174.245 321.552 174.396C321.568 174.762 321.692 175.115 321.907 175.411C322.258 175.958 322.763 176.389 323.359 176.65C324.151 177.049 325.02 177.274 325.906 177.309C326.706 177.363 327.508 177.235 328.251 176.934C328.86 176.67 329.087 176.332 328.931 175.919C328.701 175.391 328.354 174.922 327.916 174.549C327.433 174.074 326.986 173.565 326.576 173.026C326.386 172.791 326.268 172.506 326.236 172.205C326.203 171.905 326.258 171.601 326.394 171.331C326.915 170.523 327.706 169.925 328.627 169.646C330.043 169.075 331.555 168.779 333.083 168.773C334.698 168.719 336.31 168.971 337.833 169.514L340.35 168.438L343.07 169.951L340.553 171.037C341.021 171.394 341.394 171.861 341.639 172.397Z" fill="#FFD200"/>
<path d="M329.52 186.231C340.636 186.231 349.647 180.951 349.647 174.437C349.647 167.923 340.636 162.643 329.52 162.643C318.404 162.643 309.392 167.923 309.392 174.437C309.392 180.951 318.404 186.231 329.52 186.231Z" stroke="#FFC543" stroke-width="2.03" stroke-miterlimit="10"/>
<path d="M329.286 186.292C342.532 186.292 353.271 180.003 353.271 172.244C353.271 164.486 342.532 158.197 329.286 158.197C316.04 158.197 305.302 164.486 305.302 172.244C305.302 180.003 316.04 186.292 329.286 186.292Z" fill="#FFD200"/>
<path d="M305.302 172.244V168.184L307.91 171.432L305.302 172.244Z" fill="#FFD200"/>
<path d="M353.271 168.184V172.244H350.226L352.449 168.986L353.271 168.184Z" fill="#FFD200"/>
<path d="M329.286 182.232C342.532 182.232 353.271 175.943 353.271 168.184C353.271 160.426 342.532 154.137 329.286 154.137C316.04 154.137 305.302 160.426 305.302 168.184C305.302 175.943 316.04 182.232 329.286 182.232Z" fill="#FFC543"/>
<path d="M341.446 166.307C341.604 166.62 341.671 166.972 341.639 167.322L341.548 167.697H337.173C337.212 167.575 337.239 167.449 337.254 167.322C337.238 167.036 337.147 166.759 336.99 166.52C336.764 166.086 336.409 165.731 335.975 165.505C335.347 165.178 334.653 164.994 333.945 164.967C333.278 164.919 332.608 165.023 331.986 165.271C331.371 165.535 331.134 165.874 331.276 166.286C331.482 166.806 331.801 167.274 332.21 167.657C332.683 168.137 333.127 168.645 333.539 169.179C333.733 169.409 333.858 169.69 333.9 169.988C333.941 170.286 333.897 170.59 333.773 170.864C333.29 171.659 332.531 172.248 331.641 172.518C330.173 173.148 328.599 173.492 327.003 173.533C325.282 173.589 323.565 173.346 321.928 172.813L319.41 173.899L316.457 172.458L318.903 171.443C318.465 171.161 318.068 170.82 317.726 170.428C317.47 170.129 317.274 169.784 317.147 169.413C317.063 169.156 317.012 168.89 316.995 168.621C316.965 168.439 316.965 168.254 316.995 168.073L317.086 167.86H321.461C321.417 168.006 321.383 168.155 321.359 168.306C321.376 168.672 321.499 169.025 321.714 169.321C322.065 169.868 322.57 170.299 323.166 170.559C323.958 170.959 324.827 171.183 325.714 171.219C326.513 171.273 327.315 171.145 328.058 170.844C328.667 170.58 328.894 170.241 328.738 169.829C328.509 169.301 328.161 168.832 327.723 168.458C327.241 167.984 326.793 167.475 326.383 166.936C326.193 166.701 326.075 166.416 326.043 166.115C326.01 165.815 326.065 165.511 326.201 165.241C326.722 164.432 327.513 163.835 328.434 163.556C329.85 162.985 331.362 162.689 332.89 162.683C334.506 162.629 336.117 162.88 337.64 163.424L340.157 162.348L342.908 163.84L340.39 164.926C340.85 165.293 341.213 165.767 341.446 166.307V166.307Z" fill="#FFD200"/>
<path d="M329.327 180.151C340.443 180.151 349.454 174.871 349.454 168.357C349.454 161.843 340.443 156.563 329.327 156.563C318.211 156.563 309.199 161.843 309.199 168.357C309.199 174.871 318.211 180.151 329.327 180.151Z" stroke="#FFC543" stroke-width="2.03" stroke-miterlimit="10"/>
<path d="M329.286 181.176C342.532 181.176 353.271 174.887 353.271 167.129C353.271 159.371 342.532 153.081 329.286 153.081C316.04 153.081 305.302 159.371 305.302 167.129C305.302 174.887 316.04 181.176 329.286 181.176Z" fill="#FFD200"/>
<path d="M305.302 167.129V163.069L307.91 166.307L305.302 167.129Z" fill="#FFD200"/>
<path d="M353.271 163.069V167.129H350.226L352.449 163.871L353.271 163.069Z" fill="#FFD200"/>
<path d="M329.286 177.116C342.532 177.116 353.271 170.827 353.271 163.069C353.271 155.311 342.532 149.021 329.286 149.021C316.04 149.021 305.302 155.311 305.302 163.069C305.302 170.827 316.04 177.116 329.286 177.116Z" fill="#FFC543"/>
<path d="M341.446 161.191C341.604 161.505 341.671 161.856 341.639 162.206L341.548 162.582H337.173C337.212 162.459 337.239 162.334 337.254 162.206C337.238 161.92 337.147 161.644 336.99 161.404C336.764 160.97 336.409 160.616 335.975 160.389C335.347 160.062 334.653 159.878 333.945 159.851C333.278 159.804 332.608 159.908 331.986 160.156C331.371 160.42 331.134 160.758 331.276 161.171C331.482 161.691 331.801 162.159 332.21 162.541C332.683 163.021 333.127 163.53 333.539 164.064C333.733 164.294 333.858 164.574 333.9 164.872C333.941 165.171 333.897 165.474 333.773 165.749C333.29 166.544 332.531 167.133 331.641 167.403C330.173 168.032 328.599 168.377 327.003 168.418C325.282 168.474 323.565 168.23 321.928 167.697L319.41 168.783L316.457 167.342L318.903 166.327C318.465 166.046 318.068 165.704 317.726 165.312C317.47 165.013 317.274 164.669 317.147 164.297C317.063 164.041 317.012 163.775 316.995 163.505C316.965 163.324 316.965 163.139 316.995 162.957L317.086 162.744H321.461C321.417 162.891 321.383 163.04 321.359 163.191C321.376 163.557 321.499 163.91 321.714 164.206C322.065 164.753 322.57 165.184 323.166 165.444C323.958 165.843 324.827 166.068 325.714 166.104C326.513 166.158 327.315 166.029 328.058 165.728C328.667 165.464 328.894 165.126 328.738 164.713C328.509 164.185 328.161 163.717 327.723 163.343C327.241 162.868 326.793 162.36 326.383 161.82C326.193 161.585 326.075 161.3 326.043 161C326.01 160.699 326.065 160.396 326.201 160.125C326.722 159.317 327.513 158.72 328.434 158.441C329.85 157.87 331.362 157.574 332.89 157.568C334.506 157.514 336.117 157.765 337.64 158.309L340.157 157.233L342.908 158.725L340.39 159.811C340.85 160.177 341.213 160.651 341.446 161.191V161.191Z" fill="#FFD200"/>
<path d="M329.327 175.036C340.443 175.036 349.454 169.755 349.454 163.241C349.454 156.728 340.443 151.447 329.327 151.447C318.211 151.447 309.199 156.728 309.199 163.241C309.199 169.755 318.211 175.036 329.327 175.036Z" stroke="#FFC543" stroke-width="2.03" stroke-miterlimit="10"/>
<path d="M329.662 176.304C342.908 176.304 353.646 170.015 353.646 162.257C353.646 154.499 342.908 148.209 329.662 148.209C316.416 148.209 305.677 154.499 305.677 162.257C305.677 170.015 316.416 176.304 329.662 176.304Z" fill="#FFD200"/>
<path d="M305.677 162.267V158.207L308.286 161.445L305.677 162.267Z" fill="#FFD200"/>
<path d="M353.646 158.207V162.267H350.601L352.824 159.009L353.646 158.207Z" fill="#FFD200"/>
<path d="M329.662 172.255C342.908 172.255 353.646 165.965 353.646 158.207C353.646 150.449 342.908 144.159 329.662 144.159C316.416 144.159 305.677 150.449 305.677 158.207C305.677 165.965 316.416 172.255 329.662 172.255Z" fill="#FFC543"/>
<path d="M341.822 156.329C341.98 156.643 342.046 156.994 342.015 157.344L341.923 157.72H337.549C337.587 157.597 337.615 157.472 337.63 157.344C337.614 157.058 337.523 156.782 337.366 156.542C337.139 156.108 336.785 155.754 336.351 155.527C335.722 155.2 335.029 155.016 334.321 154.989C333.653 154.942 332.984 155.046 332.362 155.294C331.746 155.558 331.509 155.896 331.651 156.309C331.858 156.829 332.177 157.297 332.585 157.679C333.059 158.159 333.503 158.668 333.915 159.202C334.109 159.432 334.234 159.712 334.275 160.01C334.317 160.309 334.272 160.612 334.148 160.887C333.666 161.682 332.907 162.271 332.017 162.541C330.549 163.17 328.975 163.515 327.378 163.556C325.658 163.612 323.94 163.368 322.303 162.835L319.725 164.023L316.771 162.582L319.218 161.567C318.779 161.285 318.383 160.944 318.04 160.552C317.785 160.253 317.589 159.908 317.462 159.537C317.378 159.28 317.327 159.014 317.309 158.745C317.28 158.563 317.28 158.378 317.309 158.197L317.401 157.984H321.775C321.732 158.13 321.698 158.279 321.674 158.43C321.69 158.796 321.814 159.149 322.029 159.445C322.38 159.992 322.885 160.423 323.481 160.684C324.273 161.083 325.142 161.308 326.028 161.343C326.828 161.397 327.63 161.269 328.373 160.968C328.982 160.704 329.209 160.365 329.053 159.953C328.823 159.425 328.476 158.956 328.038 158.582C327.555 158.108 327.107 157.599 326.698 157.06C326.508 156.825 326.39 156.54 326.357 156.239C326.325 155.939 326.38 155.635 326.515 155.365C327.037 154.557 327.828 153.959 328.749 153.68C330.165 153.109 331.677 152.813 333.204 152.807C334.82 152.753 336.432 153.004 337.955 153.548L340.472 152.472L343.222 153.964L340.705 155.05C341.174 155.381 341.557 155.82 341.822 156.329Z" fill="#FFD200"/>
<path d="M329.702 170.174C340.818 170.174 349.83 164.893 349.83 158.38C349.83 151.866 340.818 146.585 329.702 146.585C318.586 146.585 309.575 151.866 309.575 158.38C309.575 164.893 318.586 170.174 329.702 170.174Z" stroke="#FFC543" stroke-width="2.03" stroke-miterlimit="10"/>
<path d="M329.662 171.351C342.908 171.351 353.646 165.062 353.646 157.304C353.646 149.545 342.908 143.256 329.662 143.256C316.416 143.256 305.677 149.545 305.677 157.304C305.677 165.062 316.416 171.351 329.662 171.351Z" fill="#FFD200"/>
<path d="M305.677 157.304V153.254L308.286 156.492L305.677 157.304Z" fill="#FFD200"/>
<path d="M353.646 153.254V157.304H350.601L352.824 154.045L353.646 153.254Z" fill="#FFD200"/>
<path d="M329.662 167.291C342.908 167.291 353.646 161.002 353.646 153.244C353.646 145.485 342.908 139.196 329.662 139.196C316.416 139.196 305.677 145.485 305.677 153.244C305.677 161.002 316.416 167.291 329.662 167.291Z" fill="#FFC543"/>
<path d="M341.822 151.366C341.98 151.68 342.046 152.031 342.015 152.381L341.923 152.756H337.549C337.587 152.634 337.615 152.508 337.63 152.381C337.614 152.095 337.523 151.819 337.366 151.579C337.139 151.145 336.785 150.791 336.351 150.564C335.722 150.237 335.029 150.053 334.321 150.026C333.653 149.978 332.984 150.083 332.362 150.331C331.746 150.594 331.509 150.933 331.651 151.346C331.858 151.866 332.177 152.333 332.585 152.716C333.059 153.196 333.503 153.704 333.915 154.238C334.109 154.468 334.234 154.749 334.275 155.047C334.317 155.345 334.272 155.649 334.148 155.923C333.666 156.718 332.907 157.308 332.017 157.578C330.549 158.207 328.975 158.551 327.378 158.593C325.658 158.649 323.94 158.405 322.303 157.872L319.725 159.09L316.771 157.649L319.218 156.634C318.779 156.353 318.383 156.011 318.04 155.619C317.785 155.32 317.589 154.976 317.462 154.604C317.378 154.347 317.327 154.081 317.309 153.812C317.28 153.631 317.28 153.445 317.309 153.264L317.401 153.051H321.775C321.732 153.197 321.698 153.346 321.674 153.497C321.69 153.863 321.814 154.216 322.029 154.512C322.38 155.06 322.885 155.49 323.481 155.751C324.273 156.15 325.142 156.375 326.028 156.41C326.828 156.464 327.63 156.336 328.373 156.035C328.982 155.771 329.209 155.433 329.053 155.02C328.823 154.492 328.476 154.023 328.038 153.65C327.595 153.125 327.191 152.569 326.83 151.985C326.64 151.75 326.522 151.465 326.489 151.164C326.457 150.864 326.512 150.56 326.647 150.29C327.169 149.482 327.96 148.884 328.88 148.605C330.297 148.034 331.809 147.738 333.336 147.732C334.952 147.678 336.564 147.929 338.086 148.473L340.604 147.397L343.354 148.889L340.837 149.975C341.272 150.353 341.61 150.83 341.822 151.366V151.366Z" fill="#FFD200"/>
<path d="M329.702 165.21C340.818 165.21 349.83 159.93 349.83 153.416C349.83 146.902 340.818 141.622 329.702 141.622C318.586 141.622 309.575 146.902 309.575 153.416C309.575 159.93 318.586 165.21 329.702 165.21Z" stroke="#FFC543" stroke-width="2.03" stroke-miterlimit="10"/>
<path d="M87.087 189.002C101.925 189.002 113.954 181.954 113.954 173.26C113.954 164.565 101.925 157.517 87.087 157.517C72.2488 157.517 60.22 164.565 60.22 173.26C60.22 181.954 72.2488 189.002 87.087 189.002Z" fill="#FFD200"/>
<path d="M60.22 173.259V168.712L63.1533 172.346L60.22 173.259Z" fill="#FFD200"/>
<path d="M113.954 168.712V173.259H110.544L113.041 169.605L113.954 168.712Z" fill="#FFD200"/>
<path d="M87.087 184.455C101.925 184.455 113.954 177.407 113.954 168.712C113.954 160.018 101.925 152.969 87.087 152.969C72.2488 152.969 60.22 160.018 60.22 168.712C60.22 177.407 72.2488 184.455 87.087 184.455Z" fill="#FFC543"/>
<path d="M100.718 166.611C100.906 166.981 100.98 167.397 100.932 167.809L100.83 168.225H95.9277C95.9714 168.089 96.002 167.95 96.019 167.809C96.0001 167.491 95.8986 167.183 95.7247 166.916C95.4495 166.44 95.0349 166.061 94.5371 165.83C93.8244 165.457 93.037 165.248 92.2331 165.221C91.4864 165.165 90.7369 165.28 90.0407 165.555C89.364 165.853 89.1001 166.239 89.249 166.713C89.4715 167.291 89.818 167.814 90.264 168.245C90.7954 168.783 91.2937 169.352 91.756 169.95C91.9738 170.208 92.1141 170.522 92.1608 170.856C92.2076 171.19 92.1587 171.531 92.0199 171.838C91.4814 172.731 90.6318 173.392 89.6347 173.696C87.9868 174.383 86.2233 174.752 84.4379 174.782C82.5111 174.846 80.5877 174.575 78.7539 173.98L75.9322 175.188L72.6233 173.574L75.3638 172.397C74.8912 172.081 74.4642 171.702 74.095 171.27C73.8131 170.947 73.5929 170.576 73.4454 170.174C73.3539 169.884 73.2993 169.584 73.283 169.281C73.2495 169.076 73.2495 168.866 73.283 168.661L73.3845 168.428H78.287C78.2356 168.591 78.1949 168.757 78.1652 168.925C78.1868 169.328 78.3242 169.716 78.561 170.042C78.9546 170.652 79.5195 171.132 80.185 171.422C81.0721 171.87 82.0445 172.122 83.0372 172.163C83.9344 172.222 84.8333 172.076 85.666 171.737C86.3427 171.446 86.5998 171.064 86.4374 170.59C86.1948 170.004 85.8236 169.48 85.3514 169.057C84.8101 168.526 84.3081 167.956 83.8492 167.352C83.6343 167.09 83.4998 166.771 83.462 166.435C83.4242 166.098 83.4846 165.757 83.636 165.454C84.2206 164.551 85.1046 163.882 86.1329 163.566C87.7148 162.915 89.4061 162.571 91.1166 162.551C92.926 162.492 94.7304 162.774 96.4352 163.383L99.2467 162.176L102.292 163.85L99.47 165.058C100.009 165.464 100.438 165.998 100.718 166.611V166.611Z" fill="#FFD200"/>
<path d="M87.1378 182.12C99.5936 182.12 109.691 176.204 109.691 168.905C109.691 161.606 99.5936 155.69 87.1378 155.69C74.6819 155.69 64.5845 161.606 64.5845 168.905C64.5845 176.204 74.6819 182.12 87.1378 182.12Z" stroke="#FFC543" stroke-width="2.03" stroke-miterlimit="10"/>
<path d="M87.087 183.267C101.925 183.267 113.954 176.219 113.954 167.525C113.954 158.83 101.925 151.782 87.087 151.782C72.2488 151.782 60.22 158.83 60.22 167.525C60.22 176.219 72.2488 183.267 87.087 183.267Z" fill="#FFD200"/>
<path d="M60.22 167.525V162.978L63.1533 166.611L60.22 167.525Z" fill="#FFD200"/>
<path d="M113.954 162.978V167.525H110.544L113.041 163.871L113.954 162.978Z" fill="#FFD200"/>
<path d="M87.087 178.72C101.925 178.72 113.954 171.672 113.954 162.978C113.954 154.283 101.925 147.235 87.087 147.235C72.2488 147.235 60.22 154.283 60.22 162.978C60.22 171.672 72.2488 178.72 87.087 178.72Z" fill="#FFC543"/>
<path d="M100.718 160.876C100.906 161.246 100.98 161.663 100.932 162.074L100.83 162.49H95.9277C95.9714 162.355 96.002 162.215 96.019 162.074C96.0001 161.756 95.8986 161.448 95.7247 161.181C95.4478 160.71 95.0335 160.334 94.5371 160.105C93.8244 159.732 93.037 159.524 92.2331 159.496C91.4864 159.441 90.7369 159.555 90.0407 159.831C89.364 160.129 89.1001 160.514 89.249 160.988C89.4715 161.567 89.818 162.09 90.264 162.521C90.7954 163.058 91.2937 163.628 91.756 164.226C91.9738 164.484 92.1141 164.798 92.1608 165.132C92.2076 165.466 92.1587 165.806 92.0199 166.114C91.4814 167.006 90.6318 167.668 89.6347 167.971C87.9868 168.659 86.2233 169.027 84.4379 169.057C82.5111 169.122 80.5877 168.85 78.7539 168.256L75.9322 169.463L72.6233 167.85L75.3638 166.672C74.8905 166.353 74.4636 165.971 74.095 165.535C73.8131 165.213 73.5929 164.841 73.4454 164.439C73.3539 164.149 73.2993 163.849 73.283 163.546C73.2495 163.341 73.2495 163.132 73.283 162.927L73.3845 162.693H78.287C78.2338 162.843 78.1897 162.995 78.155 163.15C78.1766 163.553 78.3141 163.94 78.5509 164.267C78.941 164.893 79.5103 165.388 80.185 165.688C81.0721 166.135 82.0445 166.388 83.0372 166.429C83.9344 166.487 84.8333 166.342 85.666 166.002C86.3427 165.711 86.5998 165.329 86.4374 164.855C86.1948 164.269 85.8236 163.746 85.3514 163.323C84.8101 162.791 84.3081 162.221 83.8492 161.617C83.6343 161.355 83.4998 161.037 83.462 160.7C83.4242 160.363 83.4846 160.023 83.636 159.719C84.2206 158.816 85.1046 158.148 86.1329 157.831C87.7148 157.18 89.4061 156.836 91.1166 156.816C92.926 156.757 94.7304 157.039 96.4352 157.649L99.2467 156.441L102.292 158.116L99.47 159.324C100.009 159.729 100.438 160.263 100.718 160.876V160.876Z" fill="#FFD200"/>
<path d="M87.1378 176.386C99.5936 176.386 109.691 170.469 109.691 163.17C109.691 155.872 99.5936 149.955 87.1378 149.955C74.6819 149.955 64.5845 155.872 64.5845 163.17C64.5845 170.469 74.6819 176.386 87.1378 176.386Z" stroke="#FFC543" stroke-width="2.03" stroke-miterlimit="10"/>
<path d="M87.087 177.817C101.925 177.817 113.954 170.769 113.954 162.074C113.954 153.38 101.925 146.332 87.087 146.332C72.2488 146.332 60.22 153.38 60.22 162.074C60.22 170.769 72.2488 177.817 87.087 177.817Z" fill="#FFD200"/>
<path d="M60.22 162.074V157.527L63.1533 161.161L60.22 162.074Z" fill="#FFD200"/>
<path d="M113.954 157.527V162.074H110.544L113.041 158.43L113.954 157.527Z" fill="#FFD200"/>
<path d="M87.087 173.269C101.925 173.269 113.954 166.221 113.954 157.527C113.954 148.832 101.925 141.784 87.087 141.784C72.2488 141.784 60.22 148.832 60.22 157.527C60.22 166.221 72.2488 173.269 87.087 173.269Z" fill="#FFC543"/>
<path d="M100.718 155.426C100.906 155.795 100.98 156.212 100.932 156.624L100.83 157.04H95.9277C95.9714 156.904 96.002 156.765 96.019 156.624C96.0001 156.305 95.8986 155.997 95.7247 155.73C95.4495 155.255 95.0349 154.876 94.5371 154.644C93.8244 154.271 93.037 154.063 92.2331 154.035C91.4864 153.98 90.7369 154.095 90.0407 154.37C89.364 154.668 89.1001 155.054 89.249 155.527C89.4922 156.113 89.8633 156.636 90.335 157.06C90.8664 157.598 91.3647 158.167 91.8271 158.765C92.0448 159.023 92.1852 159.337 92.2319 159.671C92.2786 160.005 92.2297 160.346 92.091 160.653C91.5524 161.545 90.7028 162.207 89.7057 162.511C88.0578 163.198 86.2943 163.567 84.5089 163.597C82.5821 163.661 80.6588 163.39 78.8249 162.795L76.0032 164.003L72.6943 162.389L75.4348 161.211C74.9384 160.907 74.4874 160.535 74.095 160.105C73.8131 159.783 73.5929 159.411 73.4454 159.009C73.3539 158.719 73.2993 158.419 73.283 158.116C73.2495 157.911 73.2495 157.701 73.283 157.496L73.3845 157.263H78.287C78.2356 157.426 78.1949 157.592 78.1652 157.76C78.1867 158.163 78.3242 158.551 78.561 158.877C78.9545 159.487 79.5195 159.967 80.185 160.257C81.0721 160.705 82.0445 160.957 83.0372 160.998C83.9344 161.057 84.8333 160.911 85.666 160.572C86.3427 160.281 86.5998 159.899 86.4374 159.425C86.1948 158.839 85.8236 158.315 85.3514 157.892C84.8101 157.361 84.3081 156.791 83.8492 156.187C83.6343 155.925 83.4998 155.606 83.462 155.27C83.4242 154.933 83.4846 154.592 83.636 154.289C84.2206 153.386 85.1046 152.717 86.1329 152.401C87.7148 151.75 89.4061 151.406 91.1166 151.386C92.926 151.327 94.7304 151.609 96.4352 152.218L99.2873 150.97L102.332 152.645L99.5106 153.853C100.037 154.269 100.452 154.81 100.718 155.426V155.426Z" fill="#FFD200"/>
<path d="M87.1378 170.935C99.5936 170.935 109.691 165.018 109.691 157.72C109.691 150.421 99.5936 144.504 87.1378 144.504C74.6819 144.504 64.5845 150.421 64.5845 157.72C64.5845 165.018 74.6819 170.935 87.1378 170.935Z" stroke="#FFC543" stroke-width="2.03" stroke-miterlimit="10"/>
<path d="M87.087 172.265C101.925 172.265 113.954 165.217 113.954 156.522C113.954 147.828 101.925 140.78 87.087 140.78C72.2488 140.78 60.22 147.828 60.22 156.522C60.22 165.217 72.2488 172.265 87.087 172.265Z" fill="#FFD200"/>
<path d="M60.22 156.522V151.975L63.1533 155.609L60.22 156.522Z" fill="#FFD200"/>
<path d="M113.954 151.975V156.522H110.544L113.041 152.878L113.954 151.975Z" fill="#FFD200"/>
<path d="M87.087 167.717C101.925 167.717 113.954 160.669 113.954 151.975C113.954 143.28 101.925 136.232 87.087 136.232C72.2488 136.232 60.22 143.28 60.22 151.975C60.22 160.669 72.2488 167.717 87.087 167.717Z" fill="#FFC543"/>
<path d="M100.719 149.874C100.906 150.243 100.98 150.66 100.932 151.071L100.83 151.488H95.9278C95.9715 151.352 96.002 151.213 96.0191 151.071C96.0001 150.753 95.8987 150.445 95.7248 150.178C95.4495 149.703 95.035 149.324 94.5372 149.092C93.8245 148.719 93.0371 148.511 92.2332 148.483C91.4864 148.428 90.7369 148.543 90.0408 148.818C89.3641 149.116 89.1002 149.502 89.2491 149.975C89.4716 150.554 89.818 151.077 90.2641 151.508C90.7955 152.046 91.2937 152.615 91.7561 153.213C91.9739 153.471 92.1142 153.785 92.1609 154.119C92.2076 154.453 92.1588 154.794 92.02 155.101C91.4814 155.993 90.6318 156.655 89.6348 156.958C87.9984 157.653 86.2455 158.032 84.4684 158.075C82.5416 158.139 80.6183 157.868 78.7844 157.273L75.9627 158.481L72.6538 156.867L75.3943 155.69C74.9089 155.367 74.4716 154.978 74.0951 154.533C73.8132 154.21 73.593 153.839 73.4455 153.436C73.3539 153.147 73.2994 152.847 73.2831 152.543C73.2496 152.338 73.2496 152.129 73.2831 151.924L73.3846 151.691H78.2871C78.2356 151.854 78.1949 152.02 78.1653 152.188C78.1868 152.591 78.3243 152.978 78.5611 153.304C78.9546 153.915 79.5196 154.395 80.1851 154.685C81.0722 155.132 82.0446 155.385 83.0373 155.426C83.9345 155.485 84.8334 155.339 85.6661 155C86.3428 154.709 86.5999 154.326 86.4375 153.853C86.1949 153.267 85.8237 152.743 85.3515 152.32C84.8102 151.789 84.3081 151.219 83.8493 150.615C83.6343 150.353 83.4999 150.034 83.462 149.697C83.4242 149.36 83.4847 149.02 83.6361 148.717C84.2207 147.814 85.1047 147.145 86.133 146.829C87.7149 146.178 89.4061 145.833 91.1167 145.814C92.9261 145.754 94.7305 146.037 96.4353 146.646L99.2468 145.438L102.292 147.113L99.4701 148.321C100.009 148.727 100.438 149.26 100.719 149.874V149.874Z" fill="#FFD200"/>
<path d="M87.1378 165.383C99.5936 165.383 109.691 159.466 109.691 152.168C109.691 144.869 99.5936 138.952 87.1378 138.952C74.6819 138.952 64.5845 144.869 64.5845 152.168C64.5845 159.466 74.6819 165.383 87.1378 165.383Z" stroke="#FFC543" stroke-width="2.03" stroke-miterlimit="10"/>
<path d="M86.8739 165.444C101.712 165.444 113.741 158.396 113.741 149.701C113.741 141.007 101.712 133.959 86.8739 133.959C72.0356 133.959 60.0068 141.007 60.0068 149.701C60.0068 158.396 72.0356 165.444 86.8739 165.444Z" fill="#FFD200"/>
<path d="M60.0171 149.701V145.164L62.9403 148.788L60.0171 149.701Z" fill="#FFD200"/>
<path d="M113.741 145.164V149.701H110.331L112.838 146.058L113.741 145.164Z" fill="#FFD200"/>
<path d="M86.8739 160.907C101.712 160.907 113.741 153.859 113.741 145.164C113.741 136.47 101.712 129.422 86.8739 129.422C72.0356 129.422 60.0068 136.47 60.0068 145.164C60.0068 153.859 72.0356 160.907 86.8739 160.907Z" fill="#FFC543"/>
<path d="M100.485 143.053C100.673 143.422 100.747 143.839 100.698 144.251L100.597 144.667H95.6942C95.7379 144.531 95.7685 144.392 95.7856 144.251C95.7666 143.932 95.6652 143.625 95.4912 143.357C95.216 142.882 94.8014 142.503 94.3037 142.271C93.591 141.898 92.8036 141.69 91.9996 141.662C91.2529 141.607 90.5034 141.722 89.8072 141.997C89.1306 142.295 88.8666 142.681 89.0155 143.154C89.2381 143.733 89.5845 144.256 90.0305 144.687C90.5619 145.225 91.0602 145.794 91.5226 146.392C91.7403 146.65 91.8807 146.964 91.9274 147.298C91.9741 147.632 91.9252 147.973 91.7865 148.28C91.2479 149.173 90.3983 149.834 89.4012 150.138C87.7693 150.838 86.02 151.223 84.245 151.274C82.3182 151.339 80.3949 151.067 78.561 150.473L75.7393 151.68L72.4304 150.067L75.1709 148.889C74.6806 148.561 74.2397 148.165 73.8616 147.712C73.5796 147.389 73.3594 147.018 73.212 146.616C73.1204 146.326 73.0658 146.026 73.0496 145.722C73.016 145.517 73.016 145.308 73.0496 145.103L73.1511 144.87H78.155C78.1036 145.033 78.0629 145.199 78.0332 145.367C78.0548 145.77 78.1922 146.157 78.4291 146.484C78.8226 147.094 79.3876 147.574 80.0531 147.864C80.9401 148.311 81.9126 148.564 82.9052 148.605C83.8025 148.664 84.7014 148.518 85.5341 148.179C86.2107 147.888 86.4679 147.505 86.3055 147.032C86.0628 146.446 85.6917 145.922 85.2194 145.499C84.6782 144.968 84.1761 144.398 83.7172 143.794C83.5023 143.532 83.3678 143.213 83.33 142.876C83.2922 142.54 83.3526 142.199 83.5041 141.896C84.0887 140.993 84.9727 140.324 86.001 140.008C87.5829 139.357 89.2741 139.012 90.9846 138.993C92.7941 138.933 94.5985 139.216 96.3032 139.825L99.1148 138.617L102.16 140.292L99.3381 141.5C99.8397 141.918 100.233 142.451 100.485 143.053V143.053Z" fill="#FFD200"/>
<path d="M86.9246 158.562C99.3805 158.562 109.478 152.646 109.478 145.347C109.478 138.048 99.3805 132.132 86.9246 132.132C74.4688 132.132 64.3713 138.048 64.3713 145.347C64.3713 152.646 74.4688 158.562 86.9246 158.562Z" stroke="#FFC543" stroke-width="2.03" stroke-miterlimit="10"/>
<path d="M86.8739 159.709C101.712 159.709 113.741 152.661 113.741 143.967C113.741 135.272 101.712 128.224 86.8739 128.224C72.0356 128.224 60.0068 135.272 60.0068 143.967C60.0068 152.661 72.0356 159.709 86.8739 159.709Z" fill="#FFD200"/>
<path d="M60.0171 143.966V139.429L62.9403 143.063L60.0171 143.966Z" fill="#FFD200"/>
<path d="M113.741 139.429V143.966H110.331L112.838 140.323L113.741 139.429Z" fill="#FFD200"/>
<path d="M86.8739 155.172C101.712 155.172 113.741 148.124 113.741 139.429C113.741 130.735 101.712 123.687 86.8739 123.687C72.0356 123.687 60.0068 130.735 60.0068 139.429C60.0068 148.124 72.0356 155.172 86.8739 155.172Z" fill="#FFC543"/>
<path d="M100.485 137.318C100.673 137.688 100.747 138.104 100.698 138.516L100.597 138.932H95.6942C95.7379 138.797 95.7685 138.657 95.7856 138.516C95.7666 138.198 95.6652 137.89 95.4912 137.623C95.216 137.148 94.8014 136.769 94.3037 136.537C93.591 136.164 92.8036 135.956 91.9996 135.928C91.2529 135.873 90.5034 135.987 89.8072 136.263C89.1306 136.56 88.8666 136.946 89.0155 137.42C89.2381 137.999 89.5845 138.522 90.0305 138.952C90.5619 139.49 91.0602 140.06 91.5226 140.658C91.7403 140.915 91.8807 141.229 91.9274 141.563C91.9741 141.898 91.9252 142.238 91.7865 142.546C91.2479 143.438 90.3983 144.099 89.4012 144.403C87.7693 145.103 86.02 145.489 84.245 145.54C82.3182 145.604 80.3949 145.333 78.561 144.738L75.7393 145.946L72.4304 144.332L75.1709 143.155C74.6806 142.826 74.2397 142.43 73.8616 141.977C73.5796 141.655 73.3594 141.283 73.212 140.881C73.1204 140.591 73.0658 140.291 73.0496 139.988C73.016 139.783 73.016 139.574 73.0496 139.369L73.1511 139.135H78.155C78.1036 139.298 78.0629 139.464 78.0332 139.632C78.0548 140.035 78.1922 140.423 78.4291 140.749C78.8226 141.359 79.3876 141.839 80.0531 142.129C80.9401 142.577 81.9126 142.829 82.9052 142.87C83.8025 142.929 84.7014 142.783 85.5341 142.444C86.2107 142.153 86.4679 141.771 86.3055 141.297C86.0429 140.721 85.6544 140.211 85.1687 139.805C84.6274 139.274 84.1254 138.704 83.6665 138.1C83.4516 137.838 83.3171 137.519 83.2793 137.182C83.2414 136.846 83.3019 136.505 83.4533 136.202C84.0379 135.299 84.9219 134.63 85.9502 134.314C87.5321 133.663 89.2233 133.318 90.9339 133.299C92.7433 133.239 94.5477 133.522 96.2525 134.131L99.064 132.923L102.109 134.598L99.2873 135.806C99.8023 136.207 100.213 136.725 100.485 137.318V137.318Z" fill="#FFD200"/>
<path d="M86.9246 152.828C99.3805 152.828 109.478 146.911 109.478 139.612C109.478 132.314 99.3805 126.397 86.9246 126.397C74.4688 126.397 64.3713 132.314 64.3713 139.612C64.3713 146.911 74.4688 152.828 86.9246 152.828Z" stroke="#FFC543" stroke-width="2.03" stroke-miterlimit="10"/>
<path d="M87.3002 154.269C102.138 154.269 114.167 147.221 114.167 138.526C114.167 129.832 102.138 122.783 87.3002 122.783C72.4619 122.783 60.4331 129.832 60.4331 138.526C60.4331 147.221 72.4619 154.269 87.3002 154.269Z" fill="#FFD200"/>
<path d="M60.4331 138.526V133.979L63.3563 137.613L60.4331 138.526Z" fill="#FFD200"/>
<path d="M114.167 133.979V138.526H110.757L113.254 134.872L114.167 133.979Z" fill="#FFD200"/>
<path d="M87.3002 149.722C102.138 149.722 114.167 142.673 114.167 133.979C114.167 125.285 102.138 118.236 87.3002 118.236C72.4619 118.236 60.4331 125.285 60.4331 133.979C60.4331 142.673 72.4619 149.722 87.3002 149.722Z" fill="#FFC543"/>
<path d="M100.922 131.878C101.109 132.247 101.183 132.664 101.135 133.076L101.033 133.492H96.1307C96.1744 133.356 96.205 133.217 96.2221 133.076C96.2031 132.757 96.1017 132.45 95.9277 132.182C95.6525 131.707 95.2379 131.328 94.7402 131.096C94.0275 130.723 93.2401 130.515 92.4361 130.487C91.6894 130.432 90.9399 130.547 90.2437 130.822C89.5671 131.12 89.3031 131.506 89.452 131.979C89.6746 132.558 90.021 133.081 90.467 133.512C90.9984 134.05 91.4967 134.619 91.9591 135.217C92.1768 135.475 92.3172 135.789 92.3639 136.123C92.4106 136.457 92.3617 136.798 92.223 137.105C91.6844 137.997 90.8348 138.659 89.8377 138.963C88.1898 139.65 86.4263 140.019 84.6409 140.049C82.7141 140.113 80.7908 139.842 78.9569 139.247L76.1251 140.495L72.8162 138.881L75.5567 137.704C75.0664 137.376 74.6254 136.979 74.2473 136.527C73.9654 136.204 73.7452 135.833 73.5977 135.43C73.5061 135.141 73.4516 134.841 73.4353 134.537C73.4018 134.332 73.4018 134.123 73.4353 133.918L73.5368 133.685H78.4393C78.3878 133.848 78.3472 134.014 78.3175 134.182C78.339 134.585 78.4765 134.972 78.7133 135.298C79.1068 135.909 79.6718 136.389 80.3373 136.679C81.2244 137.126 82.1968 137.379 83.1895 137.42C84.0867 137.479 84.9856 137.333 85.8183 136.993C86.495 136.703 86.7521 136.32 86.5897 135.847C86.3471 135.261 85.9759 134.737 85.5037 134.314C84.9624 133.783 84.4604 133.213 84.0015 132.609C83.7866 132.347 83.6521 132.028 83.6143 131.691C83.5764 131.354 83.6369 131.014 83.7883 130.711C84.3729 129.807 85.2569 129.139 86.2852 128.823C87.8671 128.172 89.5583 127.827 91.2689 127.808C93.0783 127.748 94.8827 128.031 96.5875 128.64L99.4701 127.463L102.515 129.137L99.6934 130.345C100.222 130.748 100.644 131.274 100.922 131.878Z" fill="#FFD200"/>
<path d="M87.3509 147.387C99.8067 147.387 109.904 141.47 109.904 134.172C109.904 126.873 99.8067 120.957 87.3509 120.957C74.8951 120.957 64.7976 126.873 64.7976 134.172C64.7976 141.47 74.8951 147.387 87.3509 147.387Z" stroke="#FFC543" stroke-width="2.03" stroke-miterlimit="10"/>
<path d="M95.3898 147.438C110.228 147.438 122.257 140.39 122.257 131.695C122.257 123.001 110.228 115.953 95.3898 115.953C80.5515 115.953 68.5227 123.001 68.5227 131.695C68.5227 140.39 80.5515 147.438 95.3898 147.438Z" fill="#FFD200"/>
<path d="M68.5327 131.695V127.148L71.4559 130.782L68.5327 131.695Z" fill="#FFD200"/>
<path d="M122.257 127.148V131.695H118.846L121.353 128.041L122.257 127.148Z" fill="#FFD200"/>
<path d="M95.3898 142.891C110.228 142.891 122.257 135.842 122.257 127.148C122.257 118.454 110.228 111.405 95.3898 111.405C80.5515 111.405 68.5227 118.454 68.5227 127.148C68.5227 135.842 80.5515 142.891 95.3898 142.891Z" fill="#FFC543"/>
<path d="M109.021 125.047C109.209 125.416 109.283 125.833 109.234 126.245L109.133 126.661H104.23C104.274 126.525 104.305 126.386 104.322 126.245C104.303 125.926 104.201 125.618 104.027 125.351C103.752 124.876 103.338 124.497 102.84 124.265C102.127 123.892 101.34 123.684 100.536 123.656C99.789 123.601 99.0395 123.716 98.3433 123.991C97.6666 124.289 97.4027 124.675 97.5516 125.148C97.7741 125.727 98.1206 126.25 98.5666 126.681C99.098 127.219 99.5963 127.788 100.059 128.386C100.276 128.644 100.417 128.958 100.463 129.292C100.51 129.626 100.461 129.967 100.323 130.274C99.7839 131.166 98.9344 131.828 97.9373 132.132C96.2894 132.819 94.5259 133.188 92.7405 133.218C90.8137 133.282 88.8903 133.011 87.0565 132.416L84.2449 133.715L80.936 132.101L83.6765 130.924C83.1862 130.596 82.7453 130.199 82.3672 129.746C82.0852 129.424 81.8651 129.052 81.7176 128.65C81.626 128.36 81.5714 128.06 81.5552 127.757C81.5217 127.552 81.5217 127.343 81.5552 127.138L81.6567 126.904H86.5591C86.5077 127.067 86.467 127.233 86.4373 127.402C86.4589 127.804 86.5964 128.192 86.8332 128.518C87.2267 129.128 87.7917 129.608 88.4572 129.899C89.3443 130.346 90.3167 130.598 91.3093 130.639C92.2066 130.698 93.1055 130.552 93.9382 130.213C94.6149 129.922 94.872 129.54 94.7096 129.066C94.4669 128.48 94.0958 127.957 93.6235 127.534C93.0823 127.002 92.5802 126.432 92.1213 125.828C91.9064 125.566 91.7719 125.248 91.7341 124.911C91.6963 124.574 91.7568 124.234 91.9082 123.93C92.4928 123.027 93.3768 122.359 94.4051 122.042C95.987 121.391 97.6782 121.047 99.3887 121.027C101.198 120.968 103.003 121.25 104.707 121.86L107.519 120.652L110.564 122.327L107.854 123.565C108.354 123.96 108.754 124.468 109.021 125.047Z" fill="#FFD200"/>
<path d="M95.4405 140.556C107.896 140.556 117.994 134.639 117.994 127.341C117.994 120.042 107.896 114.125 95.4405 114.125C82.9847 114.125 72.8872 120.042 72.8872 127.341C72.8872 134.639 82.9847 140.556 95.4405 140.556Z" stroke="#FFC543" stroke-width="2.03" stroke-miterlimit="10"/>
<path d="M197.641 271.633C210.887 271.633 221.625 265.344 221.625 257.586C221.625 249.827 210.887 243.538 197.641 243.538C184.394 243.538 173.656 249.827 173.656 257.586C173.656 265.344 184.394 271.633 197.641 271.633Z" fill="#FFD200"/>
<path d="M173.667 257.585V253.536L176.275 256.773L173.667 257.585Z" fill="#FFD200"/>
<path d="M221.625 253.536V257.585H218.58L220.813 254.337L221.625 253.536Z" fill="#FFD200"/>
<path d="M197.641 267.583C210.887 267.583 221.625 261.294 221.625 253.536C221.625 245.778 210.887 239.488 197.641 239.488C184.394 239.488 173.656 245.778 173.656 253.536C173.656 261.294 184.394 267.583 197.641 267.583Z" fill="#FFC543"/>
<path d="M209.811 251.658C209.969 251.972 210.035 252.323 210.003 252.673L209.912 253.049H205.537C205.576 252.926 205.604 252.801 205.619 252.673C205.602 252.387 205.511 252.111 205.355 251.871C205.128 251.437 204.774 251.083 204.34 250.856C203.711 250.529 203.018 250.345 202.31 250.318C201.642 250.271 200.972 250.375 200.351 250.623C199.735 250.887 199.498 251.225 199.64 251.638C199.847 252.158 200.166 252.626 200.574 253.008C201.048 253.488 201.492 253.997 201.904 254.531C202.098 254.761 202.223 255.041 202.264 255.339C202.305 255.637 202.261 255.941 202.137 256.215C201.655 257.011 200.896 257.6 200.006 257.87C198.538 258.499 196.964 258.844 195.367 258.885C193.647 258.941 191.929 258.697 190.292 258.164L187.775 259.25L184.73 257.921L187.176 256.906C186.738 256.625 186.341 256.283 185.999 255.891C185.744 255.592 185.547 255.247 185.42 254.876C185.336 254.619 185.285 254.353 185.268 254.084C185.239 253.902 185.239 253.717 185.268 253.536L185.359 253.323H189.805C189.761 253.469 189.727 253.618 189.703 253.769C189.72 254.135 189.843 254.488 190.059 254.784C190.41 255.331 190.915 255.762 191.51 256.023C192.303 256.422 193.171 256.647 194.058 256.682C194.858 256.736 195.659 256.608 196.402 256.307C197.011 256.043 197.238 255.705 197.083 255.292C196.853 254.764 196.506 254.295 196.068 253.922C195.585 253.447 195.137 252.938 194.728 252.399C194.538 252.164 194.419 251.879 194.387 251.578C194.354 251.278 194.409 250.974 194.545 250.704C195.066 249.896 195.858 249.299 196.778 249.019C198.195 248.448 199.707 248.152 201.234 248.146C202.85 248.092 204.461 248.344 205.984 248.887L208.501 247.811L211.252 249.303L208.735 250.389C209.188 250.722 209.557 251.157 209.811 251.658V251.658Z" fill="#FFD200"/>
<path d="M197.692 265.492C208.808 265.492 217.819 260.212 217.819 253.698C217.819 247.184 208.808 241.904 197.692 241.904C186.576 241.904 177.564 247.184 177.564 253.698C177.564 260.212 186.576 265.492 197.692 265.492Z" stroke="#FFC543" stroke-width="2.03" stroke-miterlimit="10"/>
<path d="M214.094 254.703C227.34 254.703 238.079 248.414 238.079 240.656C238.079 232.897 227.34 226.608 214.094 226.608C200.848 226.608 190.11 232.897 190.11 240.656C190.11 248.414 200.848 254.703 214.094 254.703Z" fill="#FFD200"/>
<path d="M190.11 240.655V236.605L192.728 239.843L190.11 240.655Z" fill="#FFD200"/>
<path d="M238.078 236.605V240.655H235.033L237.266 237.397L238.078 236.605Z" fill="#FFD200"/>
<path d="M214.094 250.653C227.34 250.653 238.079 244.364 238.079 236.606C238.079 228.847 227.34 222.558 214.094 222.558C200.848 222.558 190.11 228.847 190.11 236.606C190.11 244.364 200.848 250.653 214.094 250.653Z" fill="#FFC543"/>
<path d="M226.254 234.728C226.412 235.041 226.478 235.393 226.447 235.743L226.355 236.118H221.981C222.019 235.996 222.047 235.87 222.062 235.743C222.046 235.457 221.955 235.18 221.798 234.941C221.571 234.507 221.217 234.153 220.783 233.926C220.154 233.599 219.461 233.415 218.753 233.388C218.085 233.34 217.416 233.444 216.794 233.692C216.178 233.956 215.941 234.295 216.083 234.707C216.29 235.227 216.609 235.695 217.017 236.078C217.491 236.558 217.935 237.066 218.347 237.6C218.541 237.83 218.666 238.111 218.707 238.409C218.749 238.707 218.705 239.011 218.58 239.285C218.098 240.08 217.339 240.669 216.449 240.94C214.981 241.569 213.407 241.913 211.81 241.955C210.09 242.011 208.372 241.767 206.735 241.234L204.218 242.32L201.264 240.879L203.711 239.864C203.272 239.583 202.876 239.241 202.533 238.849C202.278 238.55 202.082 238.205 201.955 237.834C201.871 237.577 201.82 237.311 201.802 237.042C201.773 236.86 201.773 236.675 201.802 236.494L201.894 236.281H206.268C206.225 236.427 206.191 236.576 206.167 236.727C206.183 237.093 206.307 237.446 206.522 237.742C206.873 238.289 207.378 238.72 207.974 238.981C208.766 239.38 209.635 239.605 210.521 239.64C211.321 239.694 212.123 239.566 212.866 239.265C213.475 239.001 213.702 238.663 213.546 238.25C213.316 237.722 212.969 237.253 212.531 236.88C212.048 236.405 211.6 235.896 211.191 235.357C211.001 235.122 210.883 234.837 210.85 234.536C210.818 234.236 210.873 233.932 211.008 233.662C211.53 232.854 212.321 232.257 213.241 231.977C214.658 231.406 216.17 231.11 217.697 231.104C219.313 231.05 220.925 231.302 222.447 231.845L224.965 230.769L227.715 232.261L225.198 233.347C225.658 233.714 226.02 234.188 226.254 234.728V234.728Z" fill="#FFD200"/>
<path d="M214.135 248.562C225.251 248.562 234.262 243.282 234.262 236.768C234.262 230.254 225.251 224.974 214.135 224.974C203.018 224.974 194.007 230.254 194.007 236.768C194.007 243.282 203.018 248.562 214.135 248.562Z" stroke="#FFC543" stroke-width="2.03" stroke-miterlimit="10"/>
<path d="M185.938 256.561C199.184 256.561 209.922 250.271 209.922 242.513C209.922 234.755 199.184 228.465 185.938 228.465C172.692 228.465 161.953 234.755 161.953 242.513C161.953 250.271 172.692 256.561 185.938 256.561Z" fill="#FFD200"/>
<path d="M161.953 242.513V238.463L164.562 241.701L161.953 242.513Z" fill="#FFD200"/>
<path d="M209.912 238.463V242.513H206.877L209.1 239.265L209.912 238.463Z" fill="#FFD200"/>
<path d="M185.938 252.511C199.184 252.511 209.922 246.221 209.922 238.463C209.922 230.705 199.184 224.416 185.938 224.416C172.692 224.416 161.953 230.705 161.953 238.463C161.953 246.221 172.692 252.511 185.938 252.511Z" fill="#FFC543"/>
<path d="M198.097 236.585C198.255 236.899 198.322 237.251 198.29 237.6L198.199 237.976H193.824C193.863 237.853 193.89 237.728 193.905 237.6C193.889 237.314 193.798 237.038 193.642 236.798C193.415 236.364 193.061 236.01 192.627 235.783C191.998 235.456 191.305 235.272 190.597 235.245C189.929 235.198 189.259 235.302 188.638 235.55C188.022 235.814 187.785 236.152 187.927 236.565C188.134 237.085 188.453 237.553 188.861 237.935C189.335 238.415 189.779 238.924 190.191 239.458C190.385 239.688 190.51 239.968 190.551 240.266C190.592 240.565 190.548 240.868 190.424 241.143C189.942 241.938 189.183 242.527 188.293 242.797C186.825 243.426 185.251 243.771 183.654 243.812C181.933 243.868 180.216 243.624 178.579 243.091L176.062 244.177L173.108 242.736L175.554 241.721C175.116 241.44 174.72 241.098 174.377 240.706C174.122 240.407 173.925 240.063 173.798 239.691C173.715 239.435 173.663 239.169 173.646 238.899C173.617 238.718 173.617 238.533 173.646 238.351L173.737 238.138H178.112C178.069 238.285 178.035 238.434 178.011 238.585C178.027 238.951 178.15 239.304 178.366 239.6C178.717 240.147 179.222 240.578 179.817 240.838C180.61 241.237 181.478 241.462 182.365 241.498C183.165 241.552 183.967 241.423 184.71 241.122C185.319 240.858 185.545 240.52 185.39 240.107C185.16 239.579 184.813 239.111 184.375 238.737C183.892 238.263 183.444 237.754 183.035 237.215C182.845 236.979 182.726 236.694 182.694 236.394C182.662 236.093 182.716 235.79 182.852 235.519C183.373 234.711 184.165 234.114 185.085 233.835C186.502 233.264 188.014 232.968 189.541 232.962C191.157 232.908 192.769 233.159 194.291 233.703L196.808 232.627L199.559 234.119L197.052 235.215C197.507 235.58 197.866 236.05 198.097 236.585V236.585Z" fill="#FFD200"/>
<path d="M185.979 250.42C197.095 250.42 206.106 245.139 206.106 238.625C206.106 232.112 197.095 226.831 185.979 226.831C174.862 226.831 165.851 232.112 165.851 238.625C165.851 245.139 174.862 250.42 185.979 250.42Z" stroke="#FFC543" stroke-width="2.03" stroke-miterlimit="10"/>
<path d="M234.272 268.588C247.518 268.588 258.257 262.299 258.257 254.541C258.257 246.782 247.518 240.493 234.272 240.493C221.026 240.493 210.288 246.782 210.288 254.541C210.288 262.299 221.026 268.588 234.272 268.588Z" fill="#FFD200"/>
<path d="M210.288 254.541V250.481L212.896 253.719L210.288 254.541Z" fill="#FFD200"/>
<path d="M258.246 250.481V254.541H255.201L257.434 251.283L258.246 250.481Z" fill="#FFD200"/>
<path d="M234.272 264.528C247.518 264.528 258.257 258.239 258.257 250.481C258.257 242.722 247.518 236.433 234.272 236.433C221.026 236.433 210.288 242.722 210.288 250.481C210.288 258.239 221.026 264.528 234.272 264.528Z" fill="#FFC543"/>
<path d="M246.432 248.603C246.59 248.916 246.657 249.268 246.625 249.618L246.533 249.993H242.159C242.198 249.871 242.225 249.745 242.24 249.618C242.224 249.332 242.133 249.056 241.976 248.816C241.749 248.382 241.395 248.028 240.961 247.801C240.332 247.474 239.639 247.29 238.931 247.263C238.263 247.215 237.594 247.32 236.972 247.568C236.356 247.831 236.119 248.17 236.262 248.583C236.468 249.103 236.787 249.57 237.195 249.953C237.669 250.433 238.113 250.941 238.525 251.475C238.719 251.705 238.844 251.986 238.885 252.284C238.927 252.582 238.883 252.886 238.758 253.16C238.276 253.955 237.517 254.545 236.627 254.815C235.159 255.444 233.585 255.788 231.988 255.83C230.268 255.886 228.55 255.642 226.913 255.109L224.315 256.297L221.361 254.855L223.807 253.84C223.369 253.559 222.973 253.217 222.63 252.825C222.375 252.526 222.179 252.182 222.052 251.81C221.968 251.554 221.917 251.288 221.899 251.019C221.87 250.837 221.87 250.652 221.899 250.47L221.991 250.257H226.365C226.322 250.404 226.288 250.553 226.264 250.704C226.28 251.07 226.404 251.423 226.619 251.719C226.97 252.266 227.475 252.697 228.07 252.957C228.863 253.356 229.732 253.581 230.618 253.617C231.418 253.671 232.22 253.542 232.963 253.241C233.572 252.977 233.798 252.639 233.643 252.226C233.413 251.698 233.066 251.23 232.628 250.856C232.145 250.382 231.697 249.873 231.288 249.334C231.098 249.099 230.98 248.814 230.947 248.513C230.915 248.212 230.97 247.909 231.105 247.639C231.627 246.83 232.418 246.233 233.338 245.954C234.755 245.383 236.267 245.087 237.794 245.081C239.41 245.027 241.022 245.278 242.544 245.822L245.062 244.746L247.812 246.238L245.295 247.324C245.772 247.652 246.162 248.091 246.432 248.603V248.603Z" fill="#FFD200"/>
<path d="M234.313 262.447C245.429 262.447 254.44 257.167 254.44 250.653C254.44 244.139 245.429 238.859 234.313 238.859C223.197 238.859 214.185 244.139 214.185 250.653C214.185 257.167 223.197 262.447 234.313 262.447Z" stroke="#FFC543" stroke-width="2.03" stroke-miterlimit="10"/>
<path d="M221.625 259.616C234.872 259.616 245.61 253.326 245.61 245.568C245.61 237.81 234.872 231.521 221.625 231.521C208.379 231.521 197.641 237.81 197.641 245.568C197.641 253.326 208.379 259.616 221.625 259.616Z" fill="#FFD200"/>
<path d="M197.641 245.568V241.508L200.26 244.756L197.641 245.568Z" fill="#FFD200"/>
<path d="M245.61 241.508V245.568H242.565L244.798 242.31L245.61 241.508Z" fill="#FFD200"/>
<path d="M221.625 255.556C234.872 255.556 245.61 249.266 245.61 241.508C245.61 233.75 234.872 227.46 221.625 227.46C208.379 227.46 197.641 233.75 197.641 241.508C197.641 249.266 208.379 255.556 221.625 255.556Z" fill="#FFC543"/>
<path d="M233.785 239.63C233.943 239.944 234.01 240.296 233.978 240.645L233.886 241.021H229.512C229.551 240.899 229.578 240.773 229.593 240.645C229.577 240.36 229.486 240.083 229.329 239.844C229.102 239.409 228.748 239.055 228.314 238.829C227.686 238.501 226.992 238.318 226.284 238.291C225.617 238.243 224.947 238.347 224.325 238.595C223.709 238.859 223.473 239.197 223.615 239.61C223.821 240.13 224.14 240.598 224.548 240.98C225.022 241.46 225.466 241.969 225.878 242.503C226.072 242.733 226.197 243.013 226.238 243.312C226.28 243.61 226.236 243.914 226.112 244.188C225.629 244.983 224.87 245.572 223.98 245.842C222.512 246.472 220.938 246.816 219.342 246.857C217.621 246.913 215.904 246.669 214.267 246.137L211.749 247.223L208.796 245.781L211.242 244.766C210.803 244.485 210.407 244.143 210.064 243.751C209.809 243.452 209.613 243.108 209.486 242.736C209.402 242.48 209.351 242.214 209.334 241.945C209.304 241.763 209.304 241.578 209.334 241.396L209.425 241.183H213.8C213.756 241.33 213.722 241.479 213.698 241.63C213.714 241.996 213.838 242.349 214.053 242.645C214.404 243.192 214.909 243.623 215.505 243.883C216.297 244.282 217.166 244.507 218.052 244.543C218.852 244.597 219.654 244.468 220.397 244.167C221.006 243.904 221.233 243.565 221.077 243.152C220.847 242.624 220.5 242.156 220.062 241.782C219.579 241.308 219.132 240.799 218.722 240.26C218.532 240.025 218.414 239.74 218.381 239.439C218.349 239.138 218.404 238.835 218.54 238.565C219.061 237.756 219.852 237.159 220.773 236.88C222.189 236.309 223.701 236.013 225.228 236.007C226.844 235.953 228.456 236.204 229.979 236.748L232.496 235.672L235.247 237.164L232.75 238.26C233.201 238.626 233.556 239.096 233.785 239.63V239.63Z" fill="#FFD200"/>
<path d="M221.666 253.475C232.782 253.475 241.793 248.194 241.793 241.681C241.793 235.167 232.782 229.886 221.666 229.886C210.55 229.886 201.538 235.167 201.538 241.681C201.538 248.194 210.55 253.475 221.666 253.475Z" stroke="#FFC543" stroke-width="2.03" stroke-miterlimit="10"/>
<path d="M167.475 222.619C167.475 222.619 167.972 230.333 161.974 230.81C161.974 230.81 167.049 232.921 167.901 236.961C167.901 236.961 168.531 231.317 173.687 230.739C171.861 230.334 170.236 229.298 169.099 227.812C167.963 226.327 167.388 224.487 167.475 222.619V222.619Z" fill="white"/>
<path d="M146.414 101.824C146.414 101.824 149.246 96.4441 153.245 98.4436C157.244 100.443 159.68 103.945 165.07 101.824C170.459 99.7022 173.788 88.5677 177.392 90.2221C180.995 91.8766 183.177 94.7896 181.533 100.372C179.889 105.955 180.619 107.284 182.984 108.005C185.349 108.726 176.783 117.14 170.063 115.272C163.344 113.405 146.414 101.824 146.414 101.824Z" fill="#5BC0BE"/>
<path d="M152.524 119.211C152.524 119.211 134.944 137.998 138.832 157.882C142.719 177.766 188.1 179.431 194.657 164.084C201.214 148.737 195.042 127.655 185.085 120.327C185.085 120.327 193.307 111.598 189.917 105.691C186.527 99.7835 181.025 110.654 178.062 109.101C175.098 107.548 184.507 89.735 174.225 89.0448C163.943 88.3546 166.622 107.315 162.248 106.391C157.873 105.467 149.966 96.505 146.444 101.813C142.922 107.122 154.96 113.364 152.524 119.211Z" fill="#5BC0BE"/>
<path opacity="0.13" d="M185.055 120.449C185.055 120.449 193.276 111.72 189.886 105.813C189.023 104.31 188.029 103.904 186.963 104.087C189.521 108.584 184.72 113.415 181.452 116.724C180.173 118.023 178.305 119.353 177.392 120.916C174.61 125.473 177.584 129.036 180.437 132.578C183.538 136.242 185.772 140.558 186.973 145.205C190.17 158.4 183.796 169.666 173.494 174.356C183.319 173.706 192.058 170.296 194.657 164.206C201.163 148.869 195.012 127.777 185.055 120.449Z" fill="#124577"/>
<path d="M183.035 116.998C173.444 118.988 163.486 118.225 154.311 114.795C151.022 113.598 149.601 118.855 152.869 120.033C162.989 123.722 173.943 124.485 184.476 122.235C187.897 121.535 186.445 116.298 183.035 116.998Z" fill="#FFD200"/>
<path d="M180.213 148.301C179.564 145.256 176.549 143.845 173.697 143.561C173.241 143.528 172.783 143.528 172.327 143.561C172.327 140.658 172.327 137.745 172.327 134.842C173.017 134.915 173.697 135.061 174.357 135.278C175.605 135.694 176.306 133.776 175.057 133.36C174.157 133.098 173.223 132.975 172.286 132.994C172.286 131.918 172.286 130.853 172.286 129.777C172.286 128.467 170.256 128.295 170.256 129.614C170.256 130.772 170.256 131.939 170.256 133.096C169.607 133.167 168.947 133.279 168.287 133.421C168.287 132.406 168.287 131.391 168.287 130.376C168.287 129.066 166.257 128.894 166.257 130.213C166.257 131.533 166.257 132.741 166.257 134.009C161.598 135.512 157.782 138.689 160.898 143.063C161.521 143.921 162.342 144.615 163.291 145.087C164.24 145.559 165.289 145.794 166.348 145.773C166.348 148.818 166.348 151.792 166.348 154.807C164.927 154.685 163.517 154.502 162.167 154.299C160.817 154.096 160.705 156.147 162.004 156.329C163.111 156.492 164.643 156.664 166.348 156.735C166.348 158.136 166.348 159.526 166.348 160.927C166.348 162.328 168.378 162.409 168.378 161.09C168.378 159.77 168.378 158.217 168.378 156.776C169.089 156.776 169.799 156.776 170.52 156.695C170.52 158.786 170.591 160.887 170.652 162.988C170.652 164.287 172.682 164.47 172.682 163.15C172.621 160.927 172.591 158.704 172.55 156.481C177.29 155.741 181.34 153.639 180.213 148.301ZM165.141 143.286C162.035 142.908 161.862 140.749 164.623 136.811C165.149 136.499 165.695 136.221 166.257 135.978C166.257 138.557 166.308 141.125 166.328 143.703C165.916 143.616 165.517 143.476 165.141 143.286V143.286ZM168.277 135.166C168.917 134.978 169.572 134.849 170.236 134.781C170.236 137.745 170.236 140.719 170.236 143.682C169.586 143.753 168.937 143.814 168.307 143.835C168.348 140.972 168.318 138.08 168.287 135.187L168.277 135.166ZM168.368 154.817C168.368 151.772 168.368 148.727 168.368 145.682L170.297 145.58C170.297 148.625 170.408 151.67 170.479 154.786C169.789 154.847 169.079 154.857 168.378 154.837L168.368 154.817ZM172.499 154.543C172.438 151.498 172.367 148.554 172.327 145.56C172.55 145.56 172.773 145.56 172.987 145.56C176.082 145.783 177.534 146.382 177.412 149.62C177.29 152.858 175.595 154.015 172.55 154.563L172.499 154.543Z" fill="#FFD200"/>
<path d="M192.282 86.7307C192.282 86.7307 196.981 77.819 203.609 81.1279C210.237 84.4368 214.287 90.2629 223.199 86.7307C232.11 83.1985 237.662 64.7559 243.6 67.5066C249.538 70.2572 253.182 75.0683 250.472 84.4165C247.762 93.7646 248.969 95.8657 252.887 97.0735C256.805 98.2814 242.605 112.146 231.471 109.132C220.336 106.117 192.282 86.7307 192.282 86.7307Z" fill="#5BC0BE"/>
<path d="M202.401 115.557C202.401 115.557 173.261 146.697 179.655 179.664C186.05 212.631 261.332 215.382 272.162 189.956C282.992 164.53 272.802 129.564 256.288 117.414C256.288 117.414 269.909 102.94 264.296 93.1556C258.683 83.371 249.558 101.387 244.646 98.8193C239.733 96.2514 255.384 66.725 238.342 65.5578C221.301 64.3905 225.746 95.9063 218.489 94.3127C211.232 92.7192 198.128 77.89 192.282 86.7307C186.435 95.5713 206.441 105.853 202.401 115.557Z" fill="#5BC0BE"/>
<path opacity="0.13" d="M256.338 117.607C256.338 117.607 269.96 103.133 264.347 93.3484C262.915 90.8617 261.302 90.1816 259.505 90.4963C263.748 97.9464 255.78 105.955 250.37 111.436C248.249 113.588 245.143 115.8 243.57 118.388C238.951 125.94 243.884 131.878 248.645 137.673C253.787 143.746 257.492 150.9 259.485 158.603C264.793 180.537 254.217 199.142 237.155 206.927C253.395 205.851 267.93 200.218 272.233 190.108C283.043 164.723 272.842 129.767 256.338 117.607Z" fill="#124577"/>
<path d="M252.979 111.892C237.08 115.19 220.574 113.923 205.365 108.238C199.914 106.208 197.56 114.958 202.97 116.927C219.748 123.044 237.909 124.31 255.374 120.581C261.048 119.403 258.642 110.725 252.979 111.892Z" fill="#FFD200"/>
<path d="M248.31 163.779C247.234 158.704 242.22 156.39 237.51 155.923C236.756 155.869 236 155.869 235.246 155.923C235.246 151.102 235.186 146.281 235.175 141.459C236.338 141.577 237.485 141.818 238.596 142.18C240.626 142.87 241.824 139.683 239.753 138.993C238.26 138.561 236.709 138.359 235.155 138.394C235.155 136.618 235.155 134.842 235.155 133.065C235.155 130.893 231.785 130.609 231.775 132.791C231.775 134.72 231.775 136.638 231.775 138.567C230.709 138.689 229.613 138.871 228.507 139.105C228.507 137.399 228.507 135.684 228.507 133.979C228.507 131.817 225.096 131.523 225.127 133.705C225.157 135.887 225.127 137.897 225.178 139.998C217.454 142.495 211.13 147.752 216.307 155.02C218.682 158.359 221.889 159.334 225.35 159.516C225.35 164.51 225.35 169.504 225.35 174.488C222.995 174.285 220.651 173.99 218.408 173.655C216.164 173.32 215.992 176.7 218.134 177.035C219.961 177.309 222.508 177.583 225.34 177.715C225.34 180.029 225.34 182.344 225.34 184.658C225.34 186.972 228.71 187.114 228.72 184.932C228.72 182.547 228.72 180.172 228.72 177.827C229.887 177.827 231.085 177.827 232.273 177.695C232.354 181.166 232.384 184.648 232.486 188.119C232.547 190.281 235.927 190.575 235.866 188.393C235.764 184.709 235.724 181.024 235.642 177.34C243.468 176.112 250.177 172.62 248.31 163.779ZM223.3 155.466C218.15 154.83 217.863 151.254 222.437 144.738C223.31 144.217 224.215 143.753 225.147 143.347C225.147 147.61 225.239 151.884 225.259 156.147C224.58 156.004 223.921 155.776 223.3 155.466ZM228.507 142.048C229.571 141.739 230.662 141.528 231.765 141.419C231.765 146.342 231.765 151.254 231.836 156.177C230.76 156.289 229.684 156.4 228.629 156.431C228.629 151.64 228.588 146.839 228.537 142.048H228.507ZM228.659 174.62C228.659 169.545 228.659 164.47 228.659 159.466C229.674 159.466 230.791 159.354 231.856 159.293C231.917 164.368 232.049 169.443 232.151 174.518C231.024 174.63 229.857 174.65 228.69 174.62H228.659ZM235.51 174.163C235.409 169.199 235.287 164.236 235.226 159.263C235.592 159.263 235.967 159.263 236.322 159.263C241.458 159.638 243.864 160.633 243.661 165.992C243.458 171.351 240.687 173.199 235.541 174.163H235.51Z" fill="#FFD200"/>
<path d="M115.974 111.964C115.974 111.964 116.583 121.302 109.315 121.87C109.315 121.87 115.466 124.418 116.481 129.31C116.481 129.31 117.243 122.489 123.485 121.789C121.276 121.299 119.311 120.044 117.937 118.246C116.563 116.449 115.867 114.224 115.974 111.964Z" fill="white"/>
<path d="M308.773 163.79C308.773 163.79 309.382 173.128 302.115 173.696C302.115 173.696 308.266 176.244 309.281 181.136C309.281 181.136 310.042 174.315 316.284 173.615C314.075 173.125 312.11 171.87 310.736 170.072C309.362 168.275 308.667 166.05 308.773 163.79V163.79Z" fill="white"/>
<defs>
<linearGradient id="paint0_linear" x1="353.078" y1="216.174" x2="340.137" y2="198.401" gradientUnits="userSpaceOnUse">
<stop stop-color="white" stop-opacity="0"/>
<stop offset="0.99" stop-color="#60CCCA"/>
</linearGradient>
<linearGradient id="paint1_linear" x1="8615.56" y1="13587" x2="7197.14" y2="11155.5" gradientUnits="userSpaceOnUse">
<stop stop-color="white" stop-opacity="0"/>
<stop offset="0.99" stop-color="#808080"/>
<stop offset="0.9901" stop-color="#60CCCA"/>
</linearGradient>
<linearGradient id="paint2_linear" x1="17225.3" y1="19926.2" x2="11323.7" y2="10820.8" gradientUnits="userSpaceOnUse">
<stop stop-color="white" stop-opacity="0"/>
<stop offset="0.99" stop-color="#60CCCA"/>
</linearGradient>
<linearGradient id="paint3_linear" x1="-1125.66" y1="12961.4" x2="-3665.94" y2="9045.09" gradientUnits="userSpaceOnUse">
<stop stop-color="white" stop-opacity="0"/>
<stop offset="0.99" stop-color="#60CCCA"/>
</linearGradient>
</defs>
</svg>
