<svg width="406" height="306" viewBox="0 0 406 306" fill="none" xmlns="http://www.w3.org/2000/svg">
<path d="M199.64 284.717L351.089 195.204C355.91 192.494 360.051 188.099 355.341 185.135L203.355 97.5404C201.072 96.1296 197.61 95.2059 195.296 96.5254L36.3066 188.819C31.4853 191.621 30.6226 199.436 35.4438 202.238L179.655 284.574C182.686 286.335 186.124 287.275 189.629 287.3C193.134 287.325 196.585 286.434 199.64 284.717V284.717Z" fill="#FFB3A6"/>
<path opacity="0.32" d="M323.481 196.574L292.147 215.341L275.847 202.491L303.911 185.216" fill="url(#paint0_linear)"/>
<path opacity="0.32" d="M196.342 269.096L179.056 281.418L86.0212 225.867L103.723 214.966" fill="url(#paint1_linear)"/>
<path d="M96.1307 219.99L129.413 201.111C129.705 200.945 130.035 200.857 130.372 200.857C130.708 200.857 131.039 200.945 131.331 201.111L219.362 251.455C219.653 251.622 219.896 251.861 220.067 252.15C220.238 252.439 220.331 252.767 220.337 253.102C220.344 253.438 220.263 253.769 220.102 254.064C219.942 254.359 219.708 254.607 219.423 254.784L187.054 274.912C186.749 275.099 186.398 275.199 186.039 275.199C185.681 275.199 185.33 275.099 185.024 274.912L96.1205 223.309C95.8353 223.136 95.5996 222.891 95.4365 222.6C95.2733 222.309 95.1881 221.98 95.1891 221.647C95.1901 221.313 95.2773 220.985 95.4423 220.695C95.6072 220.404 95.8444 220.162 96.1307 219.99V219.99Z" fill="#E2E2E2"/>
<path d="M220.336 253.17V251.526L219.149 252.856L220.336 253.17Z" fill="#E2E2E2"/>
<path d="M95.1461 221.512C95.1461 221.401 95.1461 220.274 95.1461 220.274L96.3235 221.512H95.1461Z" fill="#E2E2E2"/>
<path opacity="0.32" d="M85.9503 202.41L67.3149 213.778L49.2073 202.958L66.9089 192.067" fill="url(#paint2_linear)"/>
<path d="M231.928 76.875C231.029 76.6144 230.226 76.0987 229.616 75.3907C229.005 74.6826 228.613 73.8126 228.487 72.886C228.091 69.6685 230.801 65.4968 237.703 65.8927C244.605 66.2885 257.171 71.3127 251.07 102.341C251.07 102.341 236.099 95.5916 230.375 89.8974C230.405 89.9177 230.182 79.6967 231.928 76.875Z" fill="#4E2200"/>
<path opacity="0.32" d="M275.227 181.461L195.205 230.252L117.456 183.836L193.479 137.034" fill="url(#paint3_linear)"/>
<path d="M244.016 156.197V192.392H246.696L247.274 155.263" fill="#808080"/>
<path d="M259.251 142.271L264.621 181.633H261.931L256.328 143.733" fill="#808080"/>
<path d="M208.887 164.388C208.887 164.388 206.593 171.899 206.086 172.661C205.578 173.422 198.067 178.385 198.199 179.918C198.331 181.45 201.163 182.08 202.919 181.948C204.675 181.816 214.865 177.573 215.495 176.325C216.124 175.076 216.134 164.388 216.134 164.388H208.887Z" fill="#5C2D1D"/>
<path d="M220.955 173.168C220.955 173.168 218.662 180.679 218.154 181.44C217.647 182.201 210.136 187.165 210.267 188.697C210.399 190.23 213.231 190.859 214.987 190.727C216.743 190.596 226.934 186.353 227.563 185.104C228.192 183.856 228.203 173.168 228.203 173.168H220.955Z" fill="#5C2D1D"/>
<path d="M260.713 104.859C260.002 106.889 255.993 137.034 255.993 137.034L251.933 135.684L257.191 104.696" fill="#808080"/>
<path d="M259.251 142.271L259.333 137.41L255.019 138.881L256.328 143.733" fill="#A9CBF8"/>
<path d="M249.528 134.73C249.528 134.73 260.337 138.881 259.251 142.962C258.165 147.042 249.538 157.04 244.026 156.157C238.515 155.274 231.755 150.483 231.755 150.483" fill="#4A42A4"/>
<path d="M249.528 129.777C249.528 129.777 260.337 133.928 259.251 138.008C258.165 142.089 249.538 152.086 244.026 151.203C238.515 150.32 231.755 145.53 231.755 145.53" fill="#479896"/>
<path d="M253.801 91.8665C253.801 91.8665 264.245 94.475 265.301 100.484C266.356 106.493 266.661 117.576 251.842 113.273C237.023 108.969 244.016 97.8347 244.016 97.8347" fill="#479896"/>
<path d="M240.728 104.696C240.728 104.696 244.108 118.906 241.6 126.509C239.093 134.111 224.843 140.201 224.843 140.201L218.834 170.773C216.37 171.474 213.792 171.68 211.249 171.379C208.705 171.077 206.246 170.274 204.015 169.017C204.015 169.017 205.68 142.038 208.207 135.187C210.734 128.336 230.334 114.887 230.334 114.887" fill="#5C2D1D"/>
<path d="M241.306 122.763C241.306 122.763 221.706 136.212 219.179 143.063C216.652 149.914 214.987 176.893 214.987 176.893C217.22 178.152 219.68 178.956 222.226 179.257C224.771 179.558 227.351 179.352 229.816 178.649L235.825 148.077C235.825 148.077 245.975 145.164 248.523 137.562C251.07 129.96 249.995 118.409 249.995 118.409" fill="#5C2D1D"/>
<path d="M251.953 90.0091C247.274 84.254 237.408 84.9341 237.408 84.9341C237.408 84.9341 231.674 81.5034 226.883 85.5634C225.431 86.7915 224.965 90.2527 224.985 94.6984C225.258 96.4302 225.81 98.1063 226.619 99.6617C227.918 102.209 229.309 104.635 229.715 107.508C230.212 110.999 229.715 114.186 227.228 116.643C233.369 122.174 240.24 126.204 249 124.621C252.633 115.831 254.207 92.7902 251.953 90.0091Z" fill="#FFE9C7"/>
<path d="M235.044 125.473C231.511 128.995 227.736 132.385 224.457 136.141C221.605 139.399 220.488 143.54 219.382 147.641C216.804 157.192 215.657 167.048 214.51 176.842C214.439 177.441 215.373 177.431 215.444 176.842C216.54 167.413 217.657 157.943 220.052 148.737C221.229 144.22 222.407 139.734 225.634 136.222C228.862 132.71 232.344 129.482 235.703 126.133C235.785 126.044 235.829 125.928 235.827 125.807C235.824 125.686 235.775 125.572 235.69 125.486C235.605 125.401 235.49 125.352 235.369 125.35C235.249 125.347 235.132 125.392 235.044 125.473V125.473Z" fill="#5C2D1D"/>
<path d="M231.319 120.753C232.191 114.998 233.491 109.274 233.48 103.437C233.48 96.8196 231.694 90.2424 233.288 83.6652C232.144 83.519 230.982 83.6142 229.877 83.9446C228.772 84.275 227.749 84.8333 226.873 85.5836C225.421 86.8117 224.954 90.2729 224.975 94.7186C225.248 96.4504 225.8 98.1266 226.609 99.6819C227.908 102.23 229.299 104.655 229.705 107.528C230.202 111.019 229.705 114.207 227.218 116.663C228.568 117.942 229.877 119.779 231.319 120.753Z" fill="#FFD200"/>
<path d="M251.954 90.009C250.115 87.9126 247.672 86.4374 244.96 85.7866C244.037 93.186 243.57 100.626 242.829 108.035C242.27 113.628 242.078 119.271 241.57 124.874C244.04 125.219 246.549 125.161 249 124.702C252.634 115.831 254.207 92.7901 251.954 90.009Z" fill="#FFD200"/>
<path d="M275.867 152.797L277.897 151.701L186.618 99.4486L127.271 133.106L128.073 133.573V177.999C128.089 178.105 128.142 178.201 128.223 178.271C128.304 178.341 128.407 178.379 128.514 178.379C128.621 178.379 128.724 178.341 128.805 178.271C128.886 178.201 128.94 178.105 128.956 177.999V134.091L216.723 185.368L216.936 185.247V217.239C216.952 217.345 217.005 217.441 217.086 217.511C217.167 217.581 217.271 217.619 217.377 217.619C217.484 217.619 217.588 217.581 217.669 217.511C217.75 217.441 217.803 217.345 217.819 217.239V184.759L275.227 153.142V181.42C275.243 181.526 275.297 181.622 275.378 181.692C275.459 181.761 275.562 181.799 275.669 181.799C275.776 181.799 275.879 181.761 275.96 181.692C276.041 181.622 276.094 181.526 276.11 181.42V153.183C276.115 153.101 276.093 153.02 276.05 152.951C276.006 152.882 275.942 152.828 275.867 152.797V152.797Z" fill="#5BC0BE"/>
<path opacity="0.15" d="M275.867 152.797L277.897 151.701L186.618 99.4486L127.271 133.106L128.073 133.573V177.999C128.089 178.105 128.142 178.201 128.223 178.271C128.304 178.341 128.407 178.379 128.514 178.379C128.621 178.379 128.724 178.341 128.805 178.271C128.886 178.201 128.94 178.105 128.956 177.999V134.091L216.723 185.368L216.936 185.247V217.239C216.952 217.345 217.005 217.441 217.086 217.511C217.167 217.581 217.271 217.619 217.377 217.619C217.484 217.619 217.588 217.581 217.669 217.511C217.75 217.441 217.803 217.345 217.819 217.239V184.759L275.227 153.142V181.42C275.243 181.526 275.297 181.622 275.378 181.692C275.459 181.761 275.562 181.799 275.669 181.799C275.776 181.799 275.879 181.761 275.96 181.692C276.041 181.622 276.094 181.526 276.11 181.42V153.183C276.115 153.101 276.093 153.02 276.05 152.951C276.006 152.882 275.942 152.828 275.867 152.797V152.797Z" fill="black"/>
<path opacity="0.32" d="M184.334 131.462L155.671 147.428C160.461 150.473 179.736 160.826 184.365 164.084L213.992 145.124L209.09 133.268L184.334 131.462Z" fill="url(#paint4_linear)"/>
<path d="M212.612 145.905L233.481 133.745L206.289 118.104L184.964 129.087" fill="#B3B3B3"/>
<path d="M207.212 121.911C207.212 121.911 212.693 146.2 212.612 145.905C212.531 145.611 185.583 131.127 185.4 130.609C185.217 130.091 178.295 105.447 178.295 105.447L207.212 121.911Z" fill="white"/>
<path d="M201.011 118.378L213.109 108.979L218.245 113.293L206.837 121.697L201.011 118.378Z" fill="#FFE0CE"/>
<path d="M226.345 86.2739C226.345 86.2739 212.876 107.376 209.841 110.005C209.342 110.409 208.812 110.776 208.258 111.101C210.642 113.233 212.695 115.71 214.348 118.449C215.731 117.364 217.027 116.173 218.225 114.887C220.803 111.842 228.517 101.367 228.517 101.367L226.345 86.2739Z" fill="#FFD200"/>
<path d="M236.241 81.8688C236.241 83.7669 236.241 85.6649 236.191 87.563C236.536 88.4359 237.013 89.0347 237.703 88.9637C239.966 88.7201 242.656 85.3401 242.656 85.3401L243.306 78.022L236.241 81.8688Z" fill="#F9C7AF"/>
<path d="M231.501 73.8299C231.785 75.0276 232.283 85.949 237.409 84.9949C242.534 84.0408 243.306 78.0523 243.306 78.0523C243.306 78.0523 239.743 77.0373 239.743 75.2814C239.743 70.3891 230.649 70.2368 231.501 73.8299Z" fill="#FFE0CE"/>
<path d="M227.989 102.412L227.259 91.3082L223.909 107.376L227.989 102.412Z" fill="#895851"/>
<path d="M228.314 127.757C226.333 128.689 224.424 129.764 222.6 130.974C221.236 131.717 220.102 132.82 219.321 134.162C219.098 134.649 218.144 136.445 218.641 136.953C219.139 137.46 220.255 136.953 220.255 136.953C220.255 136.953 220.194 137.968 220.549 138.222C220.905 138.475 221.981 137.623 221.981 137.623C221.981 137.623 222.468 138.881 223.148 138.577C223.828 138.272 225.036 136.486 225.036 136.486C225.036 136.486 224.904 137.866 225.503 137.866C226.101 137.866 228.639 134.365 228.639 134.365L239.956 127.32C239.956 127.32 239.195 123.88 239.033 123.727C238.292 123.047 239.317 122.997 238.363 122.631C238.007 122.499 237.094 123.118 236.8 123.26C235.785 123.788 234.699 124.346 233.663 124.915C231.948 125.839 230.304 126.772 228.588 127.625L228.314 127.757Z" fill="#FFE0CE"/>
<path d="M227.36 132.294C226.146 133.606 225.235 135.169 224.691 136.872C224.62 137.085 224.955 137.176 225.026 136.963C225.554 135.316 226.438 133.805 227.614 132.538C227.786 132.375 227.543 132.132 227.36 132.294Z" fill="#5C2D1D"/>
<path d="M225.817 131.249C223.87 133.008 222.492 135.309 221.859 137.856C221.847 137.901 221.853 137.948 221.876 137.988C221.898 138.028 221.936 138.057 221.981 138.069C222.025 138.081 222.072 138.075 222.112 138.053C222.152 138.03 222.182 137.992 222.194 137.948C222.815 135.458 224.165 133.21 226.071 131.492C226.223 131.34 225.98 131.096 225.817 131.249Z" fill="#5C2D1D"/>
<path d="M224.224 130.883C222.314 132.521 220.886 134.647 220.093 137.034C220.022 137.247 220.356 137.328 220.428 137.125C221.211 134.794 222.614 132.72 224.488 131.127C224.63 130.985 224.386 130.741 224.224 130.883Z" fill="#5C2D1D"/>
<path d="M238.434 119.048C238.281 119.698 235.318 121.657 232.232 123.545C235.555 124.95 238.29 127.46 239.976 130.65C243.509 128.833 247.082 126.772 248.452 125.331C251.334 122.185 252.288 109.01 252.288 109.01L238.434 119.048Z" fill="#FFD200"/>
<path d="M230.912 74.7434C230.912 74.7434 234.455 76.5806 241.834 75.2611C241.834 75.2611 240.393 69.5974 234.516 69.0899C228.639 68.5824 230.912 74.7434 230.912 74.7434Z" fill="#4E2200"/>
<path d="M298.187 187.246V191.154H326.861V187.246" fill="#002A40"/>
<path d="M312.529 199.558C320.444 199.558 326.86 195.795 326.86 191.154C326.86 186.512 320.444 182.75 312.529 182.75C304.613 182.75 298.197 186.512 298.197 191.154C298.197 195.795 304.613 199.558 312.529 199.558Z" fill="#002A40"/>
<path d="M312.529 195.65C320.444 195.65 326.86 191.888 326.86 187.246C326.86 182.604 320.444 178.842 312.529 178.842C304.613 178.842 298.197 182.604 298.197 187.246C298.197 191.888 304.613 195.65 312.529 195.65Z" fill="#434F54"/>
<path d="M315.492 188.657V107.558H309.575V188.362C310.476 188.853 311.476 189.135 312.5 189.186C313.525 189.237 314.547 189.056 315.492 188.657Z" fill="#002A40"/>
<path d="M295.933 131.634C295.933 131.634 310.458 143.134 319.898 143.814C329.337 144.494 331.134 140.881 330.809 135.999C330.484 131.117 328.2 126.864 325.439 123.301C322.679 119.738 320.882 114.674 327.063 105.234C333.245 95.7945 337.477 92.2116 333.58 85.5329C329.682 78.8542 313.391 70.724 308.022 73.4848C302.653 76.2456 306.398 78.6918 303.302 82.6198C300.207 86.5479 296.624 89.735 301.455 95.1449C306.286 100.555 295.284 111.933 295.933 131.634Z" fill="#002A40"/>
<path d="M325.642 78.3569C324.643 74.3 324.643 70.0612 325.642 66.0043C327.327 59.4576 318.081 62.8274 313.97 66.0043C309.859 69.1813 314.63 72.2466 312.843 78.3569" fill="#002A40"/>
<path d="M313.026 72.683C308.682 76.1746 305.748 82.7518 303.779 87.1163C298.796 98.1899 297.395 110.37 294.218 122.002C294.817 122.357 295.426 122.702 296.035 123.017C298.572 113.882 299.922 104.392 302.805 95.3276C304.361 90.3915 306.486 85.6533 309.139 81.209C310.39 78.9234 311.899 76.7882 313.635 74.8449C313.412 74.1243 313.219 73.4036 313.026 72.683Z" fill="#FFD200"/>
<path d="M324.8 72.0131C324.8 73.204 324.773 74.3915 324.719 75.5757C325.077 76.3771 325.26 77.2456 325.257 78.1234C325.257 83.1476 320.334 88.3952 317.837 92.5668C315.574 96.2921 313.582 100.176 311.879 104.189C308.58 112.126 307.119 120.51 308.469 128.975L310.62 129.452C307.961 114.998 314.437 101.621 321.999 89.6842C325.074 84.8325 330.514 75.9919 324.8 72.0131Z" fill="#FFD200"/>
<path d="M101.135 61.2034L101.906 103.742C101.916 104.193 102.039 104.634 102.264 105.025C102.49 105.415 102.81 105.742 103.196 105.976C103.581 106.21 104.02 106.343 104.47 106.362C104.921 106.381 105.369 106.287 105.773 106.087L141.927 88.04C142.527 87.7407 143.029 87.2776 143.376 86.7046C143.722 86.1315 143.899 85.4718 143.886 84.8021L143.115 42.2838C143.107 41.7922 142.974 41.3108 142.728 40.885C142.483 40.4591 142.132 40.1029 141.711 39.85C141.289 39.597 140.81 39.4557 140.319 39.4393C139.828 39.423 139.34 39.5321 138.903 39.7564L103.063 58.0264C102.479 58.3254 101.989 58.7807 101.649 59.3417C101.308 59.9026 101.13 60.5472 101.135 61.2034V61.2034Z" fill="#5BC0BE"/>
<path d="M125.2 62.1879C123.84 69.8511 121.14 85.7156 113.203 80.803C112.117 82.4777 110.919 84.2844 110.158 85.1472C108.615 86.9945 109.234 91.7853 114.786 90.8616C118.43 90.2197 121.838 88.6225 124.662 86.2332C125.434 85.6141 129.443 71.1097 130.214 70.6428C130.986 70.1759 129.443 84.0712 130.214 83.6043C130.986 83.1374 134.274 81.5743 134.274 81.5743V67.2426C134.274 67.2426 134.051 61.2744 133.747 59.4677C131.244 61.2282 128.26 62.1777 125.2 62.1879V62.1879Z" fill="#002A40"/>
<path d="M96.1307 218.63L129.413 199.751C129.705 199.584 130.035 199.497 130.372 199.497C130.708 199.497 131.039 199.584 131.331 199.751L219.362 250.095C219.653 250.262 219.896 250.501 220.067 250.79C220.238 251.078 220.331 251.407 220.338 251.742C220.344 252.078 220.263 252.409 220.102 252.704C219.942 252.999 219.708 253.247 219.423 253.424L187.054 273.551C186.749 273.739 186.398 273.838 186.039 273.838C185.681 273.838 185.33 273.739 185.024 273.551L96.1206 222.02C95.8187 221.851 95.5674 221.605 95.3928 221.306C95.2183 221.008 95.1268 220.668 95.1278 220.322C95.1289 219.976 95.2224 219.637 95.3987 219.339C95.5751 219.042 95.8278 218.797 96.1307 218.63V218.63Z" fill="white"/>
<path d="M193.134 258.337V259.382H200.787V258.337" fill="#434F54"/>
<path d="M196.961 261.625C199.074 261.625 200.787 260.621 200.787 259.382C200.787 258.143 199.074 257.139 196.961 257.139C194.847 257.139 193.134 258.143 193.134 259.382C193.134 260.621 194.847 261.625 196.961 261.625Z" fill="#434F54"/>
<path d="M196.961 260.58C199.074 260.58 200.787 259.576 200.787 258.337C200.787 257.098 199.074 256.094 196.961 256.094C194.847 256.094 193.134 257.098 193.134 258.337C193.134 259.576 194.847 260.58 196.961 260.58Z" fill="#728489"/>
<path d="M100.962 220.569L118.268 230.556L148.86 212.743L131.625 202.918L100.962 220.569Z" fill="#5BC0BE"/>
<path d="M120.247 231.51L137.553 241.498L168.074 223.725L150.91 213.859L120.247 231.51Z" fill="#5BC0BE"/>
<path d="M139.349 242.482L156.655 252.47L187.217 234.677L170.002 224.832L139.349 242.482Z" fill="#5BC0BE"/>
<path d="M158.614 253.526L175.92 263.513L206.502 245.7L189.277 235.875L158.614 253.526Z" fill="#5BC0BE"/>
<g style="mix-blend-mode:multiply">
<g style="mix-blend-mode:multiply">
<path d="M100.962 220.569L118.268 230.556L148.86 212.743L131.625 202.918L100.962 220.569Z" fill="#5BC0BE"/>
</g>
<g style="mix-blend-mode:multiply">
<path d="M120.247 231.51L137.553 241.498L168.074 223.725L150.91 213.859L120.247 231.51Z" fill="#5BC0BE"/>
</g>
<g style="mix-blend-mode:multiply">
<path d="M139.349 242.482L156.655 252.47L187.217 234.677L170.002 224.832L139.349 242.482Z" fill="#5BC0BE"/>
</g>
<g style="mix-blend-mode:multiply">
<path d="M158.614 253.526L175.92 263.513L206.502 245.7L189.277 235.875L158.614 253.526Z" fill="#5BC0BE"/>
</g>
<g style="mix-blend-mode:multiply" opacity="0.38">
<g style="mix-blend-mode:multiply" opacity="0.38">
<path d="M120.338 231.51L137.634 241.498L168.155 223.725L150.991 213.859L120.338 231.51Z" fill="#E0E0E0"/>
</g>
<g style="mix-blend-mode:multiply" opacity="0.38">
<path d="M139.431 242.482L156.736 252.47L187.298 234.677L170.094 224.832L139.431 242.482Z" fill="#B3B3B3"/>
</g>
<g style="mix-blend-mode:multiply" opacity="0.38">
<path d="M158.705 253.526L176.001 263.513L206.583 245.7L189.358 235.875L158.705 253.526Z" fill="#808080"/>
</g>
</g>
</g>
<path d="M65.8634 179.674C65.8634 179.674 63.4477 200.451 74.4401 204.471C85.4326 208.49 91.35 198.036 91.482 179.674" fill="#06577A"/>
<path d="M78.6727 187.073C85.7471 187.073 91.482 183.761 91.482 179.674C91.482 175.588 85.7471 172.275 78.6727 172.275C71.5983 172.275 65.8634 175.588 65.8634 179.674C65.8634 183.761 71.5983 187.073 78.6727 187.073Z" fill="#F2696A"/>
<path d="M81.9511 163.211C81.9511 163.211 76.8761 155.954 79.1193 150.939C79.1193 150.939 80.926 147.712 83.4939 147.204C83.4939 147.204 83.2402 154.086 85.798 153.203C88.3558 152.32 85.798 146.007 85.798 146.007C85.798 146.007 88.4877 142.363 91.4312 142.474C94.3747 142.586 91.4312 148.909 93.4612 147.864C95.4912 146.819 93.5932 141.439 95.8972 140.759C98.007 140.278 100.147 139.939 102.302 139.744C102.302 139.744 104.484 146.017 102.302 146.92C100.12 147.823 96.9224 148.118 98.455 149.508C99.9877 150.899 104.352 149.305 104.352 149.305C104.352 149.305 104.626 152.838 103.144 154.38C101.662 155.923 92.9943 152.533 94.4864 155.568C95.9784 158.603 101.784 157.08 101.784 157.08C101.784 157.08 98.8407 161.292 95.3796 163.17C91.9184 165.048 81.9511 163.211 81.9511 163.211Z" fill="#FFD200"/>
<path d="M83.1286 181.42C83.1286 181.42 79.4949 177.837 80.2054 174.751C80.5625 173.665 81.3019 172.745 82.2861 172.163C82.2861 172.163 82.8748 176.101 84.2349 175.32C85.595 174.538 83.4635 171.26 83.4635 171.26C83.4635 171.26 84.6003 168.905 86.2852 168.651C87.9701 168.397 86.9754 172.305 88.0209 171.493C89.0663 170.681 87.4119 167.829 88.6502 167.22C89.7945 166.719 90.9712 166.295 92.1722 165.951C92.1722 165.951 94.0804 169.28 92.9335 170.011C91.7865 170.742 90.0103 171.27 91.0253 171.889C92.0403 172.508 94.3443 171.138 94.3443 171.138C94.3443 171.138 94.8721 173.117 94.2022 174.183C93.5323 175.249 88.2239 174.183 89.4114 175.777C90.599 177.37 93.715 175.858 93.715 175.858C92.9922 177.421 91.9796 178.833 90.7309 180.019C89.0054 181.42 83.1286 181.42 83.1286 181.42Z" fill="#FFD200"/>
<path d="M69.7813 173.625C69.7813 173.625 60.9609 173.97 57.9058 169.423C57.9058 169.423 56.16 166.165 57.1039 163.729C57.1039 163.729 62.7676 167.646 63.4071 165.007C64.0465 162.368 57.3171 161.14 57.3171 161.14C57.3171 161.14 55.6931 156.918 57.3678 154.492C59.0426 152.066 62.7981 157.953 63.0112 155.659C63.2244 153.365 57.6622 152.097 58.3625 149.813C59.0748 147.776 59.9226 145.789 60.9 143.865C60.9 143.865 67.3656 145.398 66.99 147.722C66.6145 150.046 65.1123 152.909 67.1118 152.35C69.1114 151.792 70.1061 147.275 70.1061 147.275C70.1061 147.275 73.2323 148.94 73.7296 150.97C74.227 153 66.6957 158.572 70.0756 158.907C73.4556 159.242 75.2724 153.558 75.2724 153.558C75.2724 153.558 77.2415 158.308 76.9979 162.257C76.7543 166.205 69.7813 173.625 69.7813 173.625Z" fill="#FFD200"/>
<path d="M100.404 142.556C99.4701 143.347 98.5295 144.153 97.5822 144.971C97.6837 143.956 97.7953 142.941 97.9577 141.987C98.0389 141.459 97.2371 141.236 97.1559 141.764C96.9461 143.117 96.7871 144.454 96.6788 145.773C94.2022 147.945 91.7459 150.209 89.4622 152.614C89.2669 150.93 89.216 149.232 89.3099 147.539C89.3099 147.001 88.5081 147.001 88.4776 147.539C88.3693 149.505 88.4509 151.476 88.7212 153.426C87.2772 155.001 85.9217 156.654 84.6612 158.38C83.2295 156.398 82.2553 154.124 81.8091 151.721C81.7076 151.193 80.9057 151.417 81.0072 151.944C81.466 154.514 82.5077 156.945 84.0522 159.049C84.0762 159.076 84.1034 159.1 84.1334 159.12C80.271 164.272 78.0403 170.462 77.7288 176.893C77.7288 177.431 78.5408 177.431 78.5611 176.893C78.8457 170.695 80.9654 164.721 84.6511 159.729C88.0175 160.625 91.5073 160.968 94.9838 160.744C95.5116 160.744 95.5217 159.872 94.9838 159.912C91.6849 160.129 88.3726 159.824 85.1687 159.009C86.9359 156.623 88.8764 154.37 90.9745 152.269H91.0456C92.9944 152.442 94.933 152.614 96.892 152.685C98.1154 152.864 99.3644 152.721 100.516 152.269C100.993 152.026 100.576 151.305 100.099 151.549C98.7494 152.229 96.8717 151.863 95.4304 151.782C94.1921 151.711 92.9639 151.599 91.7256 151.498C94.6996 148.554 97.8867 145.814 100.962 143.215C101.409 142.789 100.81 142.211 100.404 142.556Z" fill="#06577A"/>
<path d="M74.572 158.775C74.6016 158.669 74.5878 158.555 74.5335 158.459C74.5067 158.411 74.4707 158.37 74.4277 158.336C74.3846 158.302 74.3354 158.277 74.2827 158.263C74.1764 158.233 74.0627 158.247 73.9665 158.301C73.8704 158.355 73.7998 158.446 73.7702 158.552C72.8696 161.629 70.992 164.33 68.4211 166.246C67.4738 163.627 66.611 160.978 65.8329 158.298C67.8454 156.293 69.5001 153.959 70.7252 151.396C70.9586 150.919 70.238 150.493 70.0045 150.98C68.8767 153.337 67.3754 155.496 65.5588 157.375C64.6859 154.33 63.9145 151.214 63.2751 148.077C63.1634 147.549 62.3616 147.773 62.4732 148.3C63.3596 152.584 64.4525 156.806 65.7517 160.968C64.181 160.662 62.6538 160.164 61.2045 159.486C60.7173 159.262 60.3011 159.973 60.7883 160.206C62.4572 161 64.2258 161.563 66.046 161.881V161.881C66.9291 164.622 67.9136 167.332 68.9692 170.001C66.4757 169.923 64.0184 169.383 61.7221 168.408C61.2349 168.205 60.8086 168.915 61.306 169.128C63.8356 170.215 66.5517 170.801 69.3042 170.854C70.6575 174.197 72.1292 177.485 73.7194 180.72C73.963 181.197 74.6837 180.78 74.4401 180.303C72.2935 176.014 70.3858 171.609 68.7256 167.108V167.108C71.5468 165.058 73.6041 162.126 74.572 158.775V158.775Z" fill="#06577A"/>
<path d="M89.6651 169.555L87.3712 173.401C87.0891 173.027 86.8443 172.626 86.6404 172.204C86.4069 171.716 85.6863 172.143 85.9197 172.62C86.1824 173.162 86.5059 173.673 86.884 174.142L84.4378 178.375C84.1571 178.105 83.9779 177.746 83.9303 177.36C83.8694 176.832 83.027 176.832 83.098 177.36C83.1722 178.027 83.4991 178.641 84.0115 179.075L80.9056 184.292C80.8527 184.388 80.8394 184.5 80.8685 184.605C80.8977 184.71 80.9669 184.8 81.0614 184.855C81.1559 184.909 81.2681 184.924 81.3737 184.897C81.4794 184.87 81.5701 184.802 81.6263 184.708L85.6863 177.827C86.3751 177.838 87.0611 177.735 87.7163 177.522C88.2238 177.36 88.0106 176.507 87.493 176.72C87.0745 176.852 86.6417 176.934 86.2039 176.964L90.3553 170.001C90.3955 169.911 90.402 169.809 90.3737 169.714C90.3454 169.619 90.2842 169.537 90.201 169.483C90.1177 169.429 90.0181 169.407 89.9198 169.42C89.8216 169.433 89.7313 169.481 89.6651 169.555V169.555Z" fill="#06577A"/>
<defs>
<linearGradient id="paint0_linear" x1="307.596" y1="194.25" x2="291.254" y2="205.141" gradientUnits="userSpaceOnUse">
<stop stop-color="#E0584E"/>
<stop offset="1" stop-color="#FFB3A6"/>
</linearGradient>
<linearGradient id="paint1_linear" x1="15463.6" y1="16332.9" x2="15282.5" y2="16871.6" gradientUnits="userSpaceOnUse">
<stop stop-color="#E0584E"/>
<stop offset="1" stop-color="#FFB3A6"/>
</linearGradient>
<linearGradient id="paint2_linear" x1="2581.9" y1="4472.8" x2="2412.36" y2="4690.12" gradientUnits="userSpaceOnUse">
<stop stop-color="#E0584E"/>
<stop offset="1" stop-color="#FFB3A6"/>
</linearGradient>
<linearGradient id="paint3_linear" x1="31586.6" y1="16353.2" x2="28020.7" y2="21614.8" gradientUnits="userSpaceOnUse">
<stop stop-color="#E0584E"/>
<stop offset="1" stop-color="#FFB3A6"/>
</linearGradient>
<linearGradient id="paint4_linear" x1="179.543" y1="152.584" x2="201.122" y2="126.793" gradientUnits="userSpaceOnUse">
<stop stop-opacity="0"/>
<stop offset="0.99" stop-color="#1A1A1A"/>
</linearGradient>
</defs>
</svg>
