<svg width="118" height="118" viewBox="0 0 118 118" fill="none" xmlns="http://www.w3.org/2000/svg">
<g clip-path="url(#clip0)">
<path d="M44.1667 51L40.58 60.2925C40.3294 60.9416 40.5242 61.6775 41.0625 62.12C41.1974 62.2297 41.3464 62.3148 41.5027 62.3751C41.9715 62.5561 42.5094 62.5105 42.9495 62.2291L51.2403 56.9301L44.1667 51Z" fill="#FFD200"/>
<path d="M92.9065 30.5931C92.5718 30.0887 91.9837 29.811 91.3815 29.8802L37.2149 36.0218C36.5745 36.0946 36.0403 36.5422 35.8531 37.1582C35.6672 37.7771 35.8679 38.4439 36.3599 38.8571L47.2387 47.9779L82.7364 35.4591L52.4797 52.3696L70.712 67.6553C70.8482 67.7677 71.0017 67.8591 71.166 67.9225C71.4384 68.0277 71.7375 68.058 72.0316 68.0058C72.502 67.9203 72.9113 67.6294 73.1468 67.2161L92.9633 32.2771C93.262 31.7478 93.2405 31.0996 92.9065 30.5931Z" fill="#FFD200"/>
</g>
<circle cx="59" cy="59" r="56.5" stroke="#FFD200" stroke-width="5"/>
<path d="M39.5911 71.9189C36.8536 80.0715 42.359 89.6268 46.0902 93.2638C30.0903 83.6899 31.6173 70.8899 35.9276 66.6228C35.9276 66.6228 38.055 64.7759 39.4982 67.1236C40.9415 69.4714 39.5911 71.9189 39.5911 71.9189Z" fill="#FFD200"/>
<defs>
<clipPath id="clip0">
<rect width="51.5429" height="51.5429" fill="white" transform="translate(45.5601 12) rotate(21.1058)"/>
</clipPath>
</defs>
</svg>
