<svg width="406" height="306" viewBox="0 0 406 306" fill="none" xmlns="http://www.w3.org/2000/svg">
<path d="M198.148 293.912L15.7325 186.099C9.92671 182.841 4.94306 177.482 10.6068 173.98L193.682 68.42C196.433 66.7148 200.605 65.5983 203.396 67.2223L394.835 178.375C400.641 181.745 401.686 191.164 395.85 194.544L222.194 293.74C218.546 295.856 214.41 296.985 210.194 297.015C205.977 297.045 201.826 295.976 198.148 293.912Z" fill="#3A506B"/>
<path style="mix-blend-mode:multiply" opacity="0.63" d="M291.234 254.439C307.474 244.644 323.633 235.895 340.035 226.476C323.917 215.585 315.766 211.992 303.424 204.369L210.399 257.606L245.295 280.565C260.662 272.557 276.384 263.422 291.234 254.439Z" fill="url(#paint0_linear)"/>
<path d="M88.8937 183.927V187.926L90.9237 190.413" fill="#ADCEE1"/>
<path d="M169.353 135.177L91.1978 183.623C90.4821 184.065 89.894 184.686 89.4915 185.425C89.089 186.163 88.8859 186.994 88.9023 187.835C88.9187 188.677 89.154 189.499 89.585 190.221C90.016 190.944 90.6278 191.542 91.3602 191.956L209.973 259.047C211.631 259.985 213.506 260.47 215.41 260.454C217.315 260.438 219.182 259.921 220.823 258.956L298.633 213.22C304.287 208.571 303.861 199.832 298.633 199.467L180.67 134.984C178.942 133.99 176.978 133.483 174.985 133.517C172.992 133.551 171.045 134.124 169.353 135.177Z" fill="#88D3D8"/>
<path d="M169.353 131.837L91.1978 180.283C90.4821 180.725 89.894 181.347 89.4915 182.085C89.089 182.824 88.8859 183.655 88.9023 184.496C88.9187 185.337 89.154 186.16 89.585 186.882C90.016 187.605 90.6278 188.202 91.3602 188.616L209.973 255.708C211.631 256.645 213.506 257.13 215.41 257.114C217.315 257.098 219.182 256.582 220.823 255.616L298.633 209.84C299.545 209.31 300.302 208.549 300.829 207.634C301.355 206.72 301.632 205.683 301.632 204.628C301.632 203.573 301.355 202.536 300.829 201.621C300.302 200.707 299.545 199.946 298.633 199.416L180.67 131.685C178.946 130.685 176.983 130.171 174.99 130.198C172.997 130.224 171.049 130.791 169.353 131.837V131.837Z" fill="white"/>
<path d="M172.55 125.219C172.55 125.219 205.03 20.4511 204.797 20.4511C204.563 20.4511 205.812 15.7923 211.607 18.4211L336.178 91.7549C336.178 91.7549 342.268 94.201 341.04 99.8749C339.812 105.549 309.311 202.39 309.311 202.39C308.673 203.31 307.758 204.003 306.7 204.368C305.641 204.733 304.494 204.751 303.424 204.42C299.628 203.242 175.453 131.117 175.453 131.117C175.453 131.117 171.322 129.523 172.55 125.219Z" fill="#272E45"/>
<path d="M206.867 28.0636L334.432 102.433L307.971 191.265L178.772 119.109L206.867 28.0636Z" fill="#3A506B"/>
<path d="M164.552 142.941L136.01 160.744C135.505 161.061 135.09 161.502 134.806 162.026C134.523 162.55 134.379 163.139 134.391 163.735C134.402 164.331 134.567 164.913 134.871 165.426C135.174 165.939 135.605 166.365 136.122 166.662L238.698 225.136C240.23 226.02 241.968 226.485 243.737 226.485C245.506 226.485 247.244 226.02 248.776 225.136C255.374 221.289 266.722 214.367 273.674 210.114C274.295 209.736 274.807 209.202 275.159 208.567C275.511 207.931 275.692 207.214 275.684 206.488C275.676 205.761 275.479 205.049 275.112 204.421C274.746 203.793 274.222 203.272 273.593 202.908C252.816 190.809 185.136 151.447 170.317 142.85C169.439 142.339 168.438 142.078 167.422 142.094C166.406 142.11 165.413 142.403 164.552 142.941Z" fill="#5BC0BE"/>
<path d="M166.084 191.266L201.924 211.413C202.473 211.723 202.93 212.172 203.25 212.714C203.57 213.257 203.741 213.875 203.746 214.504C203.751 215.134 203.59 215.755 203.279 216.302C202.968 216.85 202.518 217.307 201.975 217.625L180.903 229.957C180.18 230.375 179.359 230.595 178.523 230.595C177.688 230.595 176.867 230.375 176.143 229.957L139.471 209.048C139.026 208.776 138.658 208.395 138.403 207.94C138.148 207.485 138.014 206.972 138.014 206.45C138.014 205.928 138.148 205.415 138.403 204.96C138.658 204.505 139.026 204.123 139.471 203.852L161.385 191.286C162.1 190.876 162.908 190.659 163.732 190.655C164.556 190.652 165.366 190.862 166.084 191.266V191.266Z" fill="#5BC0BE"/>
<path opacity="0.1" d="M164.552 142.941L136.01 160.744C135.505 161.061 135.09 161.502 134.806 162.026C134.523 162.55 134.379 163.139 134.391 163.735C134.402 164.331 134.567 164.913 134.871 165.426C135.174 165.939 135.605 166.365 136.122 166.662L238.698 225.136C240.23 226.02 241.968 226.485 243.737 226.485C245.506 226.485 247.244 226.02 248.776 225.136C255.374 221.289 266.722 214.367 273.674 210.114C274.295 209.736 274.807 209.202 275.159 208.567C275.511 207.931 275.692 207.214 275.684 206.488C275.676 205.761 275.479 205.049 275.112 204.421C274.746 203.793 274.222 203.272 273.593 202.908C252.816 190.809 185.136 151.447 170.317 142.85C169.439 142.339 168.438 142.078 167.422 142.094C166.406 142.11 165.413 142.403 164.552 142.941Z" fill="#272E45"/>
<path opacity="0.1" d="M166.084 191.266L201.924 211.413C202.473 211.723 202.93 212.172 203.25 212.714C203.57 213.257 203.741 213.875 203.746 214.504C203.751 215.134 203.59 215.755 203.279 216.302C202.968 216.85 202.518 217.307 201.975 217.625L180.903 229.957C180.18 230.375 179.359 230.595 178.523 230.595C177.688 230.595 176.867 230.375 176.143 229.957L139.471 209.048C139.026 208.776 138.658 208.395 138.403 207.94C138.148 207.485 138.014 206.972 138.014 206.45C138.014 205.928 138.148 205.415 138.403 204.96C138.658 204.505 139.026 204.123 139.471 203.852L161.385 191.286C162.1 190.876 162.908 190.659 163.732 190.655C164.556 190.652 165.366 190.862 166.084 191.266V191.266Z" fill="#272E45"/>
<path d="M179.503 90.618C179.503 90.618 165.019 90.1308 169.099 72.8149C167.759 76.1441 165.039 80.3462 159.863 80.5188C154.686 80.6913 151.641 76.4588 150.047 72.9773C151.367 77.2099 152.697 83.3811 150.047 85.2791C145.886 88.2531 139.634 89.1463 139.634 89.1463C139.634 89.1463 150.799 89.2579 150.88 93.6123C150.961 97.9666 148.708 103.143 148.708 103.143C148.708 103.143 161.953 93.592 167.749 104.473C167.749 104.463 165.242 92.0999 179.503 90.618Z" fill="#FFC543"/>
<path d="M166.643 88.6287C166.643 88.6287 81.2 109.05 82.215 151.295C83.23 193.539 119.273 186.728 119.273 186.728C119.273 186.728 79.9414 189.895 73.3845 161.353C66.8276 132.812 105.316 91.9071 166.643 88.6287Z" fill="#FFD200"/>
<g opacity="0.5">
<path opacity="0.5" d="M292.137 107.264L224.132 67.334C217.027 63.1319 212.602 75.7382 220.519 80.123C244.605 94.2823 268.143 107.853 292.097 121.86L292.137 107.264Z" fill="white"/>
</g>
<path d="M307.038 116.023L292.137 107.264L287.641 119.241L302.703 128.061C309.849 132.253 314.183 120.215 307.038 116.023Z" fill="white"/>
<path d="M299.425 122.672C297.872 122.672 296.289 121.302 295.649 119.272C294.908 116.907 295.73 114.532 297.497 113.983C299.263 113.435 301.293 114.907 302.034 117.272C302.368 118.329 302.368 119.463 302.034 120.52C301.906 120.987 301.666 121.416 301.335 121.769C301.005 122.123 300.593 122.391 300.136 122.55C299.906 122.624 299.666 122.665 299.425 122.672V122.672ZM298.258 114.887C298.103 114.887 297.949 114.911 297.801 114.958C296.573 115.344 296.045 117.14 296.624 119.018C297.202 120.896 298.654 122.063 299.882 121.637C300.182 121.519 300.45 121.332 300.664 121.09C300.878 120.848 301.03 120.559 301.11 120.246C301.363 119.385 301.345 118.467 301.059 117.617C300.602 116.003 299.425 114.887 298.298 114.887H298.258Z" fill="#272E45"/>
<path d="M301.372 121.084L300.637 121.784L304.522 125.863L305.257 125.163L301.372 121.084Z" fill="#272E45"/>
<path opacity="0.53" d="M199.092 81.3207L190.343 109.68L210.278 120.662L219.656 93.3078L199.092 81.3207Z" fill="white"/>
<path opacity="0.53" d="M226.101 97.2358L217.342 125.585L237.287 136.567L246.665 109.213L226.101 97.2358Z" fill="white"/>
<path opacity="0.53" d="M254.968 113.851L246.219 142.211L266.153 153.193L275.532 125.839L254.968 113.851Z" fill="white"/>
<path d="M172.55 168.093C172.55 168.093 137.817 170.255 114.979 202.938C114.979 202.938 139.603 221.106 189.835 207.526" fill="#EB773A"/>
<path d="M170.185 172.488C170.185 172.488 153.377 177.766 146.566 183.815C139.755 189.865 130.326 198.908 130.326 198.908C130.326 198.908 150.535 210.236 175.808 207.1C201.082 203.963 192.535 172.833 170.185 172.488Z" fill="#FFAE46"/>
<path d="M183.715 174.112C182.436 174.995 166.988 176.335 160.147 185.277L165.536 184.059C165.536 184.059 154.371 190.514 148.982 194.686C148.982 194.686 168.632 195.63 167.932 195.782L161.608 197.203C161.608 197.203 174.377 202.684 186.466 198.898C198.554 195.112 192.85 176.345 192.85 176.345L183.715 174.112Z" fill="#FFD200"/>
<path d="M220.905 190.9C220.905 190.9 212.328 204.004 206.075 205.394C199.823 206.785 179.543 211.373 179.543 211.373L178.528 206.927C178.528 206.927 197.367 193.113 202.888 185.764C208.41 178.416 220.905 190.9 220.905 190.9Z" fill="#5BC0BE"/>
<path opacity="0.61" d="M220.905 190.9C220.905 190.9 212.328 204.004 206.075 205.394C199.823 206.785 179.543 211.373 179.543 211.373L178.528 206.927C178.528 206.927 197.367 193.113 202.888 185.764C208.41 178.416 220.905 190.9 220.905 190.9Z" fill="#272E45"/>
<path d="M214.906 164.236C214.906 164.236 201.538 156.116 195.296 157.496C189.054 158.877 168.764 163.475 168.764 163.475L169.779 167.921C169.779 167.921 192.728 172.326 200.899 176.578C209.07 180.831 214.906 164.236 214.906 164.236Z" fill="#5BC0BE"/>
<path opacity="0.61" d="M214.906 164.236C214.906 164.236 201.538 156.116 195.296 157.496C189.054 158.877 168.764 163.475 168.764 163.475L169.779 167.921C169.779 167.921 192.728 172.326 200.899 176.578C209.07 180.831 214.906 164.236 214.906 164.236Z" fill="#272E45"/>
<path d="M293.629 171.473C300.029 167.327 305.905 162.423 311.128 156.867C311.128 156.867 302.866 153.223 288.91 151.285C287.032 158.014 289.762 165.292 293.629 171.473Z" fill="#5BC0BE"/>
<path d="M249.109 181.877C254.359 180.694 257.525 174.898 256.18 168.932C254.835 162.966 249.49 159.088 244.24 160.272C238.99 161.455 235.824 167.25 237.169 173.216C238.513 179.183 243.859 183.06 249.109 181.877Z" fill="#5BC0BE"/>
<path d="M349.891 147.834C349.891 147.834 263.707 131.878 198.432 170.996C198.432 170.996 184.669 176.629 186.679 184.191C188.688 191.753 205.507 194.097 205.507 194.097C205.507 194.097 260.723 202.42 349.891 147.834Z" fill="#5BC0BE"/>
<path d="M198.443 170.996C198.443 170.996 189.226 165.373 184.933 166.347L166.663 170.468L167.353 173.513C167.353 173.513 183.167 176.558 188.79 179.481C194.413 182.405 198.443 170.996 198.443 170.996Z" fill="#5BC0BE"/>
<path d="M203.142 191.854C203.142 191.854 197.225 200.888 192.921 201.842L174.651 205.963L173.961 202.918C173.961 202.918 186.943 193.397 190.769 188.332C194.596 183.267 203.142 191.854 203.142 191.854Z" fill="#5BC0BE"/>
<path opacity="0.29" d="M198.443 170.996C198.443 170.996 189.226 165.373 184.933 166.347L166.663 170.468L167.353 173.513C167.353 173.513 183.167 176.558 188.79 179.481C194.413 182.405 198.443 170.996 198.443 170.996Z" fill="#272E45"/>
<path opacity="0.29" d="M203.142 191.854C203.142 191.854 197.225 200.888 192.921 201.842L174.651 205.963L173.961 202.918C173.961 202.918 186.943 193.397 190.769 188.332C194.596 183.267 203.142 191.854 203.142 191.854Z" fill="#272E45"/>
<path d="M305.962 144.616C305.962 144.616 299.74 157.588 311.392 168.743L299.212 174.224C299.212 174.224 286.23 156.522 294.786 144.88L305.962 144.616Z" fill="#5BC0BE"/>
<path d="M242.443 152.35C242.443 152.35 232.516 174.589 250.329 190.311L230.192 193.823C230.192 193.823 211.496 176.03 224.599 158.187L242.443 152.35Z" fill="#5BC0BE"/>
<path d="M281.289 166.134C283.137 165.718 284.298 163.882 283.882 162.033C283.465 160.185 281.629 159.024 279.781 159.441C277.932 159.857 276.771 161.693 277.188 163.542C277.605 165.39 279.441 166.551 281.289 166.134Z" fill="#5BC0BE"/>
<path d="M262.847 175.955C267.67 174.868 270.699 170.077 269.612 165.254C268.525 160.431 263.734 157.402 258.91 158.489C254.087 159.576 251.058 164.367 252.145 169.19C253.232 174.014 258.023 177.042 262.847 175.955Z" fill="#5BC0BE"/>
<path opacity="0.61" d="M305.962 144.616C305.962 144.616 299.74 157.588 311.392 168.743L299.212 174.224C299.212 174.224 286.23 156.522 294.786 144.88L305.962 144.616Z" fill="#272E45"/>
<path opacity="0.61" d="M242.443 152.35C242.443 152.35 232.516 174.589 250.329 190.311L230.192 193.823C230.192 193.823 211.496 176.03 224.599 158.187L242.443 152.35Z" fill="#272E45"/>
<path opacity="0.61" d="M281.289 166.134C283.137 165.718 284.298 163.882 283.882 162.033C283.465 160.185 281.629 159.024 279.781 159.441C277.932 159.857 276.771 161.693 277.188 163.542C277.605 165.39 279.441 166.551 281.289 166.134Z" fill="#272E45"/>
<path opacity="0.61" d="M262.847 175.955C267.67 174.868 270.699 170.077 269.612 165.254C268.525 160.431 263.734 157.402 258.91 158.489C254.087 159.576 251.058 164.367 252.145 169.19C253.232 174.014 258.023 177.042 262.847 175.955Z" fill="#272E45"/>
<defs>
<linearGradient id="paint0_linear" x1="285.357" y1="264.64" x2="267.859" y2="225.633" gradientUnits="userSpaceOnUse">
<stop stop-color="white" stop-opacity="0"/>
<stop offset="1" stop-color="#297600"/>
</linearGradient>
</defs>
</svg>
