<svg width="406" height="306" viewBox="0 0 406 306" fill="none" xmlns="http://www.w3.org/2000/svg">
<path d="M208.532 286.148L382.604 183.267C388.146 180.151 392.896 175.046 387.497 171.696L212.805 71.0184C210.186 69.3944 206.208 68.3287 203.538 69.8816L20.8381 175.929C15.2962 179.146 14.3015 188.109 19.8231 191.357L185.593 285.965C189.071 287.987 193.016 289.067 197.038 289.099C201.061 289.131 205.022 288.114 208.532 286.148V286.148Z" fill="#FFB3A6"/>
<path style="mix-blend-mode:multiply" d="M132.823 219.939L105.154 235.296C105.154 235.296 131.006 255.677 142.608 260.59L170.307 244.096" fill="url(#paint0_linear)"/>
<path style="mix-blend-mode:multiply" d="M131.696 158.542L104.027 173.899C104.027 173.899 110.655 184.384 122.297 189.256L152.199 172.762" fill="url(#paint1_linear)"/>
<path style="mix-blend-mode:multiply" d="M281.358 219.097C281.358 219.097 314.802 200.37 315.005 200.055L263.048 173.899L233.826 190.768L281.358 219.097Z" fill="url(#paint2_linear)"/>
<path d="M319.725 142.627L362.152 168.925C362.541 169.166 362.861 169.503 363.079 169.905C363.298 170.306 363.408 170.758 363.399 171.215C363.39 171.672 363.261 172.119 363.027 172.511C362.792 172.903 362.459 173.228 362.061 173.452L297.669 209.84C296.774 210.356 295.759 210.627 294.726 210.627C293.693 210.627 292.677 210.356 291.782 209.84L249.548 185.013C246.503 182.496 247.335 178.761 249.548 177.543L313.564 142.546C314.502 141.999 315.571 141.719 316.656 141.733C317.741 141.747 318.802 142.056 319.725 142.627V142.627Z" fill="#5BC0BE"/>
<path d="M319.725 140.82L362.152 167.119C362.541 167.359 362.861 167.696 363.079 168.098C363.298 168.499 363.408 168.951 363.399 169.408C363.39 169.865 363.261 170.312 363.027 170.704C362.792 171.097 362.459 171.421 362.061 171.645L297.679 208.064C296.784 208.579 295.769 208.851 294.736 208.851C293.703 208.851 292.688 208.579 291.792 208.064L249.558 183.237C249.063 182.949 248.652 182.537 248.366 182.041C248.081 181.545 247.93 180.983 247.93 180.41C247.93 179.838 248.081 179.275 248.366 178.779C248.652 178.283 249.063 177.871 249.558 177.583L313.574 140.779C314.507 140.229 315.572 139.942 316.655 139.95C317.739 139.957 318.799 140.258 319.725 140.82Z" fill="white"/>
<path d="M316.903 142.241L359.543 169.078L295.771 205.567L251.771 179.694L316.903 142.241Z" fill="#606060"/>
<path d="M270.975 194.412C271.81 194.412 272.487 194.094 272.487 193.701C272.487 193.309 271.81 192.991 270.975 192.991C270.139 192.991 269.462 193.309 269.462 193.701C269.462 194.094 270.139 194.412 270.975 194.412Z" fill="#383097"/>
<path style="mix-blend-mode:multiply" d="M318.477 186.718C318.477 186.718 324.029 176.396 324.059 176.345L323.105 175.868L311.311 182.679L318.477 186.718Z" fill="url(#paint3_linear)"/>
<path d="M368.344 148.646C368.329 148.572 368.329 148.496 368.344 148.422C367.765 148.119 367.141 147.91 366.496 147.803L326.911 171.432C326.911 171.432 324.536 173.29 328.941 175.797L369.125 151.914C369.087 150.783 368.821 149.672 368.344 148.646V148.646Z" fill="#CCCCCC"/>
<path d="M326.83 171.422C326.83 171.422 322.222 176.578 322.141 176.913C322.06 177.248 328.809 175.787 328.809 175.787" fill="#CCCCCC"/>
<path d="M368.98 151.922C369.708 151.502 369.755 150.22 369.086 149.06C368.416 147.9 367.282 147.3 366.554 147.72C365.826 148.141 365.779 149.422 366.449 150.582C367.118 151.743 368.252 152.342 368.98 151.922Z" fill="#F2F2F2"/>
<path d="M168.297 138.465L184.923 146.474C185.548 146.776 186.079 147.242 186.459 147.822C186.839 148.403 187.054 149.076 187.081 149.769C187.108 150.463 186.946 151.15 186.613 151.759C186.279 152.367 185.786 152.873 185.187 153.223L145.774 176.213C144.922 176.71 143.912 176.858 142.953 176.627C141.994 176.396 141.161 175.804 140.628 174.975L131.057 160.105" fill="#56403D"/>
<path d="M77.8303 99.9561L210.45 23.5571C211.36 23.0307 212.392 22.7534 213.443 22.7532C214.494 22.7529 215.526 23.0297 216.436 23.5557C217.346 24.0817 218.101 24.8382 218.626 25.749C219.15 26.6598 219.425 27.6928 219.423 28.7437V108.218C219.422 109.091 219.192 109.948 218.756 110.703C218.319 111.458 217.692 112.086 216.936 112.522L75.577 194.118C75.0891 194.399 74.5357 194.548 73.9724 194.547C73.4091 194.547 72.8558 194.399 72.3681 194.117C71.8804 193.835 71.4756 193.43 71.1943 192.941C70.913 192.453 70.7653 191.9 70.7659 191.337V112.167C70.7693 109.691 71.4238 107.259 72.6638 105.116C73.9037 102.973 75.6855 101.193 77.8303 99.9561Z" fill="#5BC0BE"/>
<path d="M210.43 29.5658L81.8498 103.549C80.4762 104.34 79.3355 105.479 78.5425 106.851C77.7495 108.223 77.3323 109.78 77.333 111.365V170.945C77.3345 171.515 77.4854 172.074 77.7706 172.567C78.0557 173.061 78.4652 173.47 78.9582 173.756C79.4512 174.041 80.0105 174.193 80.5802 174.195C81.1499 174.197 81.7101 174.049 82.205 173.767L213.343 98.5148C213.833 98.2343 214.24 97.8294 214.524 97.3411C214.807 96.8528 214.956 96.2983 214.957 95.7337V32.215C214.955 31.6854 214.815 31.1654 214.551 30.7064C214.286 30.2474 213.907 29.8653 213.45 29.5978C212.993 29.3303 212.474 29.1867 211.944 29.1811C211.415 29.1755 210.893 29.3081 210.43 29.5658V29.5658Z" fill="white"/>
<path d="M159.663 139.304C159.996 137.57 159.04 135.928 157.526 135.637C156.012 135.345 154.515 136.514 154.181 138.248C153.847 139.982 154.803 141.624 156.317 141.916C157.831 142.207 159.329 141.038 159.663 139.304Z" fill="#AB643C"/>
<path d="M216.967 172.823L251.659 192.646C252.022 192.855 252.323 193.156 252.532 193.519C252.741 193.882 252.852 194.293 252.852 194.711C252.852 195.13 252.741 195.541 252.532 195.904C252.323 196.267 252.022 196.568 251.659 196.777L155.295 252.216C154.127 252.89 152.802 253.244 151.453 253.244C150.105 253.244 148.78 252.89 147.612 252.216L115.132 233.469C114.754 233.251 114.441 232.937 114.224 232.559C114.006 232.182 113.891 231.753 113.891 231.317C113.891 230.882 114.006 230.453 114.224 230.076C114.441 229.698 114.754 229.384 115.132 229.166L212.633 172.843C213.289 172.458 214.036 172.253 214.797 172.249C215.558 172.246 216.307 172.444 216.967 172.823V172.823Z" fill="#479896"/>
<path d="M164.542 204.43L174.448 210.297L167.099 214.57C165.069 213.362 159.081 209.85 157.163 208.723L164.542 204.43Z" fill="white"/>
<path d="M175.392 198.127L185.299 203.994L175.991 209.404C174.367 208.46 168.368 204.917 166.054 203.557L175.392 198.127Z" fill="white"/>
<path d="M214.815 175.239L224.873 181.014L215.921 186.211C214.5 185.389 208.43 181.806 205.984 180.364L214.815 175.239Z" fill="white"/>
<path d="M193.621 187.51L203.528 193.377L196.179 197.64C194.444 196.625 188.465 193.103 186.242 191.793L193.621 187.51Z" fill="white"/>
<path d="M204.472 181.237L214.378 187.104L205.03 192.514C203.934 191.885 197.702 188.21 195.093 186.668L204.472 181.237Z" fill="white"/>
<path d="M155.65 209.596L165.557 215.463L158.523 219.523C156.412 218.285 150.464 214.783 148.586 213.677L155.65 209.596Z" fill="white"/>
<path d="M184.73 192.707L194.636 198.573L186.851 203.09C185.024 202.075 179.066 198.513 176.915 197.244L184.73 192.707Z" fill="white"/>
<path d="M147.074 214.58L156.98 220.447L147.672 225.857C145.724 224.72 139.786 221.218 137.736 220.01L147.074 214.58Z" fill="white"/>
<path d="M136.213 220.883L146.12 226.75L129.423 236.443L119.354 230.668L136.213 220.883Z" fill="white"/>
<path d="M226.162 182.729L236.221 188.505L223.219 196.056C221.514 195.041 215.535 191.54 213.282 190.21L226.162 182.729Z" fill="white"/>
<path d="M200.909 197.386L210.816 203.253L203.467 207.526C201.498 206.379 195.56 202.877 193.53 201.679L200.909 197.386Z" fill="white"/>
<path d="M182.7 207.972L192.606 213.839L183.299 219.249C181.431 218.163 175.483 214.651 173.362 213.403L182.7 207.972Z" fill="white"/>
<path d="M192.018 202.552L201.924 208.419L194.139 212.936C192.109 211.748 186.151 208.236 184.202 207.089L192.018 202.552Z" fill="white"/>
<path d="M171.829 214.276L181.736 220.142L174.387 224.415C172.114 223.086 166.135 219.554 164.45 218.569L171.829 214.276Z" fill="white"/>
<path d="M162.938 219.442L172.844 225.309L165.81 229.369C163.496 228.019 157.508 224.476 155.874 223.522L162.938 219.442Z" fill="white"/>
<path d="M211.76 191.083L221.666 196.949L212.358 202.349C210.887 201.497 204.827 197.924 202.422 196.503L211.76 191.083Z" fill="white"/>
<path d="M154.361 224.426L164.268 230.292L154.96 235.702C152.808 234.444 146.84 230.932 145.023 229.856L154.361 224.426Z" fill="white"/>
<path d="M153.407 236.595L140.76 243.934L130.702 238.158L143.501 230.719L153.407 236.595Z" fill="white"/>
<path d="M160.817 235.591L168.186 239.965L159.639 244.908L152.159 240.615L160.817 235.591Z" fill="white"/>
<path d="M157.873 245.933L150.606 250.146L143.115 245.862L150.515 241.569L157.873 245.933Z" fill="white"/>
<path d="M238.566 190.433L246.28 194.706L237.53 199.781L229.958 195.427L238.566 190.433Z" fill="white"/>
<path d="M228.324 196.381L235.764 200.796L226.426 206.216L218.865 201.872L228.324 196.381Z" fill="white"/>
<path d="M217.22 202.826L224.65 207.242L169.962 238.93L162.461 234.626L217.22 202.826Z" fill="white"/>
<path style="mix-blend-mode:multiply" d="M241.631 109.355L227.421 117.749C227.421 117.749 231.806 125.443 242.646 129.99L259.15 121.119" fill="url(#paint4_linear)"/>
<path d="M253.151 121.809C260.411 121.809 266.296 117.665 266.296 112.552C266.296 107.44 260.411 103.295 253.151 103.295C245.892 103.295 240.007 107.44 240.007 112.552C240.007 117.665 245.892 121.809 253.151 121.809Z" fill="#5BC0BE"/>
<path d="M253.161 111.111C258.599 111.111 263.007 109.307 263.007 107.081C263.007 104.856 258.599 103.052 253.161 103.052C247.724 103.052 243.316 104.856 243.316 107.081C243.316 109.307 247.724 111.111 253.161 111.111Z" fill="#479896"/>
<path d="M253.811 107.173C254.582 106.087 255.364 104.95 256.176 103.671C257.191 102.037 258.206 100.372 259.089 98.6467C259.919 97.1213 260.629 95.533 261.21 93.8965C261.857 92.119 262.376 90.2975 262.763 88.446C262.865 87.9588 262.946 87.431 263.037 86.9844C263.037 86.7611 263.037 86.7814 263.037 86.8118C263.037 86.8423 263.037 86.6596 263.037 86.3855C263.129 85.3705 263.19 84.3555 263.2 83.4014C263.245 79.9496 262.578 76.5254 261.241 73.3428C257.687 78.4968 255.291 84.359 254.217 90.5267C254.149 90.8921 254.085 91.2609 254.024 91.6331C254.024 91.6331 253.923 92.303 253.882 92.577L253.78 93.5007C253.733 93.9676 253.689 94.4379 253.649 94.9115C253.506 96.7284 253.435 98.5452 253.446 100.362C253.527 102.636 253.628 104.909 253.811 107.173ZM257.993 80.0113C258.23 79.7407 258.477 79.4768 258.734 79.2196C258.682 79.4536 258.682 79.6962 258.734 79.9301C258.487 79.917 258.24 79.9444 258.003 80.0113H257.993Z" fill="#FFD200"/>
<path d="M254.065 107.325C254.136 105.995 254.166 104.615 254.156 103.103C254.156 101.164 254.065 99.2355 253.892 97.307C253.767 95.5738 253.506 93.8532 253.111 92.1609C252.696 90.3142 252.15 88.4995 251.477 86.7307C251.294 86.2638 251.111 85.807 250.908 85.3503C250.817 85.1371 250.837 85.1574 250.857 85.1879L250.654 84.8123C250.188 83.9293 249.71 83.0564 249.183 82.2139C247.35 79.2814 244.931 76.7589 242.078 74.8044C241.872 81.0671 243.025 87.3 245.458 93.0744C245.6 93.4195 245.745 93.7579 245.894 94.0894L246.29 94.9623L246.706 95.8048C246.916 96.2243 247.132 96.6439 247.356 97.0634C248.218 98.6671 249.142 100.23 250.127 101.763C251.365 103.681 252.684 105.528 254.065 107.325ZM242.9 82.2139C242.954 81.8553 243.018 81.517 243.093 81.1989C243.161 81.4281 243.279 81.6394 243.438 81.8181C243.239 81.9257 243.058 82.0626 242.9 82.2241V82.2139Z" fill="#FFD200"/>
<path d="M254.126 108.036C253.73 107.295 253.304 106.543 252.816 105.721C252.187 104.706 251.517 103.691 250.786 102.676C250.15 101.783 249.444 100.941 248.675 100.159C247.854 99.2953 246.972 98.4914 246.036 97.7536L245.326 97.175C245.204 97.0938 245.224 97.0938 245.244 97.104L245.011 96.9619C244.473 96.6371 243.935 96.3224 243.377 96.0382C241.446 95.0459 239.331 94.4619 237.165 94.3229C239.074 97.765 241.706 100.753 244.879 103.082L245.447 103.498L245.935 103.844L246.432 104.158L247.193 104.625C248.174 105.214 249.189 105.762 250.238 106.269C251.487 106.929 252.796 107.508 254.126 108.036ZM239.997 98.0885C239.909 97.8788 239.828 97.6656 239.753 97.4491C239.864 97.5512 239.995 97.6274 240.139 97.6724C240.07 97.8029 240.022 97.9433 239.997 98.0885V98.0885Z" fill="#FFD200"/>
<path d="M253.811 107.173C254.582 106.087 255.364 104.95 256.176 103.671C257.191 102.037 258.206 100.372 259.089 98.6467C259.919 97.1213 260.629 95.533 261.21 93.8965C261.857 92.119 262.376 90.2975 262.763 88.446C262.865 87.9588 262.946 87.431 263.037 86.9844C263.037 86.7611 263.037 86.7814 263.037 86.8118C263.037 86.8423 263.037 86.6596 263.037 86.3855C263.129 85.3705 263.19 84.3555 263.2 83.4014C263.245 79.9496 262.578 76.5254 261.241 73.3428C257.687 78.4968 255.291 84.359 254.217 90.5267C254.149 90.8921 254.085 91.2609 254.024 91.6331C254.024 91.6331 253.923 92.303 253.882 92.577L253.78 93.5007C253.733 93.9676 253.689 94.4379 253.649 94.9115C253.506 96.7284 253.435 98.5452 253.446 100.362C253.527 102.636 253.628 104.909 253.811 107.173ZM257.993 80.0113C258.23 79.7407 258.477 79.4768 258.734 79.2196C258.682 79.4536 258.682 79.6962 258.734 79.9301C258.487 79.917 258.24 79.9444 258.003 80.0113H257.993Z" fill="#FFD200"/>
<path d="M254.065 107.325C254.136 105.995 254.166 104.615 254.156 103.103C254.156 101.164 254.065 99.2355 253.892 97.307C253.767 95.5738 253.506 93.8532 253.111 92.1609C252.696 90.3142 252.15 88.4995 251.477 86.7307C251.294 86.2638 251.111 85.807 250.908 85.3503C250.817 85.1371 250.837 85.1574 250.857 85.1879L250.654 84.8123C250.188 83.9293 249.71 83.0564 249.183 82.2139C247.35 79.2814 244.931 76.7589 242.078 74.8044C241.872 81.0671 243.025 87.3 245.458 93.0744C245.6 93.4195 245.745 93.7579 245.894 94.0894L246.29 94.9623L246.706 95.8048C246.916 96.2243 247.132 96.6439 247.356 97.0634C248.218 98.6671 249.142 100.23 250.127 101.763C251.365 103.681 252.684 105.528 254.065 107.325ZM242.9 82.2139C242.954 81.8553 243.018 81.517 243.093 81.1989C243.161 81.4281 243.279 81.6394 243.438 81.8181C243.239 81.9257 243.058 82.0626 242.9 82.2241V82.2139Z" fill="#FFD200"/>
<path d="M254.126 108.036C253.73 107.295 253.304 106.543 252.816 105.721C252.187 104.706 251.517 103.691 250.786 102.676C250.15 101.783 249.444 100.941 248.675 100.159C247.854 99.2953 246.972 98.4914 246.036 97.7536L245.326 97.175C245.204 97.0938 245.224 97.0938 245.244 97.104L245.011 96.9619C244.473 96.6371 243.935 96.3224 243.377 96.0382C241.446 95.0459 239.331 94.4619 237.165 94.3229C239.074 97.765 241.706 100.753 244.879 103.082L245.447 103.498L245.935 103.844L246.432 104.158L247.193 104.625C248.174 105.214 249.189 105.762 250.238 106.269C251.487 106.929 252.796 107.508 254.126 108.036ZM239.997 98.0885C239.909 97.8788 239.828 97.6656 239.753 97.4491C239.864 97.5512 239.995 97.6274 240.139 97.6724C240.07 97.8029 240.022 97.9433 239.997 98.0885V98.0885Z" fill="#FFD200"/>
<path d="M105.276 147.702L152.159 122.763L124.023 95.8961L105.276 147.702Z" fill="#479896"/>
<path d="M188.689 88.7708C198.543 88.7708 206.532 80.7819 206.532 70.9271C206.532 61.0723 198.543 53.0834 188.689 53.0834C178.834 53.0834 170.845 61.0723 170.845 70.9271C170.845 80.7819 178.834 88.7708 188.689 88.7708Z" fill="#FFD200"/>
<path d="M95.4101 112.633C92.5681 111.009 90.0103 115.394 92.8523 117.018C101.673 122.093 94.6082 133.136 88.0412 136.303C85.0977 137.714 87.6656 142.099 90.599 140.688C100.85 135.745 107.59 119.505 95.4101 112.633Z" fill="#56403D"/>
<path d="M176.61 100.22C173.91 87.6036 156.929 95.348 159.883 106.787C161.162 111.74 166.562 114.623 171.231 112.167C173.272 110.996 174.891 109.211 175.857 107.065C176.823 104.92 177.087 102.524 176.61 100.22V100.22ZM171.718 103.387C171.61 104.324 171.269 105.218 170.724 105.988C170.179 106.758 169.449 107.379 168.602 107.792C164.725 109.274 164.816 104.351 165.77 101.996C167.475 97.6318 172.55 98.19 171.698 103.427L171.718 103.387Z" fill="#56403D"/>
<path d="M168.754 262.346C168.858 261.689 169.121 261.068 169.521 260.538C169.921 260.007 170.445 259.582 171.048 259.301L178.407 255.058L189.775 248.471L203.355 240.605L217.809 232.241L231.785 224.121L243.965 217.087L252.948 211.89L257.668 209.16C257.668 209.261 257.83 209.261 257.932 209.231C258.492 209.094 259.078 209.104 259.634 209.26C260.189 209.415 260.696 209.711 261.103 210.119C261.511 210.527 261.807 211.033 261.963 211.589C262.119 212.144 262.128 212.731 261.992 213.291C261.444 215.423 259.627 217.3 257.932 218.599C252.436 222.545 246.7 226.145 240.758 229.379V227.257C244.757 225.065 253.385 220.152 256.998 216.397L255.273 217.412L250.522 220.193L243.367 224.375L234.435 229.592L224.315 235.55L213.698 241.752L203.183 247.892L193.398 253.617L185.004 258.56L178.539 262.336C176.569 263.493 174.428 265.056 172.134 265.503C171.701 265.533 171.266 265.474 170.857 265.33C170.448 265.185 170.073 264.957 169.756 264.661C169.439 264.365 169.186 264.006 169.014 263.608C168.841 263.21 168.753 262.78 168.754 262.346V262.346Z" fill="#5BC0BE"/>
<path style="mix-blend-mode:multiply" d="M226.284 154.116L211.12 163.15C211.12 163.15 221.077 172.691 232.679 177.573L246.777 168.367" fill="url(#paint5_linear)"/>
<path d="M224.833 147.671V154.766L246.747 168.337L273.055 152.259V146.21" fill="#479896"/>
<path d="M273.055 146.21L250.715 132.842L224.833 147.671L247.173 161.242L273.055 146.21Z" fill="#479896"/>
<defs>
<linearGradient id="paint0_linear" x1="165.374" y1="217.178" x2="126.327" y2="248.958" gradientUnits="userSpaceOnUse">
<stop stop-color="#D4A397"/>
<stop offset="1" stop-color="white"/>
</linearGradient>
<linearGradient id="paint1_linear" x1="7295.13" y1="4804.02" x2="6299.88" y2="6074.56" gradientUnits="userSpaceOnUse">
<stop stop-color="#D4A397"/>
<stop offset="1" stop-color="white"/>
</linearGradient>
<linearGradient id="paint2_linear" x1="286.098" y1="178.203" x2="266.275" y2="207.404" gradientUnits="userSpaceOnUse">
<stop offset="0.01" stop-color="#4D4D4D"/>
<stop offset="1" stop-color="white"/>
</linearGradient>
<linearGradient id="paint3_linear" x1="4355.61" y1="2030.41" x2="4291.09" y2="2142.11" gradientUnits="userSpaceOnUse">
<stop offset="0.01" stop-color="#4D4D4D"/>
<stop offset="1" stop-color="white"/>
</linearGradient>
<linearGradient id="paint4_linear" x1="251.253" y1="110.756" x2="237.033" y2="126.336" gradientUnits="userSpaceOnUse">
<stop stop-color="#78B46A"/>
<stop offset="0.03" stop-color="#7F3500"/>
<stop offset="1" stop-color="white"/>
</linearGradient>
<linearGradient id="paint5_linear" x1="8779.13" y1="3685.05" x2="8291.31" y2="4288.83" gradientUnits="userSpaceOnUse">
<stop stop-color="#D4A397"/>
<stop offset="1" stop-color="white"/>
</linearGradient>
</defs>
</svg>
