<svg width="406" height="306" viewBox="0 0 406 306" fill="none" xmlns="http://www.w3.org/2000/svg">
<path d="M93.0451 221.797L193.581 279.987C195.676 281.192 198.051 281.826 200.468 281.826C202.885 281.826 205.259 281.192 207.354 279.987L337.833 205.475C339.046 204.784 340.055 203.786 340.758 202.58C341.462 201.374 341.835 200.004 341.84 198.608C341.845 197.213 341.482 195.84 340.788 194.629C340.093 193.418 339.091 192.412 337.883 191.712L240.169 134.872C238.6 133.966 236.82 133.489 235.008 133.489C233.196 133.489 231.416 133.966 229.847 134.872L93.0654 213.179C92.3076 213.614 91.6776 214.24 91.2389 214.996C90.8001 215.751 90.568 216.609 90.5659 217.482C90.5639 218.356 90.7919 219.214 91.2271 219.972C91.6624 220.729 92.2894 221.359 93.0451 221.797V221.797Z" fill="#5C7EA9"/>
<path d="M207.933 211.555L167.942 233.216L185.116 245.01L226.365 222.599" fill="url(#paint0_linear)"/>
<path d="M285.824 196.391L245.823 218.051L263.007 229.835L306.246 204.988" fill="url(#paint1_linear)"/>
<path d="M114.127 114.491V188.901C114.126 189.629 114.317 190.345 114.68 190.977C115.044 191.608 115.567 192.133 116.198 192.498C116.828 192.863 117.544 193.056 118.272 193.057C119.001 193.058 119.717 192.867 120.349 192.504L223.96 132.923C224.593 132.559 225.119 132.034 225.484 131.401C225.85 130.769 226.042 130.051 226.041 129.32V53.9158C226.042 53.1871 225.851 52.4711 225.487 51.8396C225.124 51.2081 224.6 50.6834 223.97 50.3182C223.339 49.953 222.624 49.7603 221.895 49.7593C221.166 49.7583 220.45 49.9491 219.819 50.3125L117.03 109.477C116.147 109.983 115.414 110.713 114.904 111.594C114.394 112.474 114.126 113.474 114.127 114.491Z" fill="#5BC0BE"/>
<path opacity="0.18" d="M114.127 114.491V188.901C114.126 189.629 114.317 190.345 114.68 190.977C115.044 191.608 115.567 192.133 116.198 192.498C116.828 192.863 117.544 193.056 118.272 193.057C119.001 193.058 119.717 192.867 120.349 192.504L223.96 132.923C224.593 132.559 225.119 132.034 225.484 131.401C225.85 130.769 226.042 130.051 226.041 129.32V53.9158C226.042 53.1871 225.851 52.4711 225.487 51.8396C225.124 51.2081 224.6 50.6834 223.97 50.3182C223.339 49.953 222.624 49.7603 221.895 49.7593C221.166 49.7583 220.45 49.9491 219.819 50.3125L117.03 109.477C116.147 109.983 115.414 110.713 114.904 111.594C114.394 112.474 114.126 113.474 114.127 114.491Z" fill="black"/>
<path d="M177.341 66.1464V124.58C177.339 125.153 177.488 125.717 177.773 126.215C178.059 126.712 178.47 127.126 178.967 127.413C179.463 127.7 180.027 127.851 180.6 127.851C181.174 127.851 181.737 127.699 182.233 127.412L263.616 80.6304C264.114 80.3442 264.527 79.9316 264.814 79.4343C265.101 78.937 265.251 78.3727 265.25 77.7986V18.5733C265.252 17.9998 265.103 17.4358 264.818 16.9384C264.532 16.4409 264.12 16.0277 263.624 15.7403C263.128 15.453 262.564 15.3018 261.991 15.302C261.417 15.3022 260.854 15.4538 260.358 15.7415L179.655 62.2183C178.957 62.6106 178.375 63.1807 177.969 63.8706C177.562 64.5605 177.346 65.3456 177.341 66.1464V66.1464Z" fill="#5C7EA9"/>
<path d="M99.8531 148.393C105.467 138.669 105.001 127.89 98.8109 124.316C92.6211 120.742 83.0523 125.728 77.4382 135.452C71.8241 145.176 72.2907 155.956 78.4804 159.529C84.6701 163.103 94.239 158.117 99.8531 148.393Z" fill="#5C7EA9"/>
<path d="M99.1656 146.169C99.1656 146.169 105.256 153.812 103.774 154.289C102.292 154.766 94.7605 153.274 94.7605 153.274" fill="#F2696A"/>
<path d="M218.55 118.023C222.25 121.198 225.05 125.29 226.67 129.888C229.512 137.734 222.407 150.574 222.407 150.574L211.313 141.835" fill="#FF8F6F"/>
<path d="M219.768 221.868L222.813 220.203L222.052 215.92C222.052 215.92 217.586 216.336 217.19 217.95" fill="#003B94"/>
<path d="M218.641 221.797C217.961 221.381 217.261 221.015 216.611 220.64C214.875 219.696 212.368 218.711 211.303 216.925C211.083 216.568 210.978 216.153 211.004 215.735C211.029 215.317 211.183 214.917 211.445 214.59C213.028 212.692 216.459 215.818 218.215 213.707C218.56 213.291 218.722 206.683 218.722 206.683L225.411 208.49C225.411 208.49 226.548 221.766 226.426 222.588C226.304 223.411 224 224.192 224 224.192C223.318 224.057 222.666 223.803 222.072 223.441C221.371 222.933 222.001 216.701 221.118 217.574C220.235 218.447 219.829 221.858 219.829 221.858C219.432 221.889 219.033 221.868 218.641 221.797V221.797Z" fill="#5BC0BE"/>
<path d="M206.958 228.282L210.003 226.618L209.242 222.335C209.242 222.335 204.776 222.751 204.38 224.365" fill="black"/>
<path d="M205.832 228.222C205.152 227.805 204.451 227.44 203.802 227.065C202.066 226.121 199.559 225.136 198.493 223.35C198.273 222.993 198.169 222.578 198.194 222.16C198.22 221.742 198.374 221.342 198.635 221.015C200.219 219.117 203.65 222.243 205.406 220.132C205.751 219.716 205.913 213.108 205.913 213.108L212.602 214.915C212.602 214.915 213.739 228.191 213.617 229.013C213.495 229.835 211.191 230.617 211.191 230.617C210.509 230.482 209.856 230.227 209.263 229.866C208.562 229.358 209.191 223.126 208.308 223.999C207.425 224.872 207.019 228.283 207.019 228.283C206.623 228.314 206.223 228.293 205.832 228.222V228.222Z" fill="#5BC0BE"/>
<path d="M228.761 185.135L230.699 211.525C230.699 211.525 227.563 215.859 217.027 213.443L216.926 195.671" fill="#3E2928"/>
<path d="M216.561 190.352C216.784 192.626 216.561 217.666 216.561 217.666C216.561 217.666 213.647 223.116 200.96 217.666L201.143 196.351" fill="#3E2928"/>
<path d="M229.745 193.844C228.883 194.432 228.578 191.367 227.715 191.895C224.428 193.804 220.939 195.343 217.312 196.483H217.23C217.144 196.44 217.05 196.416 216.954 196.411C216.858 196.406 216.762 196.421 216.672 196.454C216.582 196.487 216.5 196.538 216.43 196.604C216.36 196.67 216.304 196.75 216.266 196.838C214.028 197.496 211.749 198.012 209.445 198.381C206.482 198.858 204.035 196.665 201.001 196.503C201.001 184.861 200.94 151.701 205.903 144.738L220.519 139.805C220.59 141.013 227.624 149.184 227.462 159.09C227.269 170.306 228.73 180.902 228.974 184.404C229.025 185.043 229.715 193.204 229.745 193.844Z" fill="#3E2928"/>
<path d="M204.512 131.32L205.862 144.677C205.862 144.677 216.804 145.124 221.524 141.866V130.528" fill="#5C7EA9"/>
<path d="M190.597 122.55L191.713 124.072C191.118 122.834 190.593 121.563 190.14 120.266C189.825 119.373 191.246 119.028 191.561 119.911L191.723 120.368C191.588 119.894 191.459 119.42 191.338 118.947C191.291 118.758 191.32 118.559 191.42 118.392C191.52 118.226 191.682 118.106 191.871 118.059C192.059 118.012 192.258 118.041 192.425 118.141C192.592 118.241 192.712 118.403 192.759 118.591C193.066 119.824 193.436 121.04 193.865 122.235C193.625 121.171 193.452 120.093 193.347 119.008C193.256 118.074 194.718 118.114 194.809 119.008C194.931 120.241 195.151 121.463 195.469 122.662C195.469 122.242 195.506 121.826 195.58 121.413C195.591 121.309 195.623 121.208 195.676 121.117C195.728 121.026 195.8 120.947 195.885 120.885C195.885 120.723 195.976 120.561 196.027 120.398C196.077 120.229 196.188 120.083 196.337 119.989C196.487 119.894 196.665 119.857 196.84 119.884C197.015 119.912 197.174 120.001 197.287 120.137C197.401 120.272 197.462 120.445 197.458 120.621L197.549 126.143C197.811 126.713 198.153 127.243 198.564 127.716C197.861 128.213 197.184 128.745 196.534 129.31C195.951 129.81 195.395 130.342 194.87 130.903C194.403 130.322 193.95 129.726 193.51 129.117C193.456 129.073 193.408 129.022 193.368 128.965C192.055 127.03 190.702 125.125 189.308 123.25C188.79 122.489 190.049 121.779 190.597 122.55Z" fill="#FFB5A9"/>
<path d="M211.455 119.14C211.455 119.14 206.289 120.53 204.198 123.88C202.887 126.168 201.73 128.542 200.737 130.985L196.91 125.088C196.91 125.088 192.282 126.509 190.434 128.792C190.434 128.792 195.936 140.81 200.726 141.835C205.517 142.86 210.592 134.73 210.592 134.73C210.592 134.73 211.607 138.11 211.435 134.507" fill="#FF8F6F"/>
<path d="M208.166 131.979C209.665 130.758 210.796 129.145 211.435 127.32C212.054 125.209 211.272 123.352 210.552 121.393C209.771 119.45 209.315 117.393 209.202 115.303C209.141 113.273 209.374 111.192 209.516 109.142C209.536 109.055 209.536 108.965 209.516 108.878C210.207 106.564 211.617 104.605 214.409 104.361C221.625 103.742 222.031 111.74 221.981 114.988C221.93 118.236 221.585 120.439 224.011 121.799C226.436 123.159 228.131 126.722 225.848 129.604C223.564 132.487 225.614 131.431 227.137 133.999C228.659 136.567 228.263 139.754 225.107 140.911C221.95 142.068 207.456 139.896 206.116 138.546C205.644 138.006 205.401 137.304 205.436 136.587C205.758 134.771 206.728 133.134 208.166 131.979Z" fill="#007F68"/>
<path d="M282.495 176.447C282.495 176.447 279.551 201.74 292.929 206.633C306.307 211.525 313.473 198.797 313.676 176.447" fill="#06577A"/>
<path d="M298.085 185.46C306.696 185.46 313.676 181.424 313.676 176.447C313.676 171.469 306.696 167.433 298.085 167.433C289.475 167.433 282.495 171.469 282.495 176.447C282.495 181.424 289.475 185.46 298.085 185.46Z" fill="#F2696A"/>
<path d="M302.084 156.4C302.084 156.4 295.994 147.56 298.633 141.459C298.633 141.459 300.836 137.531 303.952 136.912C303.952 136.912 303.637 145.286 306.763 144.22C309.89 143.154 306.763 135.451 306.763 135.451C306.763 135.451 310.042 131.015 313.625 131.157C317.208 131.299 313.625 138.993 316.122 137.714C318.619 136.435 316.274 129.888 319.086 129.107C321.653 128.517 324.257 128.1 326.881 127.858C326.881 127.858 329.53 135.501 326.881 136.587C324.232 137.673 320.334 138.049 322.202 139.734C324.069 141.419 329.378 139.48 329.378 139.48C329.378 139.48 329.713 143.784 327.906 145.641C326.099 147.499 315.503 143.388 317.37 147.082C319.238 150.777 326.262 148.93 326.262 148.93C326.262 148.93 322.679 154.056 318.466 156.39C314.254 158.725 302.084 156.4 302.084 156.4Z" fill="#FFD200"/>
<path d="M303.485 178.517C303.485 178.517 299.07 174.153 299.933 170.397C299.933 170.397 300.765 167.931 302.47 167.251C302.47 167.251 303.191 172.041 304.845 171.097C306.5 170.154 303.911 166.124 303.911 166.124C303.911 166.124 305.302 163.252 307.352 162.957C309.403 162.663 308.185 167.403 309.474 166.418C310.763 165.434 308.722 161.962 310.235 161.222C311.63 160.612 313.064 160.096 314.528 159.679C314.528 159.679 316.853 163.739 315.462 164.632C314.072 165.525 311.899 166.165 313.138 166.916C314.376 167.667 317.198 166.012 317.198 166.012C317.198 166.012 317.847 168.418 317.015 169.666C316.183 170.915 309.727 169.666 311.189 171.605C312.651 173.544 316.436 171.706 316.436 171.706C315.557 173.613 314.324 175.335 312.803 176.781C310.671 178.548 303.485 178.517 303.485 178.517Z" fill="#FFD200"/>
<path d="M287.245 169.088C287.245 169.088 276.506 169.504 272.792 164.013C272.792 164.013 270.66 160.044 271.777 157.08C271.777 157.08 278.679 161.841 279.45 158.643C280.221 155.446 272.061 153.934 272.061 153.934C272.061 153.934 270.031 148.788 272.122 145.814C274.213 142.84 278.729 150.026 278.993 147.235C279.257 144.444 272.477 142.901 273.329 140.13C274.212 137.647 275.26 135.226 276.466 132.883C276.466 132.883 284.332 134.75 283.835 137.572C283.337 140.394 281.551 143.885 283.977 143.205C286.403 142.525 287.621 137.024 287.621 137.024C287.621 137.024 291.427 139.054 292.026 141.571C292.625 144.088 283.459 150.828 287.58 151.234C291.701 151.64 293.914 144.728 293.914 144.728C293.914 144.728 296.309 150.503 296.025 155.314C295.741 160.125 287.245 169.088 287.245 169.088Z" fill="#FFD200"/>
<path d="M324.546 131.249C323.409 132.209 322.266 133.191 321.115 134.192C321.237 132.974 321.379 131.766 321.572 130.558C321.674 129.919 320.699 129.645 320.557 130.284C320.3 131.902 320.104 133.526 319.968 135.156C316.923 137.795 313.97 140.556 311.189 143.49C310.951 141.431 310.889 139.357 311.006 137.288C311.006 136.638 309.991 136.638 309.991 137.288C309.862 139.681 309.964 142.08 310.296 144.454C308.52 146.369 306.853 148.382 305.302 150.483C303.554 148.068 302.364 145.294 301.82 142.363C301.698 141.723 300.724 141.997 300.805 142.637C301.383 145.75 302.664 148.691 304.551 151.234C304.58 151.269 304.614 151.299 304.652 151.325C300.186 157.649 297.121 164.744 296.857 172.965C296.857 173.615 297.872 173.615 297.872 172.965C298.126 165.048 301.059 158.187 305.342 152.066C309.44 153.154 313.687 153.569 317.918 153.294C318.568 153.294 318.568 152.279 317.918 152.279C313.903 152.54 309.871 152.166 305.972 151.173C308.135 148.265 310.509 145.52 313.077 142.962H313.168C315.533 143.175 317.908 143.378 320.273 143.469C321.764 143.686 323.285 143.511 324.688 142.962C325.277 142.667 324.759 141.794 324.181 142.089C322.536 142.911 320.253 142.475 318.497 142.373C316.995 142.282 315.452 142.16 313.99 142.028C317.614 138.445 321.481 135.116 325.226 131.939C325.815 131.543 325.043 130.832 324.546 131.249Z" fill="#06577A"/>
<path d="M293.101 150.97C293.138 150.835 293.119 150.692 293.05 150.571C292.98 150.45 292.866 150.362 292.731 150.326C292.596 150.289 292.453 150.308 292.332 150.377C292.211 150.447 292.123 150.561 292.086 150.696C290.988 154.44 288.7 157.725 285.57 160.054C284.42 156.86 283.368 153.636 282.413 150.381C284.864 147.94 286.88 145.098 288.372 141.977C288.656 141.388 287.773 140.871 287.499 141.47C286.126 144.339 284.299 146.968 282.089 149.255C281.074 145.519 280.059 141.754 279.308 137.937C279.176 137.298 278.201 137.572 278.293 138.211C279.368 143.422 280.702 148.564 282.292 153.639C280.377 153.267 278.516 152.66 276.75 151.833C276.161 151.559 275.643 152.432 276.242 152.706C278.276 153.669 280.43 154.352 282.647 154.736C283.713 158.075 284.921 161.374 286.199 164.642C283.161 164.545 280.166 163.884 277.369 162.693C276.77 162.44 276.252 163.312 276.861 163.566C279.94 164.89 283.245 165.603 286.595 165.667C288.226 169.727 290.019 173.73 291.975 177.675C292.269 178.263 293.142 177.746 292.848 177.167C290.261 171.949 287.963 166.592 285.966 161.12C289.408 158.625 291.919 155.053 293.101 150.97V150.97Z" fill="#06577A"/>
<path d="M311.473 164.165L308.682 168.844C308.34 168.387 308.045 167.897 307.799 167.383C307.515 166.794 306.642 167.311 306.926 167.89C307.244 168.548 307.635 169.168 308.093 169.737V169.737L305.048 174.812C304.707 174.49 304.488 174.06 304.429 173.594C304.348 172.955 303.333 172.945 303.414 173.594C303.504 174.409 303.904 175.157 304.53 175.685L300.744 182.039C300.693 182.154 300.685 182.283 300.724 182.403C300.762 182.523 300.843 182.624 300.952 182.687C301.061 182.75 301.189 182.771 301.312 182.745C301.435 182.719 301.544 182.648 301.617 182.547L306.611 174.173C307.448 174.185 308.282 174.058 309.078 173.797C309.697 173.594 309.433 172.61 308.804 172.782C308.293 172.942 307.765 173.041 307.23 173.077L312.305 164.591C312.313 164.492 312.291 164.392 312.242 164.305C312.193 164.218 312.119 164.148 312.031 164.102C311.942 164.057 311.842 164.038 311.742 164.049C311.643 164.061 311.549 164.101 311.473 164.165Z" fill="#06577A"/>
<path d="M190.444 65.3852V116.724L258.104 77.819V26.4397L190.444 65.3852Z" fill="white"/>
<path d="M190.444 116.724L206.684 80.8843C207.485 79.1183 208.95 77.7402 210.762 77.05C212.574 76.3599 214.585 76.4138 216.357 77.1998L224.315 80.7321L239.824 54.6161C240.189 54.0055 240.677 53.4782 241.259 53.0686C241.84 52.659 242.501 52.3761 243.198 52.2383C243.896 52.1005 244.615 52.1108 245.308 52.2687C246.002 52.4265 246.654 52.7283 247.223 53.1545L258.145 61.376V77.819L190.444 116.724Z" fill="#FFD200"/>
<path opacity="0.52" d="M137.045 111.791L163.283 96.6066V154.34L137.045 170.346V111.791Z" fill="white"/>
<path d="M78.5203 191.641V212.296C78.5187 212.641 78.6086 212.98 78.7809 213.279C78.9532 213.578 79.2016 213.825 79.5009 213.997C79.8002 214.168 80.1396 214.257 80.4845 214.254C80.8293 214.251 81.1672 214.157 81.4638 213.981L131.879 184.546C132.182 184.381 132.436 184.137 132.615 183.841C132.793 183.545 132.889 183.207 132.894 182.861V162.561C132.896 162.217 132.807 161.878 132.636 161.58C132.465 161.281 132.218 161.033 131.92 160.861C131.622 160.688 131.284 160.598 130.94 160.599C130.595 160.6 130.258 160.692 129.96 160.866L79.5048 189.956C79.2071 190.126 78.9593 190.371 78.7865 190.666C78.6136 190.962 78.5218 191.298 78.5203 191.641V191.641Z" fill="#5BC0BE"/>
<path d="M85.8487 194.93C87.285 193.983 88.7838 193.136 90.335 192.392C93.5965 190.613 96.8648 188.846 100.14 187.094C107.272 183.264 114.411 179.454 121.556 175.665L126.54 173.016C127.697 172.407 126.672 170.651 125.525 171.26C113.802 177.482 102.068 183.704 90.406 190.048C88.4758 190.961 86.6106 192.005 84.8235 193.174C83.8085 193.945 84.8235 195.711 85.8385 194.93H85.8487Z" fill="#F2F2F2"/>
<path d="M85.8487 203.577C87.2852 202.635 88.7841 201.79 90.335 201.05C93.5965 199.27 96.8648 197.504 100.14 195.752C107.272 191.922 114.411 188.112 121.556 184.323L126.54 181.674C127.697 181.065 126.672 179.309 125.525 179.918C113.802 186.14 102.068 192.362 90.406 198.705C88.4758 199.619 86.6106 200.663 84.8235 201.832C83.8085 202.603 84.8235 204.369 85.8385 203.588L85.8487 203.577Z" fill="#F2F2F2"/>
<path d="M79.5558 144.423C82.4079 142.332 86.1127 141.003 89.2693 139.46C92.2196 138.019 95.1733 136.591 98.1303 135.177C99.3077 134.618 98.2825 132.862 97.1153 133.421C94.1583 134.835 91.2046 136.263 88.2543 137.704C85.0875 139.247 81.3929 140.576 78.5408 142.667C77.5258 143.429 78.5408 145.195 79.5558 144.423Z" fill="#F2F2F2"/>
<path d="M79.7181 152.188C82.6819 149.985 86.3461 148.443 89.5839 146.707C92.5816 145.097 95.586 143.496 98.5971 141.906C99.7542 141.297 98.7291 139.541 97.5821 140.15C94.571 141.74 91.5666 143.341 88.5689 144.951C85.3311 146.687 81.6669 148.23 78.7031 150.432C77.6881 151.203 78.7031 152.97 79.7181 152.188Z" fill="#F2F2F2"/>
<defs>
<linearGradient id="paint0_linear" x1="185.542" y1="239.519" x2="231.552" y2="193.509" gradientUnits="userSpaceOnUse">
<stop stop-opacity="0"/>
<stop offset="1" stop-color="#F15A24"/>
</linearGradient>
<linearGradient id="paint1_linear" x1="15942.5" y1="7548.77" x2="17309.9" y2="5078.28" gradientUnits="userSpaceOnUse">
<stop stop-opacity="0"/>
<stop offset="1" stop-color="#F15A24"/>
</linearGradient>
</defs>
</svg>
